<svg xmlns="http://www.w3.org/2000/svg" width="31.177" height="30.792" viewBox="0 0 31.177 30.792"><defs><style>.a{fill:#116ad8;}</style></defs><g transform="translate(0 -3.15)"><path class="a" d="M146.674,151.818V147.24a17.167,17.167,0,0,1-5.174-1.1,24.748,24.748,0,0,0-.842,5.681Z" transform="translate(-132.081 -134.267)"/><path class="a" d="M146.674,276.526v-4.578h-6.015a24.748,24.748,0,0,0,.842,5.681A17.166,17.166,0,0,1,146.674,276.526Z" transform="translate(-132.081 -252.406)"/><path class="a" d="M164.714,32.419a15.271,15.271,0,0,0,4.548.995V27.043C167.076,27.7,165.551,30.288,164.714,32.419Z" transform="translate(-154.67 -22.436)"/><path class="a" d="M276.5,380.728a15.271,15.271,0,0,0-4.548-.995V386.1C274.134,385.449,275.66,382.859,276.5,380.728Z" transform="translate(-255.364 -353.618)"/><path class="a" d="M6.586,97.461a26.627,26.627,0,0,1,1-6.5A17.247,17.247,0,0,1,3.763,88.25,15.483,15.483,0,0,0,0,97.461Z" transform="translate(0 -79.91)"/><path class="a" d="M387.865,271.947a26.629,26.629,0,0,1-1,6.5,17.245,17.245,0,0,1,3.822,2.707,15.483,15.483,0,0,0,3.763-9.211Z" transform="translate(-363.274 -252.405)"/><path class="a" d="M6.586,271.947H0a15.483,15.483,0,0,0,3.763,9.211,17.249,17.249,0,0,1,3.822-2.707,26.627,26.627,0,0,1-1-6.5Z" transform="translate(0 -252.405)"/><path class="a" d="M169.263,386.1v-6.371a15.268,15.268,0,0,0-4.548.995C165.553,382.862,167.079,385.45,169.263,386.1Z" transform="translate(-154.67 -353.618)"/><path class="a" d="M303.908,409.821c-.941,2.356-2.471,4.813-4.693,5.993a15.479,15.479,0,0,0,7.772-3.769A15.361,15.361,0,0,0,303.908,409.821Z" transform="translate(-280.968 -381.872)"/><path class="a" d="M87.657,409.821a15.361,15.361,0,0,0-3.079,2.224,15.478,15.478,0,0,0,7.772,3.769C90.128,414.634,88.6,412.177,87.657,409.821Z" transform="translate(-79.42 -381.872)"/><path class="a" d="M87.657,9.143C88.6,6.787,90.128,4.33,92.35,3.15a15.478,15.478,0,0,0-7.772,3.769,15.363,15.363,0,0,0,3.079,2.224Z" transform="translate(-79.42 0)"/><path class="a" d="M271.947,271.947v4.578a17.166,17.166,0,0,1,5.174,1.1,24.749,24.749,0,0,0,.842-5.681Z" transform="translate(-255.363 -252.405)"/><path class="a" d="M386.866,90.957a26.627,26.627,0,0,1,1,6.5h6.586a15.483,15.483,0,0,0-3.763-9.211A17.248,17.248,0,0,1,386.866,90.957Z" transform="translate(-363.274 -79.91)"/><path class="a" d="M271.947,147.239v4.578h6.015a24.749,24.749,0,0,0-.842-5.681A17.165,17.165,0,0,1,271.947,147.239Z" transform="translate(-255.363 -134.267)"/><path class="a" d="M271.947,27.043v6.371a15.266,15.266,0,0,0,4.548-.995C275.657,30.285,274.131,27.7,271.947,27.043Z" transform="translate(-255.363 -22.436)"/><path class="a" d="M299.215,3.15c2.223,1.18,3.753,3.637,4.693,5.993a15.363,15.363,0,0,0,3.079-2.224A15.479,15.479,0,0,0,299.215,3.15Z" transform="translate(-280.968)"/></g></svg>