<svg xmlns="http://www.w3.org/2000/svg" width="146" height="152.801" viewBox="0 0 146 152.801"><defs><style>.a{fill:#eab300;opacity:0.151;}.b{fill:#0d59ca;}</style></defs><g transform="translate(-103 19)"><circle class="a" cx="73" cy="73" r="73" transform="translate(103 -19)"/><path class="b" d="M26.921,19.543a1.7,1.7,0,1,0,1.657,1.7A1.679,1.679,0,0,0,26.921,19.543Zm-6.629,0a1.7,1.7,0,1,0,1.657,1.7A1.679,1.679,0,0,0,20.292,19.543Zm79.177,3.4a1.7,1.7,0,1,0-1.657-1.7A1.679,1.679,0,0,0,99.469,22.942Zm-13.258-3.4a1.7,1.7,0,1,0,1.657,1.7A1.679,1.679,0,0,0,86.211,19.543Zm-72.548,0a1.7,1.7,0,1,0,1.657,1.7A1.679,1.679,0,0,0,13.663,19.543Zm80.834,1.7a1.658,1.658,0,1,0-1.657,1.7A1.679,1.679,0,0,0,94.5,21.242ZM13.663,93.94a1.7,1.7,0,1,0,1.657,1.7A1.679,1.679,0,0,0,13.663,93.94Zm79.177,0a1.7,1.7,0,1,0,1.657,1.7A1.679,1.679,0,0,0,92.84,93.94Zm6.629,0a1.7,1.7,0,1,0,1.657,1.7A1.679,1.679,0,0,0,99.469,93.94ZM97.62,75.416a44.422,44.422,0,0,0,1.039-9.554A43.468,43.468,0,0,0,91.68,42.048h1.544a19.936,19.936,0,0,0,14.091-6.221,21.186,21.186,0,0,0-.23-29.4A19.887,19.887,0,0,0,92.542.435C81.587.6,72.618,9.871,72.548,21.108a21.066,21.066,0,0,0,6.1,15.008l-2.532,1.536a2.366,2.366,0,0,0-1.05,2.659,2.292,2.292,0,0,0,2.224,1.74l10.333,0a39.809,39.809,0,0,1,5.7,11.065c-1.193-.315-2.4-.581-3.6-.793a42.615,42.615,0,0,0-14.311.007c-3.632.5-5.455.689-7.2-.583-1.457-1.061-1.662-2.277-1.925-4.511a13.634,13.634,0,0,0-3.687-8.768,20.725,20.725,0,0,0-7.367-4.708c-2.768-1.214-4.369-2-5.084-3.977a6.374,6.374,0,0,1-.251-3.088,37.9,37.9,0,0,1,17.6,1,1.651,1.651,0,0,0,2.056-1.153,1.706,1.706,0,0,0-1.124-2.109A41.174,41.174,0,0,0,56.566,22.7a41.63,41.63,0,0,0-16.56,3.475,21.316,21.316,0,0,0,.578-5.063C40.515,9.871,31.546.6,20.591.435A19.885,19.885,0,0,0,6.048,6.422a21.186,21.186,0,0,0-.23,29.4,20.737,20.737,0,0,0,15.634,6.221,43.467,43.467,0,0,0-6.979,23.814,44.434,44.434,0,0,0,1.039,9.554,20.053,20.053,0,0,0-9.694,5.64,21.186,21.186,0,0,0,.23,29.4c9.507,9.61,26.532,6.813,32.419-5.623a41.2,41.2,0,0,0,36.2.005c5.7,11.963,22.515,15.628,32.417,5.618a21.186,21.186,0,0,0,.23-29.4A20.057,20.057,0,0,0,97.62,75.416ZM80.981,38.651A2.741,2.741,0,0,0,82.518,36.5a2.571,2.571,0,0,0-.835-2.138,17.6,17.6,0,0,1-5.82-13.234A17.292,17.292,0,0,1,92.59,3.833l.252,0a16.643,16.643,0,0,1,11.916,5.011,17.726,17.726,0,0,1,.192,24.6,16.679,16.679,0,0,1-11.773,5.2Zm-61.026,0a16.68,16.68,0,0,1-11.773-5.2,17.725,17.725,0,0,1,.192-24.6A16.645,16.645,0,0,1,20.543,3.834,17.292,17.292,0,0,1,37.27,21.13a17.6,17.6,0,0,1-5.82,13.234,2.571,2.571,0,0,0-.835,2.138,2.712,2.712,0,0,0,1.537,2.149Zm.588,74.4a16.657,16.657,0,0,1-12.168-5.009,17.725,17.725,0,0,1-.192-24.6,16.679,16.679,0,0,1,11.773-5.2l12.2,0a2.657,2.657,0,0,0-1.537,2.149,2.571,2.571,0,0,0,.835,2.138,17.323,17.323,0,0,1,2.76,3.151c.02.032.04.064.063.094a17.712,17.712,0,0,1,3,9.989A17.292,17.292,0,0,1,20.543,113.048Zm18.765-24.67c3.168,1.546,5.929,3.187,6.057,5.158.067,1.022-.6,3.053-5.153,6.046a21.053,21.053,0,0,0,.372-3.808A21.276,21.276,0,0,0,39.308,88.378Zm34.125,13.3a38.125,38.125,0,0,1-10.447,3.4c-.4-.83-.77-1.681-1.091-2.544-3.032-8.188-1.885-10.214-1.461-10.64.261-.263.621-.243,2.136.123a12.778,12.778,0,0,0,6.587.207,1.7,1.7,0,0,0,1.208-2.059,1.655,1.655,0,0,0-2.008-1.239,9.731,9.731,0,0,1-5.029-.218c-1.687-.407-3.6-.868-5.215.76-3.006,3.021-1.05,9.593.685,14.279.221.594.464,1.183.721,1.765-.982.077-1.966.12-2.953.12a38.117,38.117,0,0,1-14.83-3.016c4.863-3.147,7.138-6.207,6.936-9.3-.288-4.434-5.078-6.676-10.149-9.049-.6-.281-1.217-.571-1.824-.863a20.707,20.707,0,0,0-2.217-2.632l2.532-1.536a2.366,2.366,0,0,0,1.05-2.659,2.292,2.292,0,0,0-2.224-1.74c-1.455,0-15.85-.182-17.047.059a40.937,40.937,0,0,1-1-9.028,40.121,40.121,0,0,1,5.2-19.908C31.021,48.961,35.5,52.491,35.969,56.2c.4,3.2-2.248,6.057-5.055,9.082a43.134,43.134,0,0,0-3.52,4.125,1.728,1.728,0,0,0,.359,2.375,1.622,1.622,0,0,0,.977.328,1.642,1.642,0,0,0,1.339-.7,40.135,40.135,0,0,1,3.247-3.789c3.068-3.307,6.545-7.055,5.941-11.859-.635-5.06-5.365-9.239-14.439-12.743q.338-.492.693-.976l10.33,0h0a2.292,2.292,0,0,0,2.224-1.74,2.366,2.366,0,0,0-1.05-2.659l-2.532-1.536a20.794,20.794,0,0,0,3.855-5.358,38,38,0,0,1,8.161-3.3,9.379,9.379,0,0,0,.535,3.5c1.245,3.446,4.114,4.7,6.889,5.921a17.769,17.769,0,0,1,6.289,3.947c2.257,2.391,2.51,4.538,2.778,6.811.27,2.294.576,4.894,3.3,6.875,2.891,2.106,5.984,1.677,9.565,1.18a39.252,39.252,0,0,1,13.307-.025,40.91,40.91,0,0,1,5.219,1.278,41.27,41.27,0,0,1-.036,17.94c-.371-.028-.742-.048-1.117-.055h-.03l-15.9,0h0a2.292,2.292,0,0,0-2.224,1.74,2.366,2.366,0,0,0,1.05,2.659l2.532,1.536a21.147,21.147,0,0,0-5.218,20.914Zm31.325,6.36a16.652,16.652,0,0,1-12.168,5.009,17.292,17.292,0,0,1-16.727-17.3,17.6,17.6,0,0,1,5.82-13.234,2.571,2.571,0,0,0,.835-2.138,2.675,2.675,0,0,0-1.537-2.149l12.2,0a16.68,16.68,0,0,1,11.773,5.2,17.725,17.725,0,0,1-.192,24.6ZM86.211,93.94a1.7,1.7,0,1,0,1.657,1.7A1.679,1.679,0,0,0,86.211,93.94Zm-59.29,0a1.7,1.7,0,1,0,1.657,1.7A1.679,1.679,0,0,0,26.921,93.94ZM71.8,61.813c-1.957-1.48-4.421-.211-6.8,1.018C62.938,63.893,60.6,65.1,59.24,64.249c-.858-.532-1.111-1.646-1.427-3.418-.328-1.841-.736-4.132-2.844-5.149a6.17,6.17,0,0,0-5.182.276,14.665,14.665,0,0,0-7.595,8.36,15.464,15.464,0,0,0,1.951,12.794c1.949,3.12,4.6,5.143,7.1,5.414a6.418,6.418,0,0,0,3.278-.611,6.922,6.922,0,0,1,3.194-.636,7.327,7.327,0,0,1,3.387.972c5.928,2.991,10.088-4.044,11.743-10.244C73.47,69.654,74.625,63.95,71.8,61.813Zm-2.155,9.3c-1.214,4.547-3.706,8.4-5.555,8.6a2.818,2.818,0,0,1-1.528-.5,10.473,10.473,0,0,0-4.733-1.319,11.28,11.28,0,0,0-4.511.864,3.4,3.4,0,0,1-1.73.4c-1.459-.158-3.285-1.676-4.654-3.867a11.982,11.982,0,0,1-1.6-9.872,11.267,11.267,0,0,1,5.753-6.322,3.28,3.28,0,0,1,2.473-.327c.525.253.735,1.227.994,2.684.345,1.939.775,4.352,2.972,5.715,2.932,1.819,6.275.1,8.962-1.29,1-.518,2.875-1.481,3.347-1.319.439.332.852,2.668-.188,6.561ZM20.292,93.94a1.7,1.7,0,1,0,1.657,1.7A1.679,1.679,0,0,0,20.292,93.94Z" transform="translate(119.062 17.549)"/></g></svg>