<svg xmlns="http://www.w3.org/2000/svg" width="146" height="160.375" viewBox="0 0 146 160.375"><defs><style>.a{fill:#eab300;opacity:0.151;}.b{fill:#0d59ca;}</style></defs><g transform="translate(-110.427 19)"><circle class="a" cx="73" cy="73" r="73" transform="translate(110.427 -19)"/><g transform="translate(132.062 23.599)"><g transform="translate(63.329 19.428)"><path class="b" d="M297.306,83a1.306,1.306,0,1,0,1.306,1.306A1.307,1.307,0,0,0,297.306,83Z" transform="translate(-296 -83)"/></g><g transform="translate(39.874 19.428)"><path class="b" d="M197.306,83a1.306,1.306,0,1,0,1.306,1.306A1.307,1.307,0,0,0,197.306,83Z" transform="translate(-196 -83)"/></g><path class="b" d="M128.853,68.752a18.4,18.4,0,0,0,2.962-9.864,15.977,15.977,0,0,0-5.827-12.36,15.551,15.551,0,0,0,1.227-6.043,17.146,17.146,0,0,0-9.3-15.164,13.787,13.787,0,0,0-10.471-15.045C104.8,4.165,98.914,0,92.709,0a16.166,16.166,0,0,0-13.8,8.285A16.166,16.166,0,0,0,65.105,0C58.9,0,53.015,4.165,50.371,10.277A13.785,13.785,0,0,0,39.9,25.322a17.146,17.146,0,0,0-9.3,15.164,15.55,15.55,0,0,0,1.227,6.043A15.977,15.977,0,0,0,26,58.888a18.394,18.394,0,0,0,2.962,9.864,15.881,15.881,0,0,0,1.845,20.619c-1.579,9.545,6.033,19.2,15.9,19.2q.107,0,.21,0a18.135,18.135,0,0,0,31.994-.8,18.135,18.135,0,0,0,31.994.8c.069,0,.139,0,.21,0,8.728,0,16.1-7.69,16.1-16.792a14.727,14.727,0,0,0-.207-2.411,15.88,15.88,0,0,0,1.845-20.619ZM76.607,34.822a9.142,9.142,0,0,0-4.6-1.238,2.3,2.3,0,1,0,0,4.6,4.606,4.606,0,0,1,4.6,4.6V86.531a18.36,18.36,0,0,0-13.8-6.25,2.3,2.3,0,1,0,0,4.6,13.818,13.818,0,0,1,13.8,13.8c0,7.855-6.321,14.492-13.8,14.492a13.841,13.841,0,0,1-12.491-8.024,2.3,2.3,0,0,0-2.346-1.317c-.163.019-.324.04-.486.062-6.547.9-13.919-6.518-11.923-14.811a2.3,2.3,0,0,0-.765-2.306,11.452,11.452,0,0,1-4.193-8.8,11.32,11.32,0,0,1,1.688-5.919A15.521,15.521,0,0,0,42.1,75.681a2.3,2.3,0,0,0,0-4.6c-6.243,0-11.5-5.7-11.5-12.192a11.437,11.437,0,0,1,5.372-9.694,2.3,2.3,0,0,0,.77-3.078A11.32,11.32,0,0,1,35.2,40.486c0-6.209,5.061-12.192,11.5-12.192,6.127,0,11.5,5.7,11.5,12.192a2.3,2.3,0,0,0,4.6,0c0-9.1-7.374-16.792-16.1-16.792a14.916,14.916,0,0,0-2.295.18c0-.06-.006-.119-.006-.18a9.2,9.2,0,0,1,15.709-6.506,2.3,2.3,0,0,0,3.251-3.255,13.709,13.709,0,0,0-7.629-3.876A11.621,11.621,0,0,1,65.105,4.6c6.127,0,11.5,5.7,11.5,12.192Zm39.105,40.858a15.525,15.525,0,0,0,9.814-3.618,11.319,11.319,0,0,1,1.688,5.918,11.452,11.452,0,0,1-4.193,8.8,2.3,2.3,0,0,0-.765,2.306,11.348,11.348,0,0,1,.357,2.7c0,7.14-6.458,12.911-12.281,12.115-.162-.022-.324-.044-.486-.062a2.3,2.3,0,0,0-2.346,1.317,13.841,13.841,0,0,1-12.491,8.024c-7.481,0-13.8-6.637-13.8-14.492a13.818,13.818,0,0,1,13.8-13.8,2.3,2.3,0,1,0,0-4.6,18.36,18.36,0,0,0-13.8,6.25V42.786a4.606,4.606,0,0,1,4.6-4.6,2.3,2.3,0,1,0,0-4.6,9.142,9.142,0,0,0-4.6,1.238V16.792c0-6.495,5.374-12.192,11.5-12.192a11.621,11.621,0,0,1,9.371,5.455,13.71,13.71,0,0,0-7.629,3.876A2.3,2.3,0,1,0,97.7,17.187a9.2,9.2,0,0,1,15.71,6.506c0,.061,0,.12-.006.18a14.916,14.916,0,0,0-2.295-.18c-8.728,0-16.1,7.69-16.1,16.792a2.3,2.3,0,1,0,4.6,0c0-6.494,5.374-12.192,11.5-12.192,6.437,0,11.5,5.98,11.5,12.192a11.32,11.32,0,0,1-1.541,5.631,2.3,2.3,0,0,0,.77,3.078,11.438,11.438,0,0,1,5.371,9.694c0,6.517-5.277,12.192-11.5,12.192a2.3,2.3,0,1,0,0,4.6Z" transform="translate(-26)"/><g transform="translate(21.209 43.237)"><path class="b" d="M121.342,172.277a1.306,1.306,0,0,0-1.844-.1,6.543,6.543,0,0,1-10.885-4.868,1.306,1.306,0,1,0-2.612,0,9.157,9.157,0,0,0,7.654,9.02,3.926,3.926,0,0,1-3.736,2.736,1.306,1.306,0,0,0,0,2.612,6.541,6.541,0,0,0,6.414-5.3,9.128,9.128,0,0,0,4.907-2.25A1.306,1.306,0,0,0,121.342,172.277Z" transform="translate(-106 -166)"/></g><g transform="translate(20.077 101.71)"><path class="b" d="M107.306,389a1.306,1.306,0,1,0,0,2.612,6.912,6.912,0,0,1,6.531,6.923,1.306,1.306,0,1,0,2.612,0A9.471,9.471,0,0,0,107.306,389Z" transform="translate(-106 -389)"/></g><g transform="translate(22.968 75.199)"><path class="b" d="M126.8,309a11.732,11.732,0,0,0-10.228,5.957,1.306,1.306,0,1,0,2.273,1.288,9.123,9.123,0,0,1,7.955-4.633,1.306,1.306,0,1,0,0-2.612Z" transform="translate(-116.398 -309)"/></g><g transform="translate(68.931 43.237)"><path class="b" d="M297.756,179.062a3.926,3.926,0,0,1-3.736-2.736,9.157,9.157,0,0,0,7.654-9.02,1.306,1.306,0,1,0-2.612,0,6.531,6.531,0,0,1-10.885,4.868,1.306,1.306,0,0,0-1.742,1.947,9.129,9.129,0,0,0,4.907,2.25,6.541,6.541,0,0,0,6.414,5.3,1.306,1.306,0,1,0,0-2.612Z" transform="translate(-286 -166)"/></g><g transform="translate(75.288 101.71)"><path class="b" d="M335.143,389A9.471,9.471,0,0,0,326,398.535a1.306,1.306,0,1,0,2.612,0,6.912,6.912,0,0,1,6.531-6.923,1.306,1.306,0,1,0,0-2.612Z" transform="translate(-326 -389)"/></g><g transform="translate(71.142 75.199)"><path class="b" d="M317.534,314.958A11.73,11.73,0,0,0,307.306,309a1.306,1.306,0,0,0,0,2.612,9.125,9.125,0,0,1,7.955,4.633,1.306,1.306,0,0,0,2.273-1.288Z" transform="translate(-306 -309)"/></g></g></g></svg>