<svg xmlns="http://www.w3.org/2000/svg" width="80.689" height="79.608" viewBox="0 0 80.689 79.608"><defs><style>.a{fill:#fff;}</style></defs><path class="a" d="M70.13,107.26a37.13,37.13,0,1,1,37.13-37.13.977.977,0,1,1-1.954,0A35.176,35.176,0,1,0,70.13,105.306a.977.977,0,0,1,0,1.954Z" transform="translate(-33 -33)"/><g transform="translate(13.094 20.512)"><path class="a" d="M121.375,85.7a2.934,2.934,0,0,0-3.83,1.581l-11.39,27.375a2.931,2.931,0,0,0,5.413,2.252l11.388-27.375A2.935,2.935,0,0,0,121.375,85.7Zm-.223,3.082-11.388,27.375a.992.992,0,0,1-1.278.527.977.977,0,0,1-.527-1.277l11.388-27.375a.98.98,0,0,1,.9-.6.965.965,0,0,1,.373.075A.977.977,0,0,1,121.151,88.786Z" transform="translate(-90.52 -85.48)"/><path class="a" d="M151.656,118.444a2.931,2.931,0,0,0,5,2.071l8.928-8.928a2.931,2.931,0,0,0,0-4.146l-8.927-8.927a2.931,2.931,0,1,0-4.145,4.145l6.856,6.856-6.855,6.855a2.913,2.913,0,0,0-.859,2.073Zm2.241-.691,7.548-7.546a.977.977,0,0,0,0-1.382l-7.546-7.546A.977.977,0,1,1,155.28,99.9l8.928,8.928a.977.977,0,0,1,0,1.382l-8.93,8.928a1,1,0,0,1-1.382,0,.977.977,0,0,1,0-1.382Z" transform="translate(-118.375 -92.897)"/><path class="a" d="M73.579,109.516l6.855-6.856a2.931,2.931,0,1,0-4.145-4.145l-8.927,8.93a2.931,2.931,0,0,0,0,4.146l8.928,8.928a2.931,2.931,0,1,0,4.145-4.145Zm5.472,9.619a1,1,0,0,1-1.382,0l-8.926-8.928a.977.977,0,0,1,0-1.382L77.67,99.9a.977.977,0,1,1,1.382,1.382L71.5,108.825a.977.977,0,0,0,0,1.382l7.546,7.546a.977.977,0,0,1,0,1.382Z" transform="translate(-66.503 -92.897)"/><path class="a" d="M178.5,143.035l-1.775-1.775a6,6,0,0,0-8.481,0l-21.362,21.362a5.643,5.643,0,0,0-1.377,2.254l-3.121,9.693a2.23,2.23,0,0,0,2.809,2.809l9.693-3.121a5.647,5.647,0,0,0,2.254-1.377L178.5,151.518a6,6,0,0,0,0-8.483Zm-22.053,27.771-7.493-7.493,16.533-16.531,7.493,7.493Zm-11.854,4.711a.278.278,0,0,1-.35-.35l.782-2.423,1.993,1.993Zm9.693-3.121-5.178,1.668-3.41-3.41,1.668-5.178a3.643,3.643,0,0,1,.305-.682l7.3,7.3a3.648,3.648,0,0,1-.686.306Zm22.832-22.26-2.759,2.759-7.491-7.493,2.759-2.759a4.048,4.048,0,0,1,5.718,0l1.775,1.775A4.048,4.048,0,0,1,177.118,150.135Z" transform="translate(-112.66 -118.391)"/></g><path class="a" d="M78.354,110.207a31.854,31.854,0,1,1,31.854-31.854.977.977,0,1,1-1.954,0,29.9,29.9,0,1,0-29.9,29.9.977.977,0,1,1,0,1.954Z" transform="translate(-41.224 -41.224)"/></svg>