<svg xmlns="http://www.w3.org/2000/svg" width="79.971" height="70.557" viewBox="0 0 79.971 70.557"><defs><style>.a{fill:#fff;}</style></defs><path class="a" d="M124.862,198.18a1.315,1.315,0,0,1-.855-.315l-8.544-7.275a1.321,1.321,0,0,1,0-2.011l8.544-7.275a1.32,1.32,0,1,1,1.712,2.01l-7.362,6.27,7.362,6.27a1.321,1.321,0,0,1-.857,2.326Zm0,0" transform="translate(-93.31 -146.852)"/><path class="a" d="M251.028,198.18a1.321,1.321,0,0,1-.857-2.326l7.362-6.27-7.362-6.27a1.32,1.32,0,0,1,1.711-2.01l8.544,7.275a1.321,1.321,0,0,1,0,2.011l-8.544,7.275A1.315,1.315,0,0,1,251.028,198.18Zm0,0" transform="translate(-202.61 -146.852)"/><path class="a" d="M190.276,180.946a1.342,1.342,0,0,1-.274-.029,1.321,1.321,0,0,1-1.02-1.564l5.325-25.281a1.32,1.32,0,1,1,2.584.544L191.566,179.9A1.321,1.321,0,0,1,190.276,180.946Zm0,0" transform="translate(-153.315 -124.162)"/><path class="a" d="M71.107,70.557H8.865A8.875,8.875,0,0,1,0,61.692V8.865A8.875,8.875,0,0,1,8.865,0H71.107a8.875,8.875,0,0,1,8.865,8.865V61.692A8.875,8.875,0,0,1,71.107,70.557ZM8.865,2.641A6.231,6.231,0,0,0,2.641,8.865V61.692a6.231,6.231,0,0,0,6.224,6.224H71.107a6.231,6.231,0,0,0,6.224-6.224V8.865a6.231,6.231,0,0,0-6.224-6.224Zm0,0"/><path class="a" d="M78.651,100.73H1.32a1.32,1.32,0,0,1,0-2.641H78.651a1.32,1.32,0,1,1,0,2.641Zm0,0" transform="translate(0 -79.589)"/><path class="a" d="M101.627,42.645a4.178,4.178,0,1,1,4.178-4.178A4.184,4.184,0,0,1,101.627,42.645Zm0-5.716a1.538,1.538,0,1,0,1.538,1.538A1.54,1.54,0,0,0,101.627,36.93Zm0,0" transform="translate(-79.069 -27.822)"/><path class="a" d="M33.565,42.431a4.178,4.178,0,1,1,4.178-4.178A4.183,4.183,0,0,1,33.565,42.431Zm0-5.716A1.538,1.538,0,1,0,35.1,38.252,1.54,1.54,0,0,0,33.565,36.715Zm0,0" transform="translate(-23.844 -27.647)"/><path class="a" d="M169.693,42.86a4.178,4.178,0,1,1,4.178-4.178A4.183,4.183,0,0,1,169.693,42.86Zm0-5.716a1.538,1.538,0,1,0,1.538,1.538A1.539,1.539,0,0,0,169.693,37.144Zm0,0" transform="translate(-134.297 -27.996)"/></svg>