<svg xmlns="http://www.w3.org/2000/svg" width="146" height="158.538" viewBox="0 0 146 158.538"><defs><style>.a{fill:#eab300;opacity:0.151;}.b{fill:#0d59ca;}</style></defs><g transform="translate(-102.855 19)"><circle class="a" cx="73" cy="73" r="73" transform="translate(102.855 -19)"/><g transform="translate(109.347 18.609)"><g transform="translate(0 0)"><path class="b" d="M261.326,302.762a1.949,1.949,0,0,0-1.949,1.949v9.13a3.1,3.1,0,0,1-3.1,3.1H230.711a1.949,1.949,0,0,0,0,3.9h25.564a7.008,7.008,0,0,0,7-7v-9.13A1.949,1.949,0,0,0,261.326,302.762Z" transform="translate(-169.308 -230.144)"/><path class="b" d="M198.412,104.645V96.211a20.419,20.419,0,0,0-3.47-11.411,1.949,1.949,0,0,0-3.238,2.171,16.535,16.535,0,0,1,2.81,9.24v8.432h-4.94V96.211a11.7,11.7,0,0,0-23.4,0v8.432h-4.94V96.211a16.633,16.633,0,0,1,24.517-14.653,1.949,1.949,0,0,0,1.852-3.43,20.532,20.532,0,0,0-30.267,18.083v8.435a7.007,7.007,0,0,0-6.9,7v34.128a7.008,7.008,0,0,0,7,7h6.332a1.949,1.949,0,1,0,0-3.9H157.44a3.1,3.1,0,0,1-3.1-3.1V121.239h47.071v6.43a1.949,1.949,0,1,0,3.9,0V111.642A7.006,7.006,0,0,0,198.412,104.645Zm-28.34-8.435a7.8,7.8,0,0,1,15.6,0v8.432h-15.6V96.211Zm-15.734,21.13v-5.7a3.1,3.1,0,0,1,3.1-3.1h40.869a3.1,3.1,0,0,1,3.1,3.1v5.7Z" transform="translate(-111.342 -62.074)"/><path class="b" d="M237.607,287.663a1.949,1.949,0,0,0,1.949-1.949v-3.649a6.459,6.459,0,1,0-3.9,0v3.649A1.949,1.949,0,0,0,237.607,287.663Zm0-14.316a2.56,2.56,0,1,1-2.56,2.561A2.563,2.563,0,0,1,237.607,273.347Z" transform="translate(-171.074 -205.489)"/><path class="b" d="M396.219,179.016a1.95,1.95,0,0,0-1.378.571l-7.871,7.872h-7.062a1.949,1.949,0,1,0,0,3.9h7.869a1.951,1.951,0,0,0,1.379-.571l7.871-7.872h3.794a6.146,6.146,0,1,0,0-3.9Zm10.43-.3a2.248,2.248,0,1,1-2.248,2.248A2.25,2.25,0,0,1,406.648,178.717Z" transform="translate(-279.729 -135.453)"/><path class="b" d="M406.649,280.264a6.156,6.156,0,0,0-5.828,4.2h-3.794l-7.871-7.872a1.95,1.95,0,0,0-1.378-.571h-7.869a1.949,1.949,0,1,0,0,3.9h7.062l7.871,7.872a1.949,1.949,0,0,0,1.378.571h4.6a6.146,6.146,0,1,0,5.827-8.1Zm0,8.394a2.248,2.248,0,1,1,2.248-2.248A2.25,2.25,0,0,1,406.649,288.658Z" transform="translate(-279.73 -210.351)"/><path class="b" d="M44.839,276.018H36.97a1.95,1.95,0,0,0-1.378.571l-7.871,7.872H18.1a1.949,1.949,0,1,0,0,3.9h10.43a1.95,1.95,0,0,0,1.378-.571l7.871-7.872h7.062a1.949,1.949,0,1,0,0-3.9Z" transform="translate(-11.952 -210.351)"/><path class="b" d="M32.081,143.3H45.938l7.872,7.872a1.949,1.949,0,1,0,2.757-2.757l-8.443-8.443a1.95,1.95,0,0,0-1.378-.571H32.081a1.949,1.949,0,1,0,0,3.9Z" transform="translate(-22.301 -109.242)"/><path class="b" d="M11.974,215.514H32.887a1.949,1.949,0,0,0,0-3.9H11.974a6.146,6.146,0,1,0,0,3.9ZM3.9,213.565a2.248,2.248,0,1,1,2.248,2.248A2.25,2.25,0,0,1,3.9,213.565Z" transform="translate(0 -159.58)"/><path class="b" d="M105.659,368.5l-4.961,4.961a1.95,1.95,0,0,0-.571,1.378v12.492a6.146,6.146,0,1,0,3.9,0V375.643l4.39-4.39a1.949,1.949,0,0,0-2.757-2.757ZM102.077,395.4a2.248,2.248,0,1,1,2.248-2.248A2.25,2.25,0,0,1,102.077,395.4Z" transform="translate(-70.999 -278.373)"/><path class="b" d="M372.828,368.5a1.949,1.949,0,1,0-2.757,2.757l4.39,4.39v17.513a1.949,1.949,0,0,0,3.9,0v-18.32a1.951,1.951,0,0,0-.571-1.378Z" transform="translate(-273.47 -278.373)"/><path class="b" d="M371.449,50.975a1.944,1.944,0,0,0,1.378-.571l4.961-4.961a1.95,1.95,0,0,0,.571-1.378V35.322a6.146,6.146,0,1,0-3.9,0v7.936l-4.39,4.39a1.949,1.949,0,0,0,1.379,3.327Zm4.96-23.729a2.248,2.248,0,1,1-2.248,2.248A2.25,2.25,0,0,1,376.409,27.246Z" transform="translate(-273.469 -23.348)"/><path class="b" d="M115.978,52.99V38.446a1.949,1.949,0,1,0-3.9,0V53.8a1.951,1.951,0,0,0,.571,1.378l4.961,4.961a1.949,1.949,0,0,0,2.757-2.757Z" transform="translate(-82.951 -33.08)"/><path class="b" d="M371.449,98.015a1.949,1.949,0,1,0,0,3.9h8.722a1.95,1.95,0,0,0,1.378-.571L394.032,88.86a1.95,1.95,0,0,0,.571-1.378V77.62a1.949,1.949,0,1,0-3.9,0v9.054L379.363,98.016h-7.914Z" transform="translate(-273.469 -62.073)"/><path class="b" d="M406.553,332.242h-7.174l-12.551-12.551a1.949,1.949,0,0,0-2.757,2.757l13.122,13.122a1.95,1.95,0,0,0,1.378.571h7.982a1.949,1.949,0,1,0,0-3.9Z" transform="translate(-283.831 -242.251)"/><path class="b" d="M36.894,331.073h6.342a1.949,1.949,0,1,0,0-3.9H36.086a1.951,1.951,0,0,0-1.378.571L22.8,339.657a6.158,6.158,0,1,0,2.792,2.721ZM20.128,347.44a2.248,2.248,0,1,1,2.248-2.248A2.25,2.25,0,0,1,20.128,347.44Z" transform="translate(-10.348 -248.212)"/><path class="b" d="M217.461,400.115H195.125a6.287,6.287,0,0,0,0,12.575H217.46a6.287,6.287,0,0,0,0-12.575Zm0,8.676H195.125a2.389,2.389,0,0,1,0-4.778H217.46a2.389,2.389,0,0,1,0,4.778Z" transform="translate(-139.76 -302.196)"/></g></g></g></svg>