<svg xmlns="http://www.w3.org/2000/svg" width="74.238" height="74.238" viewBox="0 0 74.238 74.238"><defs><style>.a{fill:#fff;}</style></defs><path class="a" d="M16.184,45.058a9.893,9.893,0,1,0,3.94,14.406l9.35,4.681A9.9,9.9,0,1,0,47.316,60.8L60.455,47.061a9.9,9.9,0,1,0-.176-15.752l-13.35-13.35a9.9,9.9,0,1,0-17.456-3.872l-8.775,3.2a9.9,9.9,0,1,0-4.84,13.578l4.555,7.665ZM11.9,61.39a7.424,7.424,0,1,1,7.424-7.424A7.431,7.431,0,0,1,11.9,61.39Zm9.328-4.144A9.831,9.831,0,0,0,18.264,46.4l3.558-5.5L32.551,58.955a9.934,9.934,0,0,0-2.22,2.85ZM39.119,21.8a9.84,9.84,0,0,0,6.06-2.089L58.531,33.06a9.854,9.854,0,0,0-1.745,3.513L49.014,35.5c0-.032,0-.064,0-.1a9.895,9.895,0,0,0-18.124-5.5l-1.476-.737,5.417-8.365a9.817,9.817,0,0,0,4.285.99Zm1.237,34.73V45.219a9.911,9.911,0,0,0,8.317-7.265l7.773,1.069c0,.032,0,.064,0,.1a9.844,9.844,0,0,0,2.221,6.236L45.671,58.939A9.856,9.856,0,0,0,40.356,56.527ZM39.119,27.983A7.424,7.424,0,1,1,31.7,35.407,7.431,7.431,0,0,1,39.119,27.983Zm-9.328,4.144A9.861,9.861,0,0,0,37.882,45.22V56.528a9.817,9.817,0,0,0-3.289,1.02L23.324,38.583l4.74-7.32Zm9.328,41.636a7.424,7.424,0,1,1,7.424-7.424A7.431,7.431,0,0,1,39.119,73.763ZM66.34,31.7a7.424,7.424,0,1,1-7.424,7.424A7.431,7.431,0,0,1,66.34,31.7ZM39.119,4.475A7.424,7.424,0,1,1,31.7,11.9,7.431,7.431,0,0,1,39.119,4.475Zm-8.8,11.936a9.966,9.966,0,0,0,2.434,3.056L27.19,28.059l-5.964-2.982a9.676,9.676,0,0,0,.318-5.469ZM4.475,21.8A7.424,7.424,0,1,1,11.9,29.221,7.431,7.431,0,0,1,4.475,21.8ZM17.98,29.591a9.982,9.982,0,0,0,2.144-2.3l5.713,2.856-3.923,6.059Z" transform="translate(-2 -2)"/></svg>