<svg xmlns="http://www.w3.org/2000/svg" width="54.497" height="54.496" viewBox="0 0 54.497 54.496"><defs><style>.a{fill:none;stroke:#0d59ca;stroke-width:2px;}</style></defs><g transform="matrix(0.996, -0.087, 0.087, 0.996, 1.083, 5.293)"><g transform="translate(0 0)"><path class="a" d="M3.876,31.706a27.425,27.425,0,0,0,8.613-1.372,3.937,3.937,0,0,1,3.829.807l5.431,4.1A30.015,30.015,0,0,0,35.244,21.749l-3.979-5.29A3.9,3.9,0,0,1,30.3,12.5a27.467,27.467,0,0,0,1.377-8.627A3.88,3.88,0,0,1,35.557,0h8.871A3.88,3.88,0,0,1,48.3,3.876,44.478,44.478,0,0,1,3.876,48.3,3.88,3.88,0,0,1,0,44.427V35.582A3.881,3.881,0,0,1,3.876,31.706Z" transform="translate(0 0)"/></g></g></svg>