<svg xmlns="http://www.w3.org/2000/svg" width="64.011" height="83.493" viewBox="0 0 64.011 83.493"><defs><style>.a{fill:#0d59ca;}</style></defs><g transform="translate(0 0)"><path class="a" d="M.109,58.293v72.36A1.392,1.392,0,0,0,1.5,132.045H54.38a1.392,1.392,0,0,0,1.391-1.392V72.209c0-.031-.015-.057-.018-.088a1.312,1.312,0,0,0-.071-.358c-.015-.045-.026-.088-.046-.131a1.377,1.377,0,0,0-.279-.408L41.442,57.31a1.35,1.35,0,0,0-.409-.279,1.256,1.256,0,0,0-.128-.046,1.379,1.379,0,0,0-.361-.072c-.024,0-.051-.011-.08-.011H1.5A1.391,1.391,0,0,0,.109,58.293ZM51.02,70.818H41.856V61.653ZM2.892,59.685H39.073V72.209A1.391,1.391,0,0,0,40.464,73.6H52.988v55.662H2.892Zm0,0" transform="translate(-0.109 -48.553)"/><path class="a" d="M107.1,72.36v2.783h4.175a1.391,1.391,0,0,0,1.392-1.391V1.392A1.392,1.392,0,0,0,111.278,0H58.4a1.392,1.392,0,0,0-1.392,1.392V5.566h2.783V2.783h50.1V72.36Zm0,0" transform="translate(-48.659)"/><path class="a" d="M75.977,189.668h33.4v2.783h-33.4Zm0,0" transform="translate(-64.844 -161.837)"/><path class="a" d="M75.977,132.766H87.109v2.783H75.977Zm0,0" transform="translate(-64.844 -113.284)"/><path class="a" d="M75.977,246.566H98.241v2.783H75.977Zm0,0" transform="translate(-64.844 -210.386)"/><path class="a" d="M246.676,246.566h8.349v2.783h-8.349Zm0,0" transform="translate(-210.496 -210.386)"/><path class="a" d="M75.977,303.465h33.4v2.783h-33.4Zm0,0" transform="translate(-64.844 -258.936)"/><path class="a" d="M75.977,417.266h33.4v2.783h-33.4Zm0,0" transform="translate(-64.844 -356.038)"/><path class="a" d="M161.324,360.367H182.2v2.783H161.324Zm0,0" transform="translate(-137.668 -307.488)"/><path class="a" d="M75.977,360.367h9.741v2.783H75.977Zm0,0" transform="translate(-64.844 -307.488)"/><path class="a" d="M75.977,474.168h5.566v2.783H75.977Zm0,0" transform="translate(-64.844 -404.591)"/><path class="a" d="M132.875,474.168h25.048v2.783H132.875Zm0,0" transform="translate(-113.394 -404.591)"/></g></svg>