<svg xmlns="http://www.w3.org/2000/svg" width="82.38" height="82.38" viewBox="0 0 82.38 82.38"><defs><style>.a{fill:#0d59ca;}</style></defs><g transform="translate(19.56 10.35)"><path class="a" d="M182.032,65.239a3.1,3.1,0,0,0-4.39-.005L140.4,102.383l-13.439-14.6a3.1,3.1,0,0,0-4.568,4.206l15.627,16.972a3.1,3.1,0,0,0,2.218,1h.066a3.108,3.108,0,0,0,2.192-.906l39.534-39.43A3.1,3.1,0,0,0,182.032,65.239Z" transform="translate(-121.568 -64.327)"/></g><g transform="translate(0 0)"><path class="a" d="M79.275,38.085a3.1,3.1,0,0,0-3.1,3.1A34.98,34.98,0,1,1,41.19,6.21a3.1,3.1,0,1,0,0-6.21A41.19,41.19,0,1,0,82.38,41.19,3.1,3.1,0,0,0,79.275,38.085Z" transform="translate(0 0)"/></g></svg>