<svg xmlns="http://www.w3.org/2000/svg" width="64.689" height="43.733" viewBox="0 0 64.689 43.733"><defs><style>.a{fill:#0d59ca;}</style></defs><g transform="translate(0 0)"><g transform="translate(0 0)"><path class="a" d="M61.454,59.733H3.234A3.061,3.061,0,0,0,0,62.585v38.029a3.061,3.061,0,0,0,3.234,2.852h58.22a3.061,3.061,0,0,0,3.234-2.852V62.585A3.061,3.061,0,0,0,61.454,59.733Zm1.078,40.881a1.02,1.02,0,0,1-1.078.951H3.234a1.02,1.02,0,0,1-1.078-.951V62.585a1.02,1.02,0,0,1,1.078-.951h58.22a1.02,1.02,0,0,1,1.078.951v38.029Z" transform="translate(0 -59.733)"/><path class="a" d="M90.214,93.869a1.214,1.214,0,0,0-.8.219L64.087,112.512a2.461,2.461,0,0,1-2.826,0L35.937,94.088a1.233,1.233,0,0,0-1.081-.165,1,1,0,0,0-.706.728.885.885,0,0,0,.375.894L59.85,113.968a4.915,4.915,0,0,0,5.649,0L90.824,95.544a.918.918,0,0,0,.388-.646.869.869,0,0,0-.253-.694A1.159,1.159,0,0,0,90.214,93.869Z" transform="translate(-30.33 -90.062)"/><path class="a" d="M48.5,272.948a.951.951,0,0,0-.917.3L34.271,287.5a.951.951,0,1,0,1.39,1.3l13.31-14.261a.951.951,0,0,0-.473-1.592Z" transform="translate(-30.212 -249.173)"/><path class="a" d="M342.862,273.243a.951.951,0,1,0-1.39,1.3l13.31,14.261a.951.951,0,0,0,1.39-1.3Z" transform="translate(-295.541 -249.173)"/></g></g></svg>