<svg xmlns="http://www.w3.org/2000/svg" width="90.882" height="82.051" viewBox="0 0 90.882 82.051"><defs><style>.a{fill:#0d59ca;}</style></defs><path class="a" d="M81.3,0H22.531a9.214,9.214,0,0,0-9.25,9.147L12.9,60.894H1.434A1.492,1.492,0,0,0,0,62.426v7.122A12.478,12.478,0,0,0,11.774,81.966v.086H61.262v-.1c.368.015.591.1.844.1h.035A12.44,12.44,0,0,0,74.508,69.546V24.284h14.94a1.507,1.507,0,0,0,1.434-1.548V9.669A9.653,9.653,0,0,0,81.3,0ZM12.418,79.108h-.01a9.538,9.538,0,0,1-9.464-9.561V63.838H49.672v5.684a12.456,12.456,0,0,0,3.636,8.839,5.284,5.284,0,0,1,.775.747Zm59.147-9.563a9.5,9.5,0,0,1-9.426,9.563h-.03a9.562,9.562,0,0,1-9.493-9.585v-7.1a1.525,1.525,0,0,0-1.472-1.531h-35.3l.379-51.738a6.269,6.269,0,0,1,6.306-6.213H74.35a10.043,10.043,0,0,0-2.785,6.765ZM87.938,9.7V21.341H74.508V9.706a6.816,6.816,0,0,1,6.747-6.762H81.3a6.709,6.709,0,0,1,6.642,6.741Zm0,0" transform="translate(0)"/><path class="a" d="M167.57,79.945l7.588,5.188a1.449,1.449,0,0,0,1.645,0l7.565-5.186a11.431,11.431,0,0,0,4.569-8.72V60.73a1.439,1.439,0,0,0-.785-1.322L176.6,53.725a1.446,1.446,0,0,0-1.286,0L163.78,59.392A1.436,1.436,0,0,0,163,60.714V71.226A11.431,11.431,0,0,0,167.57,79.945Zm-1.629-18.312,10.026-4.947,10.026,4.961v9.58a8.481,8.481,0,0,1-3.286,6.287l-6.757,4.622-6.731-4.621a8.477,8.477,0,0,1-3.278-6.287Zm0,0" transform="translate(-133.01 -43.718)"/><path class="a" d="M204.931,124.495a1.47,1.47,0,0,0,1.042.441h0a1.474,1.474,0,0,0,1.041-.435l5.855-5.857a1.472,1.472,0,0,0-2.081-2.083l-4.809,4.808-1.922-1.941a1.473,1.473,0,1,0-2.092,2.073Zm0,0" transform="translate(-164.463 -94.765)"/><path class="a" d="M169.794,248H134.472a1.472,1.472,0,0,0,0,2.944h35.322a1.472,1.472,0,0,0,0-2.944Zm0,0" transform="translate(-108.532 -202.375)"/><path class="a" d="M169.794,285H134.472a1.472,1.472,0,1,0,0,2.944h35.322a1.472,1.472,0,1,0,0-2.944Zm0,0" transform="translate(-108.532 -232.568)"/></svg>