<svg xmlns="http://www.w3.org/2000/svg" width="84.246" height="84.201" viewBox="0 0 84.246 84.201"><defs><style>.a{fill:#0d59ca;}</style></defs><g transform="translate(0)"><path class="a" d="M79.623,0H37.505a5.616,5.616,0,0,0-5.616,5.616v6.093C3.362,16.075-9.147,50.752,10.564,72.33a1.033,1.033,0,0,1,.154.14c15.836,16.314,39.745,14.952,53.588,0a.124.124,0,0,0,.112-.1A36.32,36.32,0,0,0,73.01,39.31h6.612a5.616,5.616,0,0,0,5.616-5.616V5.616A5.616,5.616,0,0,0,79.623,0Zm-28.2,43.423c0,.955.084,1.923.1,2.906H47.052ZM71.2,49.137a33.484,33.484,0,0,1-8.087,20.511,35.87,35.87,0,0,0-10.67-4.6,73.3,73.3,0,0,0,1.909-15.906Zm-67.388,0H20.658A73.3,73.3,0,0,0,22.6,65.044a35.87,35.87,0,0,0-10.67,4.6A33.484,33.484,0,0,1,3.811,49.137ZM11.94,25.818a35.786,35.786,0,0,0,10.712,4.619A73,73,0,0,0,20.658,46.33H3.811A33.526,33.526,0,0,1,11.94,25.818ZM31.889,29.2a53.068,53.068,0,0,1-5.784-.842,29.609,29.609,0,0,1,5.784-11.33Zm-8.522-1.488a33.259,33.259,0,0,1-9.477-3.973A33.526,33.526,0,0,1,30.05,14.9,31.6,31.6,0,0,0,23.368,27.713Zm0,40.04a31.925,31.925,0,0,0,6.711,12.832,33.61,33.61,0,0,1-16.2-8.859,33.694,33.694,0,0,1,9.462-3.973Zm2.808-.632a57.7,57.7,0,0,1,22.8,0c-5.784,19.037-17.086,19.065-22.87,0Zm25.565.632A33.694,33.694,0,0,1,61.2,71.727,33.61,33.61,0,0,1,44.96,80.585a31.925,31.925,0,0,0,6.711-12.832Zm-2.036-3.341a60.369,60.369,0,0,0-24.26,0,70.673,70.673,0,0,1-1.98-15.275H38.909a1.4,1.4,0,0,0,1.4,1.4c.533,0,.632-.14,2.527-1.4h8.7a70.674,70.674,0,0,1-1.909,15.275ZM38.909,46.33H23.466a70.73,70.73,0,0,1,1.867-15.261,55.919,55.919,0,0,0,6.514.955v1.671a5.616,5.616,0,0,0,5.616,5.616,1.4,1.4,0,0,1,1.4,1.4Zm32.29,0H54.352c0-1.6-.1-3.173-.211-4.7l3.44-2.316H70.1A32.866,32.866,0,0,1,71.2,46.33ZM82.431,33.694A2.808,2.808,0,0,1,79.623,36.5H57.16c-.618,0,.6-.688-15.443,10.01v-5.8A4.212,4.212,0,0,0,37.505,36.5,2.808,2.808,0,0,1,34.7,33.694V5.616a2.808,2.808,0,0,1,2.808-2.808H79.623a2.808,2.808,0,0,1,2.808,2.808Z" transform="translate(-0.993)"/><path class="a" d="M36.722,5A7.736,7.736,0,0,0,29,12.722v9.126a1.4,1.4,0,1,0,2.808,0V16.231h9.827v5.616a1.4,1.4,0,1,0,2.808,0V12.722A7.736,7.736,0,0,0,36.722,5Zm-4.914,8.424v-.7a4.914,4.914,0,0,1,9.827,0v.7Z" transform="translate(10.32 2.02)"/><path class="a" d="M59.443,13.212H53.827V10.4a1.4,1.4,0,1,0-2.808,0v2.808H45.4a1.4,1.4,0,1,0,0,2.808h9.827a11.6,11.6,0,0,1-2.359,7.469c-.154.168-.337.295-.505.449a8.283,8.283,0,0,1-2.373-4.085,1.4,1.4,0,0,0-2.71.744,11.582,11.582,0,0,0,2.527,4.787,10.3,10.3,0,0,1-3,.463,1.4,1.4,0,0,0,0,2.808,11.877,11.877,0,0,0,5.616-1.278,11.933,11.933,0,0,0,5.616,1.278,1.4,1.4,0,1,0,0-2.808,9.828,9.828,0,0,1-3.061-.449,14.039,14.039,0,0,0,3.061-9.378h1.4a1.4,1.4,0,1,0,0-2.808Z" transform="translate(16.379 3.635)"/></g></svg>