<svg xmlns="http://www.w3.org/2000/svg" xmlns:xlink="http://www.w3.org/1999/xlink" width="1920" height="585" viewBox="0 0 1920 585"><defs><style>.a,.d{fill:#fff;}.a{stroke:#707070;}.b{clip-path:url(#a);}.c{opacity:0.047;}</style><clipPath id="a"><rect class="a" width="1920" height="585" transform="translate(0 7699)"/></clipPath></defs><g class="b" transform="translate(0 -7699)"><g class="c" transform="matrix(0.914, -0.407, 0.407, 0.914, -144.027, 7753.239)"><path class="d" d="M267.684,236.7c-26.321,55.742-65.111,104.512-113.6,144.923l-6.928,5.576,12.469-1.4c81.737-5.575,155.164-41.8,210.58-96.149l-8.315-5.575C332.8,264.572,300.933,247.85,267.684,236.7Z" transform="translate(232.439 285.853)"/><path class="d" d="M147.477,382.055c41.56-37.624,73.422-83.61,96.977-135.169-31.866-9.755-63.728-15.326-96.977-15.326Z" transform="translate(233.507 268.701)"/><path class="d" d="M205.542,347.158h160.7a335.667,335.667,0,0,0-76.2-202.057l-9.7,6.967a482.411,482.411,0,0,1-102.518,54.346C195.843,249.613,205.542,296.991,205.542,347.158Z" transform="translate(334.76 -19.687)"/><path class="d" d="M177.194,348.739A478.46,478.46,0,0,1,276.941,398.9l11.086,6.967c48.489-55.742,78.967-129.593,81.738-209.024H209.06C206.29,249.8,196.591,301.36,177.194,348.739Z" transform="translate(332.629 152.916)"/><path class="d" d="M164.1,316.686c-1.383,0-2.77,1.4-5.541,1.4h-1.387c-2.77,1.392-6.924,1.392-9.694,2.788v2.788a460.254,460.254,0,0,1,106.671,16.718c19.4-44.591,29.1-93.361,30.479-143.527H251.378c-1.383,25.086-9.694,48.775-22.163,69.676A122.653,122.653,0,0,1,164.1,316.686Z" transform="translate(233.507 152.916)"/><path class="d" d="M270.775,278.458c34.636-12.539,67.885-29.26,96.977-51.558l8.311-5.571C320.65,164.2,245.837,125.176,162.716,118.209l-15.239-1.392,8.311,6.967A446.762,446.762,0,0,1,270.775,278.458Z" transform="translate(233.507 -114.029)"/><path class="d" d="M251.378,294.627h33.249c-1.383-45.987-11.082-91.974-26.321-133.777-36.02,11.147-73.426,16.722-110.829,18.114v1.4C201.506,191.507,243.066,237.493,251.378,294.627Z" transform="translate(233.507 32.844)"/><path class="d" d="M147.477,122.6v160.25a426.079,426.079,0,0,0,102.518-16.718C207.047,174.16,147.477,122.6,147.477,122.6Z" transform="translate(233.507 -94.733)"/><path class="d" d="M417.031,594.139H411.49c-73.426,0-133-59.921-133-133.777s59.57-133.772,133-133.772h5.541V116.174c-98.36,0-357.429,39.015-357.429,355.339,0,296.81,357.429,706.495,357.429,706.495Z" transform="translate(-59.602 -116.174)"/></g></g></svg>