<svg xmlns="http://www.w3.org/2000/svg" width="229.903" height="70.007" viewBox="0 0 229.903 70.007"><defs><style>.a{fill:#fff;}</style></defs><g transform="translate(0 0)"><g transform="translate(65.12 16.574)"><g transform="translate(121.636 16.781)"><path class="a" d="M624.161,431.855v1.57h-9.608V415.173h1.631v16.682Z" transform="translate(-614.552 -413.014)"/><path class="a" d="M667.745,448.289a8.142,8.142,0,0,0,1.632-.1,4.279,4.279,0,0,0,1.179-.2v-4.809a4,4,0,0,0-.816-.294,7.259,7.259,0,0,0-1.631-.1,4.782,4.782,0,0,0-1.179.1,4.243,4.243,0,0,0-1.178.393,3.61,3.61,0,0,0-.906.785,2.2,2.2,0,0,0-.363,1.374,2.621,2.621,0,0,0,.272,1.276,3.038,3.038,0,0,0,.635.883,3.237,3.237,0,0,0,1,.49A6.49,6.49,0,0,0,667.745,448.289Zm-.091-12.757a4.457,4.457,0,0,1,2.085.393A3.82,3.82,0,0,1,671.1,437a5.1,5.1,0,0,1,.816,1.57,6.8,6.8,0,0,1,.272,1.962v8.538a3.879,3.879,0,0,1-.725.2c-.272.1-.635.1-1.088.2s-.816.1-1.36.2c-.453,0-1,.1-1.541.1a10.322,10.322,0,0,1-1.813-.2,3.545,3.545,0,0,1-1.45-.785,3.358,3.358,0,0,1-1-1.276,4.165,4.165,0,0,1-.363-1.963,3.749,3.749,0,0,1,.363-1.864A3.577,3.577,0,0,1,664.3,442.4a5.915,5.915,0,0,1,1.722-.785,7.207,7.207,0,0,1,2.085-.2h.725c.272,0,.453.1.725.1s.453.1.635.1.272.1.363.1v-.883a6.51,6.51,0,0,0-.091-1.374,2.247,2.247,0,0,0-.453-1.178,2.05,2.05,0,0,0-.906-.883,3.372,3.372,0,0,0-1.541-.294,10.181,10.181,0,0,0-2.085.2c-.453.1-.816.294-1,.294l-.181-1.472a7.181,7.181,0,0,1,1.269-.393A11.787,11.787,0,0,1,667.654,435.532Z" transform="translate(-652.607 -429.055)"/><path class="a" d="M722.946,423.834a8.812,8.812,0,0,0,1.088.294,10.186,10.186,0,0,0,1.9.1,4.029,4.029,0,0,0,3.263-1.472,6.278,6.278,0,0,0,1.269-4.122,15.858,15.858,0,0,0-.181-2.159,5.049,5.049,0,0,0-.725-1.766,3.789,3.789,0,0,0-1.269-1.177,4.775,4.775,0,0,0-3.082-.393c-.363.1-.634.2-.906.294a5.243,5.243,0,0,0-.725.393c-.181.1-.363.294-.544.393v9.617Zm0-11.187a4.649,4.649,0,0,1,1.36-.687,5.112,5.112,0,0,1,2.176-.393,6.457,6.457,0,0,1,2.447.491,6.866,6.866,0,0,1,1.813,1.472,7.223,7.223,0,0,1,1.087,2.257,9.768,9.768,0,0,1,.363,2.846,9.939,9.939,0,0,1-.453,2.944,5.921,5.921,0,0,1-1.269,2.257,5.391,5.391,0,0,1-1.9,1.374,6.941,6.941,0,0,1-2.538.491,21.3,21.3,0,0,1-2.81-.2,16.374,16.374,0,0,1-1.813-.491V405.287l1.541-.294Z" transform="translate(-698.744 -404.993)"/><path class="a" d="M781.63,448.289a5.235,5.235,0,0,0,2.266-.491,1.663,1.663,0,0,0,.906-1.668,3.1,3.1,0,0,0-.182-.981,1.3,1.3,0,0,0-.544-.687,4.825,4.825,0,0,0-1-.589c-.362-.2-.906-.393-1.45-.687a8.844,8.844,0,0,1-1.36-.687,3.259,3.259,0,0,1-1.088-.785,5.137,5.137,0,0,1-.816-1.079,3.508,3.508,0,0,1-.272-1.472,3.266,3.266,0,0,1,1.178-2.649,4.481,4.481,0,0,1,3.172-.982,11.789,11.789,0,0,1,2.085.2c.544.2,1,.294,1.178.393l-.363,1.57a3.743,3.743,0,0,0-1-.392,5.441,5.441,0,0,0-1.994-.295,3.148,3.148,0,0,0-1,.1,2.163,2.163,0,0,0-.816.393,1.611,1.611,0,0,0-.544.589,1.727,1.727,0,0,0-.181.981,3.115,3.115,0,0,0,.181.981,1.964,1.964,0,0,0,.544.687,7.886,7.886,0,0,0,.906.589c.363.2.816.393,1.269.589a6.037,6.037,0,0,1,1.36.687c.362.294.816.491,1.178.785a3.034,3.034,0,0,1,.816,1.079,4.194,4.194,0,0,1,.272,1.668,3.149,3.149,0,0,1-1.269,2.748,5.968,5.968,0,0,1-3.535.981,8.706,8.706,0,0,1-2.538-.294,10.63,10.63,0,0,1-1.178-.49l.453-1.57c.091,0,.181.1.272.2a4.231,4.231,0,0,0,.634.294c.272.1.635.2,1,.294A7.14,7.14,0,0,1,781.63,448.289Z" transform="translate(-743.198 -429.055)"/></g><path class="a" d="M49.43,347.109c-1.813,0-3.172,0-4.17.1V360.16h3.173a24.678,24.678,0,0,0,3.988-.294,8.47,8.47,0,0,0,2.991-1.079,5.022,5.022,0,0,0,1.9-2.061,7.044,7.044,0,0,0,.635-3.238,6.33,6.33,0,0,0-.725-3.14,6.032,6.032,0,0,0-1.813-1.963,7.605,7.605,0,0,0-2.719-.981A18.352,18.352,0,0,0,49.43,347.109Zm-.362-4.122c4.26,0,7.523.883,9.88,2.65,2.266,1.766,3.445,4.416,3.445,7.85a11.736,11.736,0,0,1-.906,4.907,7.643,7.643,0,0,1-2.719,3.238,11.324,11.324,0,0,1-4.351,1.865,25.726,25.726,0,0,1-5.711.589H45.351v12.267H41V343.87a38.166,38.166,0,0,1,3.988-.687C46.439,343.085,47.8,342.987,49.067,342.987Z" transform="translate(-41 -339.356)"/><path class="a" d="M165.348,380.931a5.158,5.158,0,0,1,1.178.1,6.483,6.483,0,0,1,1.36.2,5.8,5.8,0,0,0,1.178.2,4.308,4.308,0,0,0,.816.2l-.725,3.827c-.362-.1-.816-.294-1.631-.491a11.655,11.655,0,0,0-2.9-.294,8.978,8.978,0,0,0-2.266.294,14.661,14.661,0,0,0-1.45.393v20.8h-4.079V382.5a21.261,21.261,0,0,1,3.626-1.079A25.208,25.208,0,0,1,165.348,380.931Z" transform="translate(-132.264 -369.253)"/><path class="a" d="M246.179,407.287a36.152,36.152,0,0,1-3.716.785,29.3,29.3,0,0,1-5.348.392,11.777,11.777,0,0,1-4.441-.785,7.986,7.986,0,0,1-2.9-2.355,9.187,9.187,0,0,1-1.541-3.631,18.425,18.425,0,0,1-.453-4.612V383.245h4.079V396.2q0,4.563,1.36,6.477a5.059,5.059,0,0,0,4.441,1.963h1.36c.453,0,.906-.1,1.36-.1s.816-.1,1.088-.1a1.324,1.324,0,0,0,.725-.2v-20.9h4.079v23.944Z" transform="translate(-188.167 -371.077)"/><path class="a" d="M349.393,343.335a6.747,6.747,0,0,0-2.176-1.276,7.893,7.893,0,0,0-3.082-.589,5.7,5.7,0,0,0-2.991.687,6.58,6.58,0,0,0-2.085,1.864,8.746,8.746,0,0,0-1.178,2.846,14.506,14.506,0,0,0-.362,3.533c0,2.846.634,5.1,1.994,6.673a6.592,6.592,0,0,0,5.257,2.355,21.305,21.305,0,0,0,2.81-.2,5.817,5.817,0,0,0,1.722-.393v-15.5Zm0-16.683,4.079-.785v36.211a35.672,35.672,0,0,1-3.626.883,26.266,26.266,0,0,1-5.076.393,11.981,11.981,0,0,1-4.714-.883,10.853,10.853,0,0,1-3.626-2.551,11.285,11.285,0,0,1-2.266-4.023,16.733,16.733,0,0,1-.816-5.4,15.962,15.962,0,0,1,.725-5.2,12.17,12.17,0,0,1,1.994-4.121,8.716,8.716,0,0,1,3.263-2.65,10.247,10.247,0,0,1,4.351-.981,9.976,9.976,0,0,1,3.535.589,19.434,19.434,0,0,1,2.266,1.079V326.652Z" transform="translate(-271.349 -325.867)"/><path class="a" d="M459.913,363.255c-2.538-.1-4.26-.687-5.348-1.766s-1.541-2.846-1.541-5.2V326.652l4.079-.785V355.6a8.644,8.644,0,0,0,.181,1.766,2.309,2.309,0,0,0,.544,1.178,3.089,3.089,0,0,0,1.088.687c.453.1,1,.294,1.632.392Z" transform="translate(-365.644 -325.867)"/><path class="a" d="M511.018,391.431a8.343,8.343,0,0,0-1.36-4.907,4.722,4.722,0,0,0-3.9-1.963,5.057,5.057,0,0,0-2.447.589,4.863,4.863,0,0,0-1.813,1.57,6.122,6.122,0,0,0-1.178,2.159,11.5,11.5,0,0,0-.544,2.551Zm-15.681,2.453a15.47,15.47,0,0,1,.907-5.692,10.632,10.632,0,0,1,2.357-4.023,10.445,10.445,0,0,1,3.354-2.453,10.654,10.654,0,0,1,3.9-.785,8.518,8.518,0,0,1,7.07,3.14c1.632,2.061,2.447,5.2,2.447,9.519v1.57H499.6a9.927,9.927,0,0,0,2.085,5.888c1.178,1.374,3.082,1.963,5.62,1.963a12.952,12.952,0,0,0,3.626-.393,9.42,9.42,0,0,0,2.176-.785l.544,3.729a10.756,10.756,0,0,1-2.629.883,18.348,18.348,0,0,1-4.26.491,11.982,11.982,0,0,1-5.167-.981,10.268,10.268,0,0,1-3.535-2.65,11.843,11.843,0,0,1-2.085-4.023A26.576,26.576,0,0,1,495.337,393.884Z" transform="translate(-398.983 -369.253)"/></g><g transform="translate(0 0)"><g transform="translate(0 0)"><path class="a" d="M353.312,224.526a28.033,28.033,0,0,1-7.49,9.555l-.457.368.822-.092a21.977,21.977,0,0,0,13.883-6.339l-.548-.367A26.294,26.294,0,0,0,353.312,224.526Z" transform="translate(-320.338 -190.074)"/><path class="a" d="M345.791,227.6a27.008,27.008,0,0,0,6.394-8.912,21.622,21.622,0,0,0-6.394-1.011Z" transform="translate(-320.673 -184.691)"/><path class="a" d="M388.071,115.78h10.6a22.132,22.132,0,0,0-5.024-13.322l-.639.459a31.817,31.817,0,0,1-6.759,3.583A24.006,24.006,0,0,1,388.071,115.78Z" transform="translate(-352.448 -94.189)"/><path class="a" d="M385.392,181.43a31.535,31.535,0,0,1,6.576,3.308l.731.459a22.244,22.244,0,0,0,5.389-13.781h-10.6A30.6,30.6,0,0,1,385.392,181.43Z" transform="translate(-351.779 -148.356)"/><path class="a" d="M346.887,179.317c-.091,0-.183.092-.365.092h-.091c-.183.092-.457.092-.639.184v.184a30.327,30.327,0,0,1,7.033,1.1,25.431,25.431,0,0,0,2.009-9.463h-2.192a10.079,10.079,0,0,1-1.461,4.594A8.088,8.088,0,0,1,346.887,179.317Z" transform="translate(-320.673 -148.356)"/><path class="a" d="M353.92,75.424a23.774,23.774,0,0,0,6.394-3.4l.548-.367a22.269,22.269,0,0,0-14.066-6.8l-1-.092.548.459A29.451,29.451,0,0,1,353.92,75.424Z" transform="translate(-320.673 -64.583)"/><path class="a" d="M352.641,132.265h2.192a28.547,28.547,0,0,0-1.735-8.82,28.254,28.254,0,0,1-7.307,1.194v.092A8.894,8.894,0,0,1,352.641,132.265Z" transform="translate(-320.673 -110.675)"/><path class="a" d="M345.791,72.476V83.041a28.093,28.093,0,0,0,6.759-1.1A30.62,30.62,0,0,0,345.791,72.476Z" transform="translate(-320.673 -70.639)"/><path class="a" d="M252.256,95.422h-.365a8.82,8.82,0,0,1,0-17.639h.365V63.91c-6.485,0-23.566,2.573-23.566,23.428,0,19.569,23.566,46.58,23.566,46.58Z" transform="translate(-228.69 -63.91)"/></g></g></g></svg>