<svg xmlns="http://www.w3.org/2000/svg" width="220.422" height="69.087" viewBox="0 0 220.422 69.087"><defs><style>.a{fill:gray;}.b{fill:#116ad8;}.c{fill:#1867d2;}.d{fill:#b2b2b2;}</style></defs><g transform="translate(-224 89.487)"><g transform="translate(281.806 -73.13)"><g transform="translate(120.037 16.56)"><path class="a" d="M624.034,431.636v1.549h-9.482V415.173h1.61v16.463Z" transform="translate(-614.553 -413.042)"/><path class="a" d="M667.68,448.122a8.037,8.037,0,0,0,1.61-.1,4.222,4.222,0,0,0,1.163-.194v-4.745a3.943,3.943,0,0,0-.805-.291,7.167,7.167,0,0,0-1.61-.1,4.722,4.722,0,0,0-1.163.1,4.186,4.186,0,0,0-1.163.387,3.561,3.561,0,0,0-.894.775,2.172,2.172,0,0,0-.358,1.356,2.587,2.587,0,0,0,.268,1.259,3,3,0,0,0,.626.872,3.194,3.194,0,0,0,.984.484A6.4,6.4,0,0,0,667.68,448.122Zm-.089-12.59a4.4,4.4,0,0,1,2.057.387,3.771,3.771,0,0,1,1.342,1.065,5.034,5.034,0,0,1,.805,1.55,6.715,6.715,0,0,1,.268,1.937V448.9a3.838,3.838,0,0,1-.715.194c-.268.1-.626.1-1.073.194s-.805.1-1.342.194c-.447,0-.984.1-1.521.1a10.188,10.188,0,0,1-1.789-.194,3.5,3.5,0,0,1-1.431-.775,3.315,3.315,0,0,1-.984-1.259,4.11,4.11,0,0,1-.358-1.937,3.7,3.7,0,0,1,.358-1.84,3.531,3.531,0,0,1,1.073-1.259,5.837,5.837,0,0,1,1.7-.775,7.112,7.112,0,0,1,2.058-.194h.716c.268,0,.447.1.715.1s.447.1.626.1.268.1.358.1v-.871a6.43,6.43,0,0,0-.09-1.356,2.217,2.217,0,0,0-.447-1.162,2.022,2.022,0,0,0-.894-.872,3.327,3.327,0,0,0-1.521-.291,10.044,10.044,0,0,0-2.057.194c-.447.1-.805.29-.984.29l-.179-1.453a7.087,7.087,0,0,1,1.252-.387A11.633,11.633,0,0,1,667.591,435.532Z" transform="translate(-652.742 -429.141)"/><path class="a" d="M722.926,423.587a8.7,8.7,0,0,0,1.073.29,10.049,10.049,0,0,0,1.879.1,3.976,3.976,0,0,0,3.22-1.453,6.2,6.2,0,0,0,1.252-4.068,15.634,15.634,0,0,0-.179-2.131,4.98,4.98,0,0,0-.715-1.743,3.741,3.741,0,0,0-1.253-1.162,4.713,4.713,0,0,0-3.041-.387c-.358.1-.626.194-.895.291a5.159,5.159,0,0,0-.716.387c-.179.1-.358.29-.536.387v9.49Zm0-11.04a4.586,4.586,0,0,1,1.342-.678,5.046,5.046,0,0,1,2.147-.387,6.373,6.373,0,0,1,2.415.484,6.778,6.778,0,0,1,1.789,1.453,7.129,7.129,0,0,1,1.073,2.227,9.641,9.641,0,0,1,.358,2.808,9.811,9.811,0,0,1-.447,2.905,5.844,5.844,0,0,1-1.252,2.227,5.32,5.32,0,0,1-1.878,1.356,6.851,6.851,0,0,1-2.5.484,21.012,21.012,0,0,1-2.773-.194,16.146,16.146,0,0,1-1.789-.484V405.284l1.521-.29Z" transform="translate(-699.042 -404.993)"/><path class="a" d="M781.58,448.122a5.165,5.165,0,0,0,2.236-.484,1.641,1.641,0,0,0,.894-1.646,3.065,3.065,0,0,0-.179-.968,1.278,1.278,0,0,0-.536-.678,4.762,4.762,0,0,0-.984-.581c-.358-.194-.895-.387-1.431-.678a8.723,8.723,0,0,1-1.342-.678,3.216,3.216,0,0,1-1.073-.775,5.068,5.068,0,0,1-.8-1.065,3.46,3.46,0,0,1-.268-1.453,3.223,3.223,0,0,1,1.163-2.615,4.422,4.422,0,0,1,3.131-.969,11.636,11.636,0,0,1,2.058.194c.536.194.984.29,1.163.387l-.358,1.549a3.7,3.7,0,0,0-.984-.387,5.372,5.372,0,0,0-1.968-.291,3.108,3.108,0,0,0-.984.1,2.135,2.135,0,0,0-.805.387,1.593,1.593,0,0,0-.537.581,1.7,1.7,0,0,0-.179.968,3.08,3.08,0,0,0,.179.968,1.943,1.943,0,0,0,.537.678,7.775,7.775,0,0,0,.895.581c.358.194.8.387,1.252.581A5.958,5.958,0,0,1,784,442.5c.358.29.8.484,1.163.775a2.994,2.994,0,0,1,.805,1.065,4.139,4.139,0,0,1,.268,1.646,3.107,3.107,0,0,1-1.253,2.711,5.889,5.889,0,0,1-3.488.969,8.593,8.593,0,0,1-2.5-.291,10.5,10.5,0,0,1-1.163-.484l.447-1.55c.09,0,.179.1.269.194a4.167,4.167,0,0,0,.626.291c.269.1.626.194.984.291A7.049,7.049,0,0,1,781.58,448.122Z" transform="translate(-743.653 -429.141)"/></g><path class="b" d="M49.319,347.054c-1.789,0-3.131,0-4.115.1v12.783h3.131a24.351,24.351,0,0,0,3.936-.291,8.359,8.359,0,0,0,2.952-1.065,4.957,4.957,0,0,0,1.879-2.034,6.951,6.951,0,0,0,.626-3.2,6.246,6.246,0,0,0-.716-3.1,5.953,5.953,0,0,0-1.789-1.937,7.506,7.506,0,0,0-2.683-.968A18.109,18.109,0,0,0,49.319,347.054Zm-.358-4.067c4.2,0,7.424.872,9.75,2.615a9.291,9.291,0,0,1,3.4,7.747,11.582,11.582,0,0,1-.894,4.842,7.543,7.543,0,0,1-2.684,3.2,11.175,11.175,0,0,1-4.294,1.84,25.386,25.386,0,0,1-5.635.581h-3.31v12.105H41V343.859a37.67,37.67,0,0,1,3.936-.678C46.367,343.084,47.709,342.987,48.961,342.987Z" transform="translate(-41 -339.404)"/><path class="b" d="M165.237,380.931a5.091,5.091,0,0,1,1.163.1,6.4,6.4,0,0,1,1.342.194,5.719,5.719,0,0,0,1.163.194,4.253,4.253,0,0,0,.8.193l-.716,3.777c-.358-.1-.805-.29-1.61-.484a11.5,11.5,0,0,0-2.862-.291,8.858,8.858,0,0,0-2.236.291,14.467,14.467,0,0,0-1.431.387v20.53h-4.025V382.481a20.981,20.981,0,0,1,3.578-1.065A24.877,24.877,0,0,1,165.237,380.931Z" transform="translate(-132.587 -369.407)"/><path class="b" d="M245.937,406.971a35.655,35.655,0,0,1-3.668.775,28.9,28.9,0,0,1-5.278.387,11.622,11.622,0,0,1-4.383-.775,7.879,7.879,0,0,1-2.862-2.324,9.066,9.066,0,0,1-1.521-3.583,18.181,18.181,0,0,1-.447-4.552V383.245H231.8v12.783q0,4.5,1.342,6.392a4.993,4.993,0,0,0,4.383,1.937h1.342c.447,0,.894-.1,1.342-.1s.8-.1,1.073-.1a1.308,1.308,0,0,0,.716-.194V383.342h4.025v23.629Z" transform="translate(-188.688 -371.237)"/><path class="b" d="M349.182,343.1a6.656,6.656,0,0,0-2.147-1.259,7.788,7.788,0,0,0-3.041-.581,5.623,5.623,0,0,0-2.952.678,6.5,6.5,0,0,0-2.057,1.84,8.628,8.628,0,0,0-1.163,2.808,14.315,14.315,0,0,0-.358,3.486c0,2.808.626,5.036,1.968,6.585a6.505,6.505,0,0,0,5.188,2.324,21.011,21.011,0,0,0,2.773-.194,5.741,5.741,0,0,0,1.7-.387V343.1Zm0-16.463,4.025-.775V361.6a35.211,35.211,0,0,1-3.578.872,25.919,25.919,0,0,1-5.009.387,11.823,11.823,0,0,1-4.652-.872,10.712,10.712,0,0,1-3.578-2.518,11.138,11.138,0,0,1-2.236-3.97,16.512,16.512,0,0,1-.805-5.326,15.753,15.753,0,0,1,.716-5.133,12.01,12.01,0,0,1,1.968-4.067,8.6,8.6,0,0,1,3.22-2.615,10.111,10.111,0,0,1,4.294-.968,9.845,9.845,0,0,1,3.489.581,19.166,19.166,0,0,1,2.236,1.065v-12.4Z" transform="translate(-272.164 -325.867)"/><path class="b" d="M459.822,362.764c-2.5-.1-4.2-.678-5.278-1.743s-1.521-2.808-1.521-5.133V326.642l4.025-.775V355.21a8.538,8.538,0,0,0,.179,1.743,2.279,2.279,0,0,0,.537,1.162,3.049,3.049,0,0,0,1.073.678c.447.1.984.29,1.61.387Z" transform="translate(-366.793 -325.867)"/><path class="b" d="M510.812,391.293a8.233,8.233,0,0,0-1.342-4.842,4.66,4.66,0,0,0-3.846-1.937,4.99,4.99,0,0,0-2.415.581,4.8,4.8,0,0,0-1.789,1.55,6.042,6.042,0,0,0-1.163,2.131,11.347,11.347,0,0,0-.537,2.518Zm-15.475,2.421a15.268,15.268,0,0,1,.895-5.617,10.493,10.493,0,0,1,2.326-3.971,10.307,10.307,0,0,1,3.31-2.421,10.514,10.514,0,0,1,3.846-.775,8.406,8.406,0,0,1,6.977,3.1c1.61,2.034,2.415,5.133,2.415,9.394v1.55H499.542a9.8,9.8,0,0,0,2.057,5.811c1.163,1.356,3.041,1.937,5.546,1.937a12.781,12.781,0,0,0,3.578-.387,9.3,9.3,0,0,0,2.147-.775l.536,3.68a10.619,10.619,0,0,1-2.594.871,18.109,18.109,0,0,1-4.2.484,11.823,11.823,0,0,1-5.1-.968,10.134,10.134,0,0,1-3.489-2.615,11.688,11.688,0,0,1-2.058-3.97A26.236,26.236,0,0,1,495.337,393.714Z" transform="translate(-400.25 -369.407)"/></g><path class="c" d="M353.207,224.526a27.664,27.664,0,0,1-7.391,9.429l-.451.363.811-.091a21.688,21.688,0,0,0,13.7-6.256l-.541-.363A25.949,25.949,0,0,0,353.207,224.526Z" transform="translate(-96.667 -280.013)"/><path class="c" d="M345.791,227.465a26.654,26.654,0,0,0,6.31-8.794,21.336,21.336,0,0,0-6.31-1Z" transform="translate(-97.003 -274.611)"/><path class="c" d="M388.047,115.6H398.5a21.841,21.841,0,0,0-4.958-13.146l-.631.453a31.4,31.4,0,0,1-6.67,3.536A23.69,23.69,0,0,1,388.047,115.6Z" transform="translate(-128.893 -183.785)"/><path class="c" d="M385.392,181.3a31.121,31.121,0,0,1,6.49,3.264l.721.453a21.952,21.952,0,0,0,5.318-13.6H387.465A30.2,30.2,0,0,1,385.392,181.3Z" transform="translate(-128.221 -238.146)"/><path class="c" d="M346.873,179.213c-.09,0-.18.091-.361.091h-.09c-.18.091-.451.091-.631.181v.181a29.928,29.928,0,0,1,6.941,1.088,25.1,25.1,0,0,0,1.983-9.339h-2.163a9.947,9.947,0,0,1-1.442,4.533A7.983,7.983,0,0,1,346.873,179.213Z" transform="translate(-97.003 -238.146)"/><path class="c" d="M353.813,75.284a23.461,23.461,0,0,0,6.31-3.355l.541-.363a21.976,21.976,0,0,0-13.881-6.709l-.992-.091.541.453A29.064,29.064,0,0,1,353.813,75.284Z" transform="translate(-97.003 -154.072)"/><path class="c" d="M352.551,132.149h2.163a28.172,28.172,0,0,0-1.712-8.7,27.883,27.883,0,0,1-7.211,1.179v.091A8.776,8.776,0,0,1,352.551,132.149Z" transform="translate(-97.003 -200.329)"/><path class="c" d="M345.791,72.476V82.9a27.723,27.723,0,0,0,6.67-1.088A30.216,30.216,0,0,0,345.791,72.476Z" transform="translate(-97.003 -160.149)"/><path class="d" d="M251.946,95.008h-.361a8.7,8.7,0,0,1,0-17.408h.361V63.91c-6.4,0-23.256,2.539-23.256,23.12,0,19.312,23.256,45.967,23.256,45.967Z" transform="translate(-4.69 -153.397)"/></g></svg>