<svg xmlns="http://www.w3.org/2000/svg" width="206.393" height="74.171" viewBox="0 0 206.393 74.171"><defs><style>.a{fill:#fff;}</style></defs><g transform="translate(0)"><path class="a" d="M155.576,236.7a29.7,29.7,0,0,1-7.935,10.123l-.484.389.871-.1a23.286,23.286,0,0,0,14.709-6.716l-.581-.389A27.845,27.845,0,0,0,155.576,236.7Z" transform="translate(-120.642 -200.202)"/><path class="a" d="M147.477,242.073a28.619,28.619,0,0,0,6.774-9.442,22.912,22.912,0,0,0-6.774-1.071Z" transform="translate(-120.865 -196.617)"/><path class="a" d="M179.768,159.215h11.225a23.447,23.447,0,0,0-5.322-14.114l-.677.487a33.7,33.7,0,0,1-7.161,3.8A25.435,25.435,0,0,1,179.768,159.215Z" transform="translate(-142.028 -136.341)"/><path class="a" d="M177.194,207.458a33.421,33.421,0,0,1,6.967,3.5l.774.487a23.568,23.568,0,0,0,5.71-14.6H179.42A32.425,32.425,0,0,1,177.194,207.458Z" transform="translate(-141.582 -172.417)"/><path class="a" d="M148.638,205.219c-.1,0-.193.1-.387.1h-.1c-.194.1-.484.1-.677.195v.195a32.149,32.149,0,0,1,7.451,1.168,26.937,26.937,0,0,0,2.129-10.026h-2.323a10.674,10.674,0,0,1-1.548,4.867A8.567,8.567,0,0,1,148.638,205.219Z" transform="translate(-120.865 -172.417)"/><path class="a" d="M156.09,128.108a25.18,25.18,0,0,0,6.774-3.6l.581-.389a23.594,23.594,0,0,0-14.9-7.2l-1.064-.1.581.487A31.207,31.207,0,0,1,156.09,128.108Z" transform="translate(-120.865 -116.622)"/><path class="a" d="M154.735,170.195h2.323a30.237,30.237,0,0,0-1.839-9.345,29.94,29.94,0,0,1-7.742,1.265v.1A9.422,9.422,0,0,1,154.735,170.195Z" transform="translate(-120.865 -147.32)"/><path class="a" d="M147.477,122.6V133.8a29.762,29.762,0,0,0,7.161-1.168A32.438,32.438,0,0,0,147.477,122.6Z" transform="translate(-120.865 -120.655)"/><path class="a" d="M84.569,149.561h-.387a9.345,9.345,0,0,1,0-18.689h.387v-14.7c-6.871,0-24.967,2.725-24.967,24.821,0,20.733,24.967,49.35,24.967,49.35Z" transform="translate(-59.602 -116.174)"/></g><g transform="translate(65.306 16.397)"><path class="a" d="M308.833,181.044q7.761,0,11.934,2.95t4.173,8.8a11.958,11.958,0,0,1-1.143,5.449,9.374,9.374,0,0,1-3.3,3.669,15.056,15.056,0,0,1-5.236,2.046,34.544,34.544,0,0,1-6.964.639h-4.093v13.662h-5.157V181.948a29.136,29.136,0,0,1,4.864-.717Q306.6,181.044,308.833,181.044Zm.425,4.519q-3.3,0-5.05.159v14.46h3.88a30,30,0,0,0,4.785-.345,10.8,10.8,0,0,0,3.588-1.17,5.769,5.769,0,0,0,2.259-2.259,7.5,7.5,0,0,0,.8-3.668,6.771,6.771,0,0,0-.824-3.508,6.207,6.207,0,0,0-2.233-2.206,9.653,9.653,0,0,0-3.27-1.143A23.277,23.277,0,0,0,309.258,185.563Z" transform="translate(-299.051 -177.004)"/><path class="a" d="M422.592,215.064q.638,0,1.462.08t1.622.213q.8.134,1.462.266a8.978,8.978,0,0,1,.983.24l-.851,4.305a16.792,16.792,0,0,0-1.94-.5,17.054,17.054,0,0,0-3.482-.292,12.98,12.98,0,0,0-2.737.292q-1.355.293-1.781.4v23.231h-4.944V216.818a33.583,33.583,0,0,1,4.36-1.2A28.019,28.019,0,0,1,422.592,215.064Z" transform="translate(-382.456 -202.04)"/><path class="a" d="M503.358,244.124q-1.7.426-4.492.9a38.661,38.661,0,0,1-6.459.478,13.7,13.7,0,0,1-5.369-.93,8.645,8.645,0,0,1-3.508-2.632,10.667,10.667,0,0,1-1.914-4.014,20.9,20.9,0,0,1-.585-5.129V217.277h4.944v14.46q0,5.052,1.6,7.23t5.369,2.18q.8,0,1.648-.053t1.595-.133q.743-.08,1.356-.159a3.982,3.982,0,0,0,.877-.186V217.277h4.944Z" transform="translate(-432.974 -203.668)"/><path class="a" d="M603.5,166.595l4.944-.851V206.2q-1.7.478-4.359.956a34.784,34.784,0,0,1-6.114.479,15.509,15.509,0,0,1-5.741-1.01,12.284,12.284,0,0,1-4.359-2.871,12.661,12.661,0,0,1-2.791-4.545,17.434,17.434,0,0,1-.983-6.034,19.661,19.661,0,0,1,.824-5.848,13.113,13.113,0,0,1,2.419-4.572,11,11,0,0,1,3.908-2.976,12.52,12.52,0,0,1,5.289-1.064,12.846,12.846,0,0,1,4.226.638,13.4,13.4,0,0,1,2.738,1.223Zm0,18.606a10.2,10.2,0,0,0-2.6-1.436,9.8,9.8,0,0,0-3.721-.691,7.962,7.962,0,0,0-3.642.771,6.69,6.69,0,0,0-2.472,2.127,8.98,8.98,0,0,0-1.382,3.216,17.813,17.813,0,0,0-.426,3.987q0,4.839,2.392,7.47a8.2,8.2,0,0,0,6.38,2.631,25.357,25.357,0,0,0,3.376-.186,15.926,15.926,0,0,0,2.1-.4Z" transform="translate(-508.825 -165.744)"/><path class="a" d="M708.651,207.529q-4.573-.107-6.486-1.967t-1.914-5.794V166.595l4.944-.851V198.97a7.968,7.968,0,0,0,.213,2.02,2.768,2.768,0,0,0,.691,1.276,2.973,2.973,0,0,0,1.276.717,13.132,13.132,0,0,0,1.967.4Z" transform="translate(-594.305 -165.744)"/><path class="a" d="M741.922,229.229a17.633,17.633,0,0,1,1.063-6.406,13.384,13.384,0,0,1,2.817-4.545,11.433,11.433,0,0,1,4.04-2.711,12.616,12.616,0,0,1,4.678-.9q5.582,0,8.559,3.482t2.977,10.605v.824a7.627,7.627,0,0,1-.053.93H747.078a10.115,10.115,0,0,0,2.5,6.539q2.18,2.234,6.8,2.233a18.132,18.132,0,0,0,4.385-.452,15.71,15.71,0,0,0,2.685-.877l.691,4.147a14.7,14.7,0,0,1-3.163,1.01,22.512,22.512,0,0,1-5.13.531,16.293,16.293,0,0,1-6.247-1.089,11.647,11.647,0,0,1-4.333-3A12.237,12.237,0,0,1,742.746,235,19.2,19.2,0,0,1,741.922,229.229Zm18.978-2.711a8.3,8.3,0,0,0-1.674-5.5,5.766,5.766,0,0,0-4.758-2.153,6.528,6.528,0,0,0-3,.664,7.1,7.1,0,0,0-2.206,1.728,7.966,7.966,0,0,0-1.409,2.445,12.074,12.074,0,0,0-.664,2.818Z" transform="translate(-624.971 -201.745)"/></g></svg>