<svg xmlns="http://www.w3.org/2000/svg" width="220.098" height="79.096" viewBox="0 0 220.098 79.096"><defs><style>.a{fill:#116ad8;}.b{fill:#b2b2b2;}</style></defs><g transform="translate(0)"><path class="a" d="M156.135,236.7a31.668,31.668,0,0,1-8.462,10.8l-.516.415.929-.1a24.832,24.832,0,0,0,15.686-7.162l-.619-.415A29.7,29.7,0,0,0,156.135,236.7Z" transform="translate(-118.881 -197.778)"/><path class="a" d="M147.477,242.771A30.519,30.519,0,0,0,154.7,232.7a24.434,24.434,0,0,0-7.224-1.142Z" transform="translate(-119.098 -194.297)"/><path class="a" d="M179.9,160.152h11.971a25,25,0,0,0-5.676-15.051l-.722.519a35.935,35.935,0,0,1-7.637,4.048A27.124,27.124,0,0,1,179.9,160.152Z" transform="translate(-139.65 -135.759)"/><path class="a" d="M177.194,208.162a35.641,35.641,0,0,1,7.43,3.737l.826.519a25.133,25.133,0,0,0,6.089-15.57H179.568A34.578,34.578,0,0,1,177.194,208.162Z" transform="translate(-139.217 -170.794)"/><path class="a" d="M148.715,205.775c-.1,0-.206.1-.413.1h-.1c-.206.1-.516.1-.722.208v.208a34.282,34.282,0,0,1,7.946,1.245,28.726,28.726,0,0,0,2.27-10.691h-2.477a11.383,11.383,0,0,1-1.651,5.19A9.136,9.136,0,0,1,148.715,205.775Z" transform="translate(-119.098 -170.794)"/><path class="a" d="M156.661,128.858a26.851,26.851,0,0,0,7.224-3.841l.619-.415a25.161,25.161,0,0,0-15.892-7.681l-1.135-.1.619.519A33.28,33.28,0,0,1,156.661,128.858Z" transform="translate(-119.098 -116.609)"/><path class="a" d="M155.217,170.815h2.477a32.246,32.246,0,0,0-1.961-9.965,31.927,31.927,0,0,1-8.256,1.349v.1A10.048,10.048,0,0,1,155.217,170.815Z" transform="translate(-119.098 -146.422)"/><path class="a" d="M147.477,122.6v11.937a31.739,31.739,0,0,0,7.637-1.245A34.591,34.591,0,0,0,147.477,122.6Z" transform="translate(-119.098 -120.526)"/><path class="b" d="M86.227,151.778h-.413a9.965,9.965,0,0,1,0-19.93h.413V116.174c-7.327,0-26.625,2.906-26.625,26.469,0,22.109,26.625,52.627,26.625,52.627Z" transform="translate(-59.602 -116.174)"/></g><g transform="translate(69.643 17.486)"><path class="a" d="M309.482,181.044q8.276,0,12.727,3.146t4.45,9.383a12.752,12.752,0,0,1-1.219,5.81,10,10,0,0,1-3.515,3.912,16.055,16.055,0,0,1-5.584,2.182,36.837,36.837,0,0,1-7.426.681H304.55v14.569h-5.5v-38.72a31.073,31.073,0,0,1,5.187-.765Q307.1,181.044,309.482,181.044Zm.453,4.819q-3.516,0-5.385.17v15.42h4.138a31.991,31.991,0,0,0,5.1-.368,11.518,11.518,0,0,0,3.826-1.247,6.153,6.153,0,0,0,2.409-2.409,8,8,0,0,0,.85-3.912,7.22,7.22,0,0,0-.879-3.741,6.619,6.619,0,0,0-2.381-2.353,10.294,10.294,0,0,0-3.487-1.219A24.828,24.828,0,0,0,309.936,185.863Z" transform="translate(-299.051 -176.735)"/><path class="a" d="M423.27,215.064q.681,0,1.559.085t1.729.227q.85.143,1.559.284a9.568,9.568,0,0,1,1.049.256l-.907,4.591a17.911,17.911,0,0,0-2.069-.538,18.188,18.188,0,0,0-3.714-.311,13.842,13.842,0,0,0-2.919.311q-1.446.313-1.9.426v24.774h-5.273V216.935a35.81,35.81,0,0,1,4.649-1.275A29.878,29.878,0,0,1,423.27,215.064Z" transform="translate(-380.469 -201.175)"/><path class="a" d="M504.84,245.907q-1.815.454-4.79.964a41.228,41.228,0,0,1-6.888.509,14.613,14.613,0,0,1-5.726-.992,9.22,9.22,0,0,1-3.742-2.807,11.374,11.374,0,0,1-2.041-4.28,22.285,22.285,0,0,1-.624-5.47V217.277H486.3V232.7q0,5.387,1.7,7.71t5.726,2.325q.85,0,1.757-.057t1.7-.142q.793-.085,1.445-.17a4.244,4.244,0,0,0,.935-.2V217.277h5.272Z" transform="translate(-429.783 -202.765)"/><path class="a" d="M604.791,166.651l5.272-.907v43.142q-1.815.509-4.649,1.02a37.1,37.1,0,0,1-6.52.51,16.539,16.539,0,0,1-6.122-1.077,13.1,13.1,0,0,1-4.649-3.062,13.5,13.5,0,0,1-2.977-4.847A18.59,18.59,0,0,1,584.1,195a20.967,20.967,0,0,1,.879-6.236,13.985,13.985,0,0,1,2.579-4.876,11.724,11.724,0,0,1,4.167-3.174,13.351,13.351,0,0,1,5.641-1.135,13.7,13.7,0,0,1,4.507.68,14.287,14.287,0,0,1,2.92,1.3Zm0,19.842a10.875,10.875,0,0,0-2.778-1.531,10.454,10.454,0,0,0-3.968-.737,8.491,8.491,0,0,0-3.883.822,7.135,7.135,0,0,0-2.636,2.268,9.578,9.578,0,0,0-1.474,3.43A19,19,0,0,0,589.6,195q0,5.16,2.551,7.966a8.748,8.748,0,0,0,6.8,2.805,27.041,27.041,0,0,0,3.6-.2,16.979,16.979,0,0,0,2.239-.425Z" transform="translate(-503.827 -165.744)"/><path class="a" d="M709.209,210.3q-4.876-.114-6.916-2.1t-2.041-6.179V166.651l5.272-.907v35.432a8.5,8.5,0,0,0,.227,2.154,2.952,2.952,0,0,0,.736,1.36,3.17,3.17,0,0,0,1.361.765,14,14,0,0,0,2.1.426Z" transform="translate(-587.27 -165.744)"/><path class="a" d="M741.922,230.2a18.8,18.8,0,0,1,1.134-6.831,14.272,14.272,0,0,1,3-4.847,12.193,12.193,0,0,1,4.308-2.891,13.454,13.454,0,0,1,4.989-.964q5.953,0,9.128,3.713t3.175,11.309v.879a8.134,8.134,0,0,1-.057.992H747.421q.34,4.593,2.664,6.973t7.257,2.381a19.336,19.336,0,0,0,4.677-.482,16.753,16.753,0,0,0,2.863-.935l.737,4.422a15.674,15.674,0,0,1-3.373,1.077,24.008,24.008,0,0,1-5.47.566,17.376,17.376,0,0,1-6.661-1.161,12.42,12.42,0,0,1-4.62-3.2,13.05,13.05,0,0,1-2.692-4.847A20.467,20.467,0,0,1,741.922,230.2Zm20.239-2.891a8.853,8.853,0,0,0-1.786-5.867,6.149,6.149,0,0,0-5.074-2.3,6.961,6.961,0,0,0-3.2.708,7.568,7.568,0,0,0-2.352,1.843,8.495,8.495,0,0,0-1.5,2.608,12.878,12.878,0,0,0-.708,3.005Z" transform="translate(-617.205 -200.887)"/></g></svg>