<svg xmlns="http://www.w3.org/2000/svg" xmlns:xlink="http://www.w3.org/1999/xlink" width="1920" height="328" viewBox="0 0 1920 328"><defs><style>.a{fill:#ededed;}.b{clip-path:url(#a);}.c{opacity:0.051;}.d{fill:#fff;}</style><clipPath id="a"><rect class="a" width="1920" height="328" transform="translate(0 5052)"/></clipPath></defs><g class="b" transform="translate(0 -5052)"><g class="c" transform="translate(1561.345 5097.074) rotate(-13)"><path class="d" d="M198.41,236.7c-11.193,23.7-27.688,44.442-48.307,61.627l-2.946,2.371,5.3-.594c34.758-2.371,65.981-17.776,89.546-40.886l-3.536-2.371A169.516,169.516,0,0,0,198.41,236.7Z" transform="translate(14.261 -14.493)"/><path class="d" d="M147.477,295.557c17.673-16,31.222-35.554,41.238-57.479a139.48,139.48,0,0,0-41.238-6.517Z" transform="translate(14.531 -18.831)"/><path class="d" d="M189.616,231.023h68.337a142.738,142.738,0,0,0-32.4-85.922l-4.124,2.963a205.137,205.137,0,0,1-43.594,23.11A154.844,154.844,0,0,1,189.616,231.023Z" transform="translate(40.14 -91.771)"/><path class="d" d="M177.194,261.437A203.444,203.444,0,0,1,219.61,282.77l4.714,2.963a143.478,143.478,0,0,0,34.758-88.885H190.745C189.566,219.366,185.442,241.29,177.194,261.437Z" transform="translate(39.601 -48.116)"/><path class="d" d="M154.545,247.807c-.588,0-1.178.594-2.356.594h-.59c-1.178.592-2.944.592-4.122,1.185v1.185a195.71,195.71,0,0,1,45.36,7.109c8.248-18.962,12.373-39.7,12.961-61.033H191.659a64.981,64.981,0,0,1-9.425,29.629A52.156,52.156,0,0,1,154.545,247.807Z" transform="translate(14.531 -48.116)"/><path class="d" d="M199.908,185.553c14.728-5.332,28.867-12.443,41.238-21.924l3.534-2.369c-23.563-24.3-55.377-40.888-90.723-43.85l-6.48-.592,3.534,2.963A189.981,189.981,0,0,1,199.908,185.553Z" transform="translate(14.531 -115.632)"/><path class="d" d="M191.659,217.737H205.8a184.076,184.076,0,0,0-11.193-56.887,182.265,182.265,0,0,1-47.128,7.7v.593C170.452,173.886,188.125,193.442,191.659,217.737Z" transform="translate(14.531 -78.484)"/><path class="d" d="M147.477,122.6v68.144a181.187,181.187,0,0,0,43.594-7.109C172.808,144.526,147.477,122.6,147.477,122.6Z" transform="translate(14.531 -110.751)"/><path class="d" d="M211.594,319.422h-2.356a56.887,56.887,0,0,1,0-113.772h2.356V116.174c-41.826,0-151.991,16.591-151.991,151.1C59.6,393.491,211.594,567.7,211.594,567.7Z" transform="translate(-59.602 -116.174)"/></g></g></svg>