<svg xmlns="http://www.w3.org/2000/svg" width="158.429" height="103.057" viewBox="0 0 158.429 103.057"><defs><style>.a{fill:#797979;}.b{fill:#444;}.c{fill:#434343;}.d{fill:#9bd65a;}.e{fill:#a0da5d;}.f{fill:#85c94d;}.g{fill:#8bcc50;}.h{fill:#f7c167;}.i{fill:#6db93d;}.j{fill:#79c046;}.k{fill:#7dc446;}.l{fill:#ed940e;}.m{fill:#71bb40;}.n{fill:#f4b24b;}.o{fill:#75be43;}.p{fill:#f0a32d;}.q{fill:#97d357;}.r{fill:#5faf35;}.s{fill:#8fcf52;}.t{fill:#5aac31;}.u{fill:#ec9108;}.v{fill:#80c649;}.w{fill:#ef9c1d;}.x{fill:#62b237;}.y{fill:#f0a129;}.z{fill:#f8c46d;}.aa{fill:#f4b551;}.ab{fill:#f3af45;}.ac{fill:#ef505e;}.ad{fill:#f4b957;}.ae{fill:#f5bc5d;}.af{fill:#f36f72;}.ag{fill:#66b538;}.ah{fill:#93d154;}.ai{fill:#f26269;}.aj{fill:#f09e22;}.ak{fill:#ee9817;}.al{fill:#fb9d91;}.am{fill:#f8c772;}.an{fill:#69b73b;}.ao{fill:#f78881;}.ap{fill:#f05862;}.aq{fill:#f6bd62;}.ar{fill:#fb988d;}.as{fill:#f2ad40;}.at{fill:#fa9289;}.au{fill:#f37576;}.av{fill:#fca496;}.aw{fill:#f88d85;}.ax{fill:#ea394e;}.ay{fill:#f3676d;}.az{fill:#f2aa3c;}.ba{fill:#f7827d;}.bb{fill:#a5dd60;}.bc{fill:#f1a836;}.bd{fill:#f05d65;}.be{fill:#f57979;}.bf{fill:#5cad33;}.bg{fill:#efa733;}.bh{fill:#f77d7c;}.bi{fill:#f8ca7c;}.bj{fill:#ed9613;}</style></defs><path class="a" d="M1139.11-1.244q.023-.1.042-.195h1.826a.278.278,0,0,1,.054.183A1.373,1.373,0,0,1,1139.11-1.244Z" transform="translate(-1050.481 1.439)"/><path class="b" d="M886.625,226.867c-1.4,3.644-2.741,7.1-4.074,10.566-2.631,6.831-5.277,13.657-7.868,20.5a1.431,1.431,0,0,1-1.631,1.1c-3.8-.057-7.607-.044-11.409-.007a1.236,1.236,0,0,1-1.42-.909q-5.766-15.095-11.618-30.157c-.341-.878-.307-1.145.73-1.112,2.2.071,4.412.051,6.617,0a1.145,1.145,0,0,1,1.3.908q4.707,12.512,9.494,24.993c.138.362.1.935.616.982.653.059.6-.608.739-.981q4.731-12.385,9.4-24.794a1.428,1.428,0,0,1,1.635-1.115C881.56,226.914,883.993,226.867,886.625,226.867Z" transform="translate(-848.412 -157.242)"/><path class="c" d="M1053.406,218.038c0,2.851-.1,5.706.026,8.551.154,3.462,2.129,6.08,4.9,6.661a10.455,10.455,0,0,0,6.948-1.189c.882-.444,1.235-.307,1.547.576a25.2,25.2,0,0,0,1.079,2.385c.164.346.244.6-.209.821-5.606,2.734-13.839,2.7-18.508-.882a10.8,10.8,0,0,1-4.432-8.51c-.166-5.47-.113-10.948-.079-16.422.007-1.066-.2-1.487-1.349-1.381-1.245.114-2.51-.01-3.763.04-.668.027-.847-.212-.812-.844a21.593,21.593,0,0,0,0-2.622c-.045-.689.15-.936.876-.9,1.329.059,2.666-.048,3.992.038.906.058,1.064-.286,1.049-1.1-.047-2.585.013-5.171-.034-7.756-.014-.783.182-1.044,1-1.023,2.205.056,4.414.074,6.617-.007.966-.035,1.11.327,1.094,1.167-.048,2.585.009,5.171-.033,7.756-.013.74.189.972.945.958,2.548-.046,5.1.005,7.646-.035.75-.012,1.124.125,1.043.983a14.589,14.589,0,0,0,0,2.506c.057.731-.225.889-.9.879-2.548-.035-5.1.02-7.645-.034-.832-.018-1.109.171-1.089,1.056.063,2.774.023,5.55.023,8.326Z" transform="translate(-980.715 -134.741)"/><path class="c" d="M995.048,80.553l.783,3.859c.478-.105.638-.484.88-.751q7.666-8.479,15.319-16.969c.328-.363.687-.7,1.031-1.047.434.157.569.2.38.85a2.57,2.57,0,0,0,.724,2.391c.583.57,1.125.322,1.742.012,1.264-.634,3.636-.114,4.26.871-2.143,2.662-4.522,5.114-6.8,7.656-5.607,6.253-11.248,12.475-16.845,18.736a4.1,4.1,0,0,1-4.285,1.446,3.8,3.8,0,0,1-2.973-3.126c-.771-4.14-1.47-8.294-2.194-12.443a1.811,1.811,0,0,1,0-.34,1.591,1.591,0,0,1,.055-.979c.047-.085.892-.027.137-.385-.384-.182-.417-.6-.612-.916l-.055-.4c-.056-.738.489-.864,1.013-.913a.878.878,0,0,1,1,.721,3.159,3.159,0,0,0,.322.837c.523.924.4,1.172-.7,1.561-.23-.382-.05-.814-.142-1.21-.1-.187-.328-.24-.342-.3.04.054.28.129.353.357.017,1.39.018,1.4,1.372,1.259a4.475,4.475,0,0,1,1.247-.013c.637.112,1.038-.106,1.1-.8a.959.959,0,0,1,.84-.936.88.88,0,0,0,.417-.176,1.246,1.246,0,0,0,.428-1.231c-.168-.509-.718-.248-1.1-.154a1.432,1.432,0,0,0-1.171,1.109c-.092.412-.249.9-.783.793s-.431-.637-.464-1.041c-.015-.189.021-.38.014-.569-.012-.311-.131-.587-.48-.378-1.094.655-1.9-.48-2.908-.432-.435.02-.235-.572-.438-.827a3.28,3.28,0,0,1-.237-1.371c-.172-.832.081-1.74-.448-2.508l-.029-.222a3.261,3.261,0,0,1,0-1.63l-.008,0c.441-.055.523.319.538.576a3.226,3.226,0,0,0,1,2.053,12.253,12.253,0,0,1,2.288,2.215c.23.326.929.173,1.419.151.755-.034,1.509-.026,2.264-.031a1.24,1.24,0,0,1,1.419.991l.252,1.491a3.114,3.114,0,0,1,.029,1.415.2.2,0,0,1-.289,0,.545.545,0,0,1-.1-.425.606.606,0,0,0,.065.426A.967.967,0,0,1,995.048,80.553Z" transform="translate(-943.606 -45.193)"/><path class="c" d="M1286.493,248.2c0-2.66,0-5.321,0-7.981.016-7.553,4.431-12.426,11.949-13.214,4.022-.421,8.055-.114,12.08-.223.539-.014.785.15.709.7a2.054,2.054,0,0,0,0,.228c-.024,1.1.361,2.525-.186,3.194-.579.709-2.065.172-3.154.217a54.766,54.766,0,0,0-5.808.147c-4.243.63-6.725,3.2-6.835,7.488-.145,5.621-.051,11.248-.088,16.873-.007,1.087.482,2.538-.231,3.157-.616.535-2.029.162-3.09.171-1.331.012-2.672-.1-3.989.034-1.238.127-1.4-.372-1.381-1.443C1286.536,254.433,1286.493,251.316,1286.493,248.2Z" transform="translate(-1152.911 -157.195)"/><path class="c" d="M999.661,244.7c0,4.939-.014,9.879.015,14.818,0,.715-.142.983-.92.965-2.318-.052-4.638-.038-6.956,0-.641.009-.83-.184-.829-.829q.029-14.932,0-29.864c0-.763.286-.855.928-.845,2.28.032,4.562.043,6.842-.006.752-.016.945.206.94.948C999.645,234.818,999.661,239.758,999.661,244.7Z" transform="translate(-947.505 -158.694)"/><path class="b" d="M1083.185,23.556c-1.493-.762-2.969-1.387-4.612-.3-.735.487-2.185-.221-2.138-1.137.037-.719-.986-1.494.045-2.16l-.4-.529q4.535-5.084,9.072-10.165c2.579-2.877,5.175-5.739,7.761-8.61a3.94,3.94,0,0,1,2.342-1.483l1.922-.012a3.988,3.988,0,0,1,2.189,6.53c-5.3,5.991-10.707,11.9-16.072,17.833C1083.272,23.547,1083.222,23.545,1083.185,23.556Z" transform="translate(-1006.625 1.022)"/><path class="c" d="M999.341,191.085a4.63,4.63,0,1,1-4.545-4.692A4.53,4.53,0,0,1,999.341,191.085Z" transform="translate(-946.888 -129.126)"/><path class="b" d="M994.617,81.5a1.522,1.522,0,0,0-1.532-.7c-1.162.051-2.328,0-3.492.017-.6.007-.948-.226-.91-.859.045-.75-.332-1.038-1.034-.965-.495.051-.851-.13-.874-.633-.049-1.07-.961-1.788-1.088-2.816a3.9,3.9,0,0,1,3.667-3.278,3.941,3.941,0,0,1,4.144,2.867A45.926,45.926,0,0,1,994.617,81.5Z" transform="translate(-943.834 -49.791)"/><path class="d" d="M1101.253,106.117l-1.2,1.349c-.561.679-1.062.836-1.749.057-.516-.586-1.245-.982-1.485-1.8a.572.572,0,0,0-.372-.406c-1.375-.346-2-1.611-2.994-2.422-.049-.04-.021-.137.019-.209l1.635-1.994c.085-.356.247-.621.674-.579,1.66.9,2.756,2.47,4.2,3.641C1100.551,104.217,1101.585,104.937,1101.253,106.117Z" transform="translate(-1018.726 -69.147)"/><path class="e" d="M1089.855,108.561a2.536,2.536,0,0,1,1.3,1.169,2.263,2.263,0,0,0,1.749,1.128c.289.015.56.175.561.464.006,1.343,1.471,1.5,1.99,2.457.165.3.534-.522.986-.437-1.1,1.293-2.047,2.808-4.052,2.789-.319-.07-.683-.007-.951-.334.173-.515.652-.371,1.016-.462.139.062-.008-.208.006-.056.005.055-.037.069-.109.015a7.28,7.28,0,0,1-2.318-2.23,2.4,2.4,0,0,0-1.369-1.415.6.6,0,0,1-.405-.808A4.3,4.3,0,0,1,1089.855,108.561Z" transform="translate(-1015.109 -75.024)"/><path class="f" d="M1120.409,71.78l.211-.216a1.247,1.247,0,0,0,.694-.72,11.346,11.346,0,0,1,1.809-2.036c.077.019.191.064.184.11-.291,1.892,1.525,2.531,2.334,3.743a6.168,6.168,0,0,0,2.229,2.181c.232.116.131.406.116.627a19.79,19.79,0,0,1-2.475,2.743c-.589.488-.908.064-.852-.41.112-.952-.533-1.459-1.035-2a5.578,5.578,0,0,1-1.329-2.191c-.166-.574-.516-.65-.941-.73C1120.734,72.761,1120.22,72.58,1120.409,71.78Z" transform="translate(-1037.453 -47.392)"/><path class="g" d="M1116.329,78.555c-.05.627.654.563.869.948.12-.178-.029-.47.313-.612.461-.24-.461,1.318.552.513.226-.18.2.223.232.36a7.13,7.13,0,0,0,2.457,3.644c.329.314.305.472.118.835-.26.505-.132.875.56.744a9.665,9.665,0,0,1-1.857,2.058.277.277,0,0,1-.413-.231c-.113-1.663-1.415-2.455-2.488-3.405-.593-.525-1.273-.975-1.156-1.918,0-.04-.006-.041-.04-.035-.837.145-.84.143-.976-.847Z" transform="translate(-1033.374 -54.166)"/><path class="h" d="M1124.066,127.579l2.274-2.533c.649,1.025,1.581,1.836,2.2,2.877a4.268,4.268,0,0,0,2.819,2.267c.266.055.611.177.479.607a3.807,3.807,0,0,1-1.4,1.77,1.411,1.411,0,0,1-1.731-.489c-.733-.875-1.709-1.491-2.425-2.394a6.282,6.282,0,0,0-1.883-1.452C1124.174,128.1,1123.767,128.005,1124.066,127.579Z" transform="translate(-1039.95 -86.483)"/><path class="i" d="M1152.451,36.024a26.488,26.488,0,0,1,2.721-3c-.055.7-.013,1.4-.11,2.094-.326.679.205,1.052.551,1.465a25.218,25.218,0,0,0,3.239,2.928,2.96,2.96,0,0,1,.59.8,7.143,7.143,0,0,1-1.451,1.639c-.74.228-1.208-.243-1.673-.676-1.121-1.044-1.988-2.329-3.226-3.275A1.554,1.554,0,0,1,1152.451,36.024Z" transform="translate(-1059.65 -22.517)"/><path class="j" d="M1143.27,59.136a6.871,6.871,0,0,1-1.582,1.825c-.337.264-.46,0-.588-.241a11.411,11.411,0,0,0-3.692-4.228,2.487,2.487,0,0,1-1.209-1.506,23.019,23.019,0,0,1,2.5-2.76c.273.231.2.553.2.842a2.048,2.048,0,0,0,.941,1.8c1.219.887,1.982,2.256,3.222,3.131C1143.5,58.31,1143.224,58.755,1143.27,59.136Z" transform="translate(-1048.457 -35.866)"/><path class="b" d="M988.046,101.837c.248.437.518.793,1.128.7a1,1,0,0,1,1.115.37c.272.416.533.311.787-.046a.7.7,0,0,1,1-.215c.358.2.19.513.108.8a1.056,1.056,0,0,0-.03.45c.06.342-.224.914.245.976.522.069.382-.512.437-.86.143-.9,2.269-1.739,2.983-1.177a.41.41,0,0,1,.133.17c.146.415-.8,2.006-1.256,2.009-.649,0-.763.348-.723.87.059.752-.335,1.089-1.028.952a6.058,6.058,0,0,0-1.882,0c-1.1.119-1.2-.066-1.2-1.806h0c.41.3.105.795.3,1.166.629-.347,1.194-.688.24-1.323a.583.583,0,0,1-.211-.389c-.036-.379.191-.858-.43-.973a1.153,1.153,0,0,0-1.3.665A7.924,7.924,0,0,1,988.046,101.837Z" transform="translate(-945.474 -70.35)"/><path class="k" d="M1132.391,61.279a37.077,37.077,0,0,1,3.353,2.925,8.426,8.426,0,0,1,1.79,2.718c.076.208.121.332.347.33a6.044,6.044,0,0,1-1.279,1.411c-.567.138-.857.418-1.33-.532-.761-1.53-1.7-3.211-3.624-3.781a1.288,1.288,0,0,1-.927-.756c-.015-.3.256-.484.281-.765A6.5,6.5,0,0,1,1132.391,61.279Z" transform="translate(-1044.649 -42.157)"/><path class="l" d="M1190.667,56.645a2.981,2.981,0,0,1,1.393-1.333c.868.412,2.079.284,2.4,1.563.053.209.372.226.59.28s.552.124.568.315c.126,1.536,1.862,1.426,2.466,2.456-.3,1.286-1.331,2.038-2.164,2.935-.357.02-.342-.569-.756-.462-.432-2.008-2.254-3.015-3.3-4.578-.228-.339-.721-.168-1.026-.4A.7.7,0,0,1,1190.667,56.645Z" transform="translate(-1086.282 -38.01)"/><path class="m" d="M1147.858,42.865a2.165,2.165,0,0,0,.866,1.835,24.226,24.226,0,0,1,3.216,3.272,5.222,5.222,0,0,0,1.458.818,11.336,11.336,0,0,1-1.859,2.04,34.89,34.89,0,0,1-3.047-2.838,17.182,17.182,0,0,0-2.769-2.549c-.052-.029-.026-.133.019-.205A15.629,15.629,0,0,1,1147.858,42.865Z" transform="translate(-1055.057 -29.357)"/><path class="n" d="M1145,106.15a8.75,8.75,0,0,1,1.545-1.686,1.08,1.08,0,0,1,1.224.365c.969,1.261,2.355,2.168,3.094,3.618.169.332.352.28.631.234a1.073,1.073,0,0,1,1.355.887c-.044.295-.166.5-.513.461-.139-.1-.23-.275-.469-.287.071.235.342.1.426.256a.178.178,0,0,1,.08.163c-.008.063-.02.094-.036.094l-1.4,1.363a8.387,8.387,0,0,1-3.2-2.55,8.193,8.193,0,0,0-2.316-2.081C1145.1,106.793,1144.684,106.66,1145,106.15Z" transform="translate(-1054.496 -72.14)"/><path class="o" d="M1144.69,50.651c1.925.864,2.924,2.762,4.469,4.06.479.4,1.365.623,1.329,1.532a7.312,7.312,0,0,1-1.668,1.8,14.983,14.983,0,0,0-3.854-4.191c-.951-.786-.813-1.725-.713-2.717Z" transform="translate(-1054.006 -34.77)"/><path class="p" d="M1168.726,80.807l.733-1.021a.183.183,0,0,1,.205-.17,1.113,1.113,0,0,1,1.569.758,3.342,3.342,0,0,0,1.177,1.511,2.731,2.731,0,0,1,1,1.212c.125.332.338.677.7.686,1.131.029,1.222.79,1.242,1.631a4.863,4.863,0,0,1-1.752,1.858c-.193.119-.276-.006-.347-.155.429-.512-.183-.542-.362-.773A3.925,3.925,0,0,0,1171.668,85c-1.351-.763-1.853-2.264-2.944-3.245C1168.414,81.477,1168.577,81.124,1168.726,80.807Z" transform="translate(-1070.943 -54.846)"/><path class="q" d="M1106.451,101.635c-.662-.209-.129-.684-.19-.945-.162-.329-.883,1.231-.733-.369.093-.992-1.233-1.554-2.082-2.136-.278-.191-.683-.276-.742-.637a1.533,1.533,0,0,0-1.08-1.166,1.158,1.158,0,0,1-.669-.683c-.153-.247.085-.33.2-.466l1.633-1.574c.052.729.285.7,1.022,1.551.925,1.063,2.235,1.721,2.963,2.966.149.256.258.7.743.449.442.232.972-.011,1.407.257A20.076,20.076,0,0,1,1106.451,101.635Z" transform="translate(-1023.924 -64.666)"/><path class="r" d="M1175.788,23.934a12.965,12.965,0,0,1-2.056,2.3.657.657,0,0,1-.753-.173.465.465,0,0,1-.077-.3c.339-.35.563-.818,1-1.038-.463-.13-.378.922-1.009.523-.016-.034-.031-.069-.046-.1-.219-.5.912-.941.019-1.537-.547-.364-.813-1.07-1.374-1.481-.705-.517-1.226-1.235-2.289-1.25-.635-.009-.6-.555-.031-.885a.654.654,0,0,1,.187.078.241.241,0,0,0,.277.012c-.1-.055-.235.071-.331-.054a.546.546,0,0,1-.209-.681,5.862,5.862,0,0,1,2.066-2.024c.168.137.166.456.553.357.416-.108.674.15.707.592a.421.421,0,0,1-.158.246c-.21.087-.619-.012-.42.456a6.5,6.5,0,0,0,3.261,3.384C1175.979,22.721,1175.354,23.507,1175.788,23.934Z" transform="translate(-1071.074 -11.597)"/><path class="s" d="M1115.149,93.064c-.454-.036-1.024.625-1.344-.222.018-.046.035-.093.051-.14.224-.267.385-.541.1-.869.044-.448-.272-.656-.563-.907a10.134,10.134,0,0,1-2.554-3.253c-.186-.385-.2-.014-.246-.009-.642.072-.8-.257-.7-.81a6.819,6.819,0,0,1,1.387-1.565c.2.3.213.8.668.832.416.034-.093-.605.459-.628a2.575,2.575,0,0,0,1.546,2.6c.858.5,1.2,1.542,2.093,2.013.272.144.162.364.107.588-.088.366-.181.748.2,1.03A4.835,4.835,0,0,1,1115.149,93.064Z" transform="translate(-1030.155 -58.847)"/><path class="t" d="M1177.71,17c-.14-.915-.61-.65-1.081-.25-.261-.32.032-.607-.057-.877a3.837,3.837,0,0,1,4.621.3,3.921,3.921,0,0,1,1.27,4.468c-.447.671-.7.89-1.408.054C1179.986,19.432,1179.154,17.926,1177.71,17Z" transform="translate(-1076.484 -10.155)"/><path class="u" d="M1201.383,58.261c-.11.025-.294.1-.319.066-.5-.72-1.612-.667-1.983-1.275-.433-.71-.583-1.522-1.619-1.534-.016-1.3-1.12-1.189-1.917-1.49-.1-.037-.127-.25-.188-.382,1.817-1.177,3.484-.94,5.4.766.506.082.4.556.555.865A4.429,4.429,0,0,1,1201.383,58.261Z" transform="translate(-1089.58 -36.344)"/><path class="v" d="M1129.138,68.669c2.355.621,3.46,2.64,4.917,4.3.462.524-.485.449-.088.8.279.063.625-.382.964-.04a6.458,6.458,0,0,1-1.421,1.572c-.23-.094-.087-.46-.2-.466-1.085-.057-1.166-1.21-1.863-1.66a4.782,4.782,0,0,1-1.729-2.162c-.073-.159-.251-.37-.394-.381-1.542-.12-.947-.924-.571-1.681.035-.069-.066-.206-.1-.311l0,.005A.373.373,0,0,1,1129.138,68.669Z" transform="translate(-1042.979 -47.224)"/><path class="w" d="M1188.428,70.64a7.55,7.55,0,0,1-1.424,1.57c-.365.2-.773.484-1.039-.082-.759-1.611-2.38-2.482-3.327-3.935-.444-.682-1.166-1.22-.907-2.183a6.7,6.7,0,0,1,1.4-1.541c.622,1.908,2.167,3.016,3.571,4.288A5.981,5.981,0,0,1,1188.428,70.64Z" transform="translate(-1080.07 -44.375)"/><path class="x" d="M1169.891,30.357v.228c-.062.81-.784.594-1.237.8a.374.374,0,0,1-.229-.2,7.508,7.508,0,0,0-2.4-3.6c-.426-.44-.654-1.3-1.6-1.156-.209.03-.146-.434-.028-.68A7.306,7.306,0,0,1,1166,23.953l.237.7h0c-.4.251-.64.69.037.64,1.6-.118,2.106,1.274,3.091,1.994.2.148.3.437.481.62.457.455.847.88.128,1.449-.105.084-.06.357-.084.543A.308.308,0,0,1,1169.891,30.357Z" transform="translate(-1067.98 -16.211)"/><path class="y" d="M1177.842,81.963a.855.855,0,0,1-.364-.786c.063-.349-.051-.551-.39-.509-.9.112-1.331-.347-1.528-1.151a1.186,1.186,0,0,0-.664-.74,3.813,3.813,0,0,1-1.45-1.708c-.269-.512-.21-1.152-.987-.45-.152.137-.276-.16-.3-.351-.138-.723.583-.778.9-1.15l.615-.487c.36-.177.6.06.769.294a26.78,26.78,0,0,0,5.094,5.245A6.9,6.9,0,0,1,1177.842,81.963Z" transform="translate(-1073.439 -51.395)"/><path class="z" d="M1122.86,133.355c.534.76,1.5.927,2.13,1.637.671.755,1.451,1.466,2.193,2.176a3.646,3.646,0,0,0,2.051,1.174,3.246,3.246,0,0,1-1.574,1.409,7.142,7.142,0,0,0-1.152.438h.005a22.919,22.919,0,0,0-2.4-2.8c-.4-.444-.739-.941-1.162-1.379a1.719,1.719,0,0,1-.57-2.034C1122.354,133.623,1122.589,133.475,1122.86,133.355Z" transform="translate(-1038.744 -92.258)"/><path class="aa" d="M1142.527,110.113c.229.841,1.27.672,1.661,1.331.079.133.417.127.474.256.791,1.767,2.61,2.517,3.8,3.881l-1.626,1.809a.3.3,0,0,1-.4-.109c-.832-1.953-2.5-3.106-4.091-4.349-.483-.377-1.178-.657-.988-1.5A4.513,4.513,0,0,1,1142.527,110.113Z" transform="translate(-1052.024 -76.103)"/><path class="ab" d="M1156.565,105.034c-.464-.5-.882-1.072-1.677-.441-.343.272-.259-.131-.34-.3-.779-1.668-2.413-2.624-3.431-4.1-.2-.292-.616.092-.791-.262a9.95,9.95,0,0,1,1.841-2.04.772.772,0,0,1,.57.543c-.081.9.66,1.235,1.219,1.6a4.424,4.424,0,0,1,1.431,1.389c.059.1.117.239.2.262,1.557.416,1.191,1.8,1.455,2.863C1157.067,104.887,1156.921,105.065,1156.565,105.034Z" transform="translate(-1058.277 -67.606)"/><path class="ac" d="M1196.691,109.532a9.708,9.708,0,0,1,1.617-1.795,14.376,14.376,0,0,0,4.168,4.836,3.713,3.713,0,0,1,1.113,1.356l-.99,1.117a1.181,1.181,0,0,1-1.583-.4,40.76,40.76,0,0,0-3.842-3.945C1196.836,110.4,1196.517,110.059,1196.691,109.532Z" transform="translate(-1090.472 -74.451)"/><path class="ad" d="M1138.81,114.451a1.9,1.9,0,0,0,.928,1.085c1.579.743,2.37,2.437,3.9,3.254a.739.739,0,0,1,.331.89.512.512,0,0,0,.316.724,4.524,4.524,0,0,1-1.075,1.179c-.188.082-.444.094-.521-.062-.413-.834-1.3-1.219-1.8-1.963a11.929,11.929,0,0,0-2.747-2.971c-.31-.23-.594-.485-.442-.938A3.842,3.842,0,0,1,1138.81,114.451Z" transform="translate(-1049.472 -79.118)"/><path class="ae" d="M1136.129,118.379c.21.815,1.059,1.027,1.575,1.536.665.657,1.156,1.422,1.764,2.1.7.785,1.447,1.532,2.174,2.3a6.066,6.066,0,0,1-1.421,1.568,31.8,31.8,0,0,0-3.993-4.323,3.049,3.049,0,0,1-.827-2.345A1.783,1.783,0,0,1,1136.129,118.379Z" transform="translate(-1047.9 -81.848)"/><path class="af" d="M1180.755,125.776a7.112,7.112,0,0,1,1.383-1.564.475.475,0,0,1,.134.453c-.648,1.228-.522,1.124.413,2.259,1.011,1.226,2.315,2.16,3.221,3.453.244.348.255-.006.341-.016.43-.049.624.184.762.525a11.105,11.105,0,0,1-1.839,2.044c-.355.141-.7.237-.862-.257a1.078,1.078,0,0,0-.306-1.264,15.205,15.205,0,0,1-2.868-3.332,1.9,1.9,0,0,0-.785-.631c-.369-.23-.552-.515-.26-.931l0,0A1.32,1.32,0,0,0,1180.755,125.776Z" transform="translate(-1078.867 -85.903)"/><path class="ag" d="M1161.9,29.834l.107.525c.331-.182.8-.336.965.019.811,1.75,2.953,2.62,3.13,4.768.006.068-.048.14-.075.211a.835.835,0,0,1-.675.91c-.446.086-.439-.429-.661-.649-.9-.9-1.981-1.591-2.849-2.527-.292-.315-.732-.066-1.066-.243a2.8,2.8,0,0,1,.232-2.041A2.542,2.542,0,0,1,1161.9,29.834Z" transform="translate(-1065.483 -20.299)"/><path class="ah" d="M1107.126,90.351c.4,1.113.85.568,1.361-.031a1.394,1.394,0,0,0,.24,1.487,10.032,10.032,0,0,0,2.621,2.754c.593.347.134.6-.083.866.169.365-.022.64-.228.912h0c-.222.045-.289.9-.66.141-.7-1.434-2.325-1.993-3.121-3.335a.718.718,0,0,0-.443-.32c-1.079-.153-1.12-.224-.607-1.267a.84.84,0,0,0,.042-.221A2.951,2.951,0,0,1,1107.126,90.351Z" transform="translate(-1027.386 -62.344)"/><path class="ai" d="M1187.146,122.059q0-.239-.007-.477l1.074-1.154a31.113,31.113,0,0,1,5.152,5.533c.2-.037.45-.689.922-.227a12.717,12.717,0,0,1-2.075,2.283.623.623,0,0,1-.72-.66c.075-.884-.573-1.246-1.056-1.742C1189.309,124.457,1188.3,123.189,1187.146,122.059Z" transform="translate(-1083.867 -83.273)"/><path class="aj" d="M1183.013,76.663a5.5,5.5,0,0,1-2.094-1.379c-1.287-1.36-2.448-2.833-3.769-4.159a7.148,7.148,0,0,1,1.435-1.6,11.5,11.5,0,0,0,3.044,4.117c.53.55,1.275.934,1.361,1.853.061.653.635-.088.867.23A2.753,2.753,0,0,1,1183.013,76.663Z" transform="translate(-1076.922 -47.889)"/><path class="ak" d="M1191.574,67.315c-1.172-.424-1.6-1.744-2.767-2.244-.561-.24-.9-1.01-1.329-1.544-.094-.116-.148-.336-.253-.36-1.2-.27-1.063-1.149-.951-2.023a6,6,0,0,1,1.326-1.459l.264.758c-.3.474-.338.856.283,1.123a1.755,1.755,0,0,1,.841.885c.6,1.249,1.985,1.8,2.663,2.979.094.165.345.478.552.031.931-.909.293.5.652.441A6.093,6.093,0,0,1,1191.574,67.315Z" transform="translate(-1083.216 -41.049)"/><path class="al" d="M1159.835,164.877a2.864,2.864,0,0,1-1.874,1.4c-.3-.059-.613-.005-.909-.06s-.736-.123-.219-.555c.077-.064-.119-.1-.179-.165-.673-.7-1.613-1.125-2.037-2.1-.11-.252-.394-.827-.931-.305-.137.133-.454-.061-.429-.225.094-.615-.4-.962-.578-1.446a1.513,1.513,0,0,1,.691-1.359.96.96,0,0,1,1.079.371c1.215,1.33,2.685,2.4,3.88,3.754C1158.739,164.649,1159.405,164.493,1159.835,164.877Z" transform="translate(-1059.911 -110.788)"/><path class="am" d="M1120.793,135.382c.123,1.783,1.6,2.7,2.595,3.9.61.734,1.407,1.285,1.541,2.319a3.145,3.145,0,0,1-2.978-.486c-.189-.332-.641-.447-.578-1.007.075-.666-.854-.3-1.04-.8A3.518,3.518,0,0,1,1120.793,135.382Z" transform="translate(-1037.159 -93.667)"/><path class="an" d="M1159.953,39.078a.923.923,0,0,1,1.5.252c.526.792,1.416,1.177,2.08,1.825.372.363.8.607.806,1.182.522-.059.541-.566.86-.749h0c.658.452-.187,1.108.216,1.595-.121.55-.635.768-.966,1.141a20.9,20.9,0,0,1-4.718-4.436C1159.479,39.534,1159.324,39.2,1159.953,39.078Z" transform="translate(-1064.662 -26.529)"/><path class="ao" d="M1165.406,146.114a2.633,2.633,0,0,1,.889-.966,3.366,3.366,0,0,1,2.216,1.583,19.689,19.689,0,0,0,2.813,2.9,2.334,2.334,0,0,1,.776,1.213.424.424,0,0,1-.369.463l-.386.267a2.205,2.205,0,0,1-1.671-.581c-.885-1.025-1.921-1.9-2.823-2.9a4.852,4.852,0,0,0-.944-.951C1165.564,146.922,1165.248,146.614,1165.406,146.114Z" transform="translate(-1068.73 -100.456)"/><path class="ap" d="M1194.263,113.624c.244,1.012,1.207,1.449,1.849,2.085.991.981,1.925,2,2.809,3.07.355.429.857.162,1.249.359a7.6,7.6,0,0,1-1.5,1.63c-.276.006-.81.456-.606-.359.086-.343-.248-.437-.423-.582-1.663-1.377-2.893-3.159-4.4-4.678a.29.29,0,0,1-.072-.307l.01-.015a1.627,1.627,0,0,0,.644-.731Z" transform="translate(-1088.044 -78.543)"/><path class="aq" d="M1132.876,121.118c.364,2.084,1.991,3.226,3.451,4.432.553.457.418,1.483,1.448,1.527.326.014-.434.416-.079.708-.07.2-.251.239-.427.281-.4-.748-1.295-.288-1.883-.811a11.38,11.38,0,0,1-1.929-2.29c-.327-.495-.523-1.008-1.207-1.25-.291-.1-.331-.912-.485-1.4A4.819,4.819,0,0,1,1132.876,121.118Z" transform="translate(-1045.375 -83.752)"/><path class="ar" d="M1161.418,160.849a1.764,1.764,0,0,1-1.817-.6c-1.258-1.439-2.878-2.516-4.067-4.032-.094-.12-.445.094-.582-.182a7.457,7.457,0,0,1,1.6-1.815,1.433,1.433,0,0,0,.751,1.141,6.7,6.7,0,0,1,.79.809,53.561,53.561,0,0,0,3.957,3.988Z" transform="translate(-1061.494 -106.76)"/><path class="as" d="M1161.464,103.131a1.714,1.714,0,0,1-.239-.382c-.24-.789-.176-1.514-1.09-2.218-.975-.749-1.879-1.727-2.9-2.509-.466-.357-.572-.672-.054-1.05-.059-.8.771-.73,1.153-1.078.3-.273.295.372.484.547,1.108,1.017,1.991,2.245,3.083,3.274a1.563,1.563,0,0,0,1.206.538.568.568,0,0,1,.271.126c.159.512-.509.7-.458,1.175l-.423.46a11.235,11.235,0,0,0-.769.839l.034.09C1161.655,102.992,1161.62,103.158,1161.464,103.131Z" transform="translate(-1062.803 -66.173)"/><path class="at" d="M1164.493,159.058a9.546,9.546,0,0,1-2.566-2.045c-.927-1.152-1.79-2.475-3.465-2.954.086-.295.591-.491.533-.94l.444-.482c1.548.23,2.339,1.5,3.307,2.487.731.74,1.343,1.6,2.065,2.367.236.249.512.259.751.411A3.751,3.751,0,0,1,1164.493,159.058Z" transform="translate(-1063.933 -105.662)"/><path class="au" d="M1176.71,131.764c.018.149-.019.38.064.437,1.851,1.263,2.755,3.431,4.557,4.743.6.437-.083.537-.282.752-.106.69-.381.923-.969.37-1.038-.977-2.1-1.928-3.176-2.864-.382-.333-.958-.494-1.086-1.086-.115-.354-.813.045-.729-.563Z" transform="translate(-1075.486 -91.153)"/><path class="av" d="M1152.1,164.458c.374.817.694-.058,1.125-.075-.17.545-.718.992-.265,1.575.511-.082-.1-.56.324-.711,1.184,1.122,2.051,2.649,3.61,3.443-.139.27-.482,0-.674.248.347.262.906-.1,1.162.374a3.6,3.6,0,0,1-4.325-.932A3.457,3.457,0,0,1,1152.1,164.458Z" transform="translate(-1059.332 -113.827)"/><path class="aw" d="M1167.79,154.9c-.369.088-.57.3-.994-.243-1.241-1.6-2.728-3-4.088-4.513-.3-.333-1.014.3-1.041-.508a5.321,5.321,0,0,1,1.169-1.317,19.067,19.067,0,0,0,2.689,2.747,2.3,2.3,0,0,1,.383.4,5.779,5.779,0,0,0,2.868,2.311Z" transform="translate(-1066.16 -102.659)"/><path class="ax" d="M1218.768,99.753a4.192,4.192,0,0,1,.234,2.689c-.367.42-.307.148-.857.027-1.215-.269-1.338-1.572-2.29-2.052a4.106,4.106,0,0,1-1.208-1.185c-.333-.419-.679-.875.065-1.27.136-.072-.221-.413.175-.427.46.043.961-.292,1.375.152l-.015-.013A3.145,3.145,0,0,1,1218.768,99.753Z" transform="translate(-1102.725 -67.304)"/><path class="ay" d="M1185.444,125.778c1.023.36,1.555,1.276,2.253,2a6.766,6.766,0,0,1,.646.787c.609.864,2.007,1.2,1.757,2.657-.025.143.265.34.409.512l-.2.239c-.315-.023-.531-.688-.935-.144-.1.141-.134.145-.284-.019-1.242-1.351-2.493-2.694-3.782-4C1184.471,126.964,1184.455,126.785,1185.444,125.778Z" transform="translate(-1082.164 -86.992)"/><path class="az" d="M1163.015,97.166c-1.325.53-1.872-.621-2.486-1.31a14.753,14.753,0,0,0-2.054-2.161.776.776,0,0,1-.306-.908c-.32.55-.907.624-1.316.956a.857.857,0,0,1-.488-.516,10.411,10.411,0,0,1,1.829-2.045,1.367,1.367,0,0,1,1.269.784,10.15,10.15,0,0,0,2.508,2.71A2.184,2.184,0,0,1,1163.015,97.166Z" transform="translate(-1062.474 -62.943)"/><path class="ba" d="M1174.1,147.325c-.948-1.409-2.366-2.376-3.447-3.662-.316-.377-.945-.523-.765-1.25a3.478,3.478,0,0,0-1.151-.468c-.252-.054-.3-.15-.319-.344a5.542,5.542,0,0,1,1.381-1.556c.373.055-.412.719.389.669.353-.022.531.659.826,1a23.438,23.438,0,0,0,3.377,2.952,1.747,1.747,0,0,1,.731,1.632C1174.813,146.669,1174.684,147.223,1174.1,147.325Z" transform="translate(-1070.853 -96.91)"/><path class="ax" d="M1207.169,112.808a27.382,27.382,0,0,1-4.565-4.481c-.4-.527-1.06-.893-.715-1.711l.443-.492c.379.733,1.245.8,1.8,1.344,1.395,1.366,2.7,2.812,4.083,4.189A4.2,4.2,0,0,1,1207.169,112.808Z" transform="translate(-1094.053 -73.33)"/><path class="bb" d="M1087.769,116.033c.135.217.178.607.456.592.9-.049,1.164.692,1.419,1.238.6,1.29,1.8,1.888,2.768,2.742l-1.248.3c.2.267.62.082.735.425A3.931,3.931,0,0,1,1087.769,116.033Z" transform="translate(-1014.623 -80.218)"/><path class="bc" d="M1167.185,94.6a3.668,3.668,0,0,0-1.658-2.606,6.138,6.138,0,0,1-1.879-2.047,4.1,4.1,0,0,0-1.285-1.331l.722-.825c.535-.1,1.4-.9,1.192.584-.043.306.229.568.5.713a7.93,7.93,0,0,1,1.893,1.788,4.764,4.764,0,0,0,1.722,1.437,1.049,1.049,0,0,1,.59.911,1.094,1.094,0,0,1-.583.713c-.426.183-.5,1.012-1.215.664Z" transform="translate(-1066.644 -60.374)"/><path class="ax" d="M1209.433,109.186c-.2-.036-.413.226-.6-.053a41.869,41.869,0,0,0-4.122-4.39c-.36-.39-1.258-.209-1.16-1.09l.934-1.084a1.569,1.569,0,0,1,1.336.756c.67,1.173,1.837,1.9,2.546,3.036a6.258,6.258,0,0,0,1.863,1.928Z" transform="translate(-1095.267 -70.859)"/><path class="bd" d="M1191.437,117.621a2.94,2.94,0,0,1,1.142,1.03,37.43,37.43,0,0,0,3.693,3.918c.238.236.76.471.15.873l.518.1-.2.236c-.551-.058-.783.369-1.112.8-.555-1.961-2.248-2.908-3.429-4.28-.519-.6-1.022-1.22-1.532-1.83A2.315,2.315,0,0,1,1191.437,117.621Z" transform="translate(-1086.316 -81.322)"/><path class="be" d="M1180.283,145.484l-.718-1.384c-1-1.359-2.266-2.491-3.3-3.819-.292-.375-.687-.87.1-1.2a4.118,4.118,0,0,1,.428-.072c.222.831.986,1.2,1.562,1.652.841.659,1.525,1.467,2.335,2.143.3.254.672.628.925-.073.028.5.415.444.742.483l-1.881,2.262C1180.419,145.58,1180.353,145.588,1180.283,145.484Z" transform="translate(-1076.056 -96.187)"/><path class="bf" d="M1178.866,21a.957.957,0,0,1,.829.268c1.1,1.284,2.189,2.57,3.322,3.9.622.423-.515-1.542.6-.53a3.1,3.1,0,0,1-1.266,1.852c-.207,0-.528.287-.417-.3.081-.43-.127-.675-.634-1.042-1.288-.932-2.753-1.909-3.122-3.7a1.3,1.3,0,0,1,.684-.456Z" transform="translate(-1077.64 -14.16)"/><path class="bg" d="M1170.631,90.6c-1.714-1.013-2.77-2.774-4.408-3.87a1.211,1.211,0,0,1-.513-1.572c-.336-.521-.611.929-.978.009a6.311,6.311,0,0,1,1.342-1.453c-.054.992.966,1.312,1.306,2.089.438,1,1.471,1.533,2.256,2.249a3.4,3.4,0,0,1,.795,1.185c0,.253.223.433.228.684l.284.256Z" transform="translate(-1068.291 -57.752)"/><path class="ax" d="M1212.37,106.052c-1.4,0-1.65-1.359-2.39-2.106-1.154-1.165-2.019-2.608-3.355-3.614l.918-.9a.209.209,0,0,1,.28-.053,52.769,52.769,0,0,0,4.127,4.276,3.689,3.689,0,0,1,.838,1.923Z" transform="translate(-1097.412 -68.622)"/><path class="ax" d="M1215.4,104.45c-.594-1.437-1.93-2.27-2.81-3.464a16.381,16.381,0,0,0-1.539-1.53,2.194,2.194,0,0,1-.67-1.128,1.218,1.218,0,0,1,1.6-.474c.022.031.068.068.063.092-.413,1.712,1.136,2.112,1.976,3,.547.578.988,1.255,1.486,1.881.4.5.5-.249.8-.2A2.57,2.57,0,0,1,1215.4,104.45Z" transform="translate(-1100.022 -67.49)"/><path class="bh" d="M1172.971,138.023c-.349.338-.267.639.05.954a15.572,15.572,0,0,0,2.141,2.239c.589.4.617,1.24,1,1.826a9.981,9.981,0,0,1-3.919-3.406c-.581-.836-.843-.108-1.233-.18,0-.53.648-.685.59-1.191a1.8,1.8,0,0,1,.657-.735.315.315,0,0,0,.457.149c.124-.055.252-.37.4-.057C1173.158,137.714,1173.024,137.887,1172.971,138.023Z" transform="translate(-1072.658 -95.13)"/><path class="ag" d="M1177.942,47.985c-1-.406.156-1.1-.216-1.595.363-.415,1.071-.141,1.37-.685l.747.26a4.893,4.893,0,0,1-1.209,1.336c-.117.181-.52.06-.458.431Z" transform="translate(-1077.184 -31.332)"/><path class="ax" d="M1223.279,100.151a5.893,5.893,0,0,0-2.521-2.079c.752-.217,1.273.413,1.858.532C1223.855,98.854,1222.985,99.692,1223.279,100.151Z" transform="translate(-1107.236 -67.701)"/><path class="bi" d="M1121.215,148.253c.363-.011.682.211,1.093.087.33-.1.645.278.375.547-.529.528.159.782.15,1.171A3.092,3.092,0,0,1,1121.215,148.253Z" transform="translate(-1038.042 -102.614)"/><path class="b" d="M989.6,110.822c1.005,1.005,1.005,1.005.42,2.281A7.84,7.84,0,0,1,989.6,110.822Z" transform="translate(-946.553 -76.595)"/><path class="ax" d="M1211.46,97.064a2.289,2.289,0,0,0-1.6.474q-.112-.017-.226-.025c.4-.73,1.139-.721,1.82-.773.247-.019.5.123.687-.152h0c.4-.013.764.031.9.5Z" transform="translate(-1099.505 -66.699)"/><path class="az" d="M1176.823,109.3c.545.035.726-.6,1.215-.664a7.177,7.177,0,0,1-1.639,1.82C1175.839,109.814,1176.818,109.735,1176.823,109.3Z" transform="translate(-1076.281 -75.076)"/><path class="b" d="M985.8,89.113c1.038.677.359,1.662.448,2.508A8.694,8.694,0,0,1,985.8,89.113Z" transform="translate(-943.91 -61.505)"/><path class="b" d="M1014.966,108.946c.425-.433.136-.988.255-1.474a6.7,6.7,0,0,1,.407,2.155Z" transform="translate(-964.186 -74.267)"/><path class="am" d="M1136.272,154.578c.333-.28.611-.7,1.152-.438C1137.157,154.592,1136.707,154.565,1136.272,154.578Z" transform="translate(-1048.508 -106.647)"/><path class="ax" d="M1211.262,95.374c-.2.4-.512.258-.809.157C1210.673,95.349,1210.868,95.077,1211.262,95.374Z" transform="translate(-1100.073 -65.765)"/><path class="b" d="M985.26,83.041q0,.815,0,1.63A1.786,1.786,0,0,1,985.26,83.041Z" transform="translate(-943.399 -57.284)"/><path class="ax" d="M1217.121,95.127c-.193-.111-.447-.212-.257-.5a.287.287,0,0,1,.485-.027c.24.289-.2.325-.227.522Z" transform="translate(-1104.482 -65.239)"/><path class="ab" d="M1172.882,116.954a1.022,1.022,0,0,1,.769-.839A1.423,1.423,0,0,1,1172.882,116.954Z" transform="translate(-1073.956 -80.275)"/><path class="bd" d="M1193.88,115.175a.637.637,0,0,1-.644.731A1.621,1.621,0,0,1,1193.88,115.175Z" transform="translate(-1088.105 -79.621)"/><path class="au" d="M1181.089,129.341a.621.621,0,0,1-.663.737A1.793,1.793,0,0,1,1181.089,129.341Z" transform="translate(-1079.2 -89.468)"/><path class="g" d="M1121.884,75.488a.617.617,0,0,1-.694.72Z" transform="translate(-1038.024 -52.034)"/><path class="f" d="M1129.9,67.14l-.486-.023a1.9,1.9,0,0,1,.681-.75A1.2,1.2,0,0,1,1129.9,67.14Z" transform="translate(-1043.742 -45.694)"/><path class="an" d="M1179.121,51.343c-.082-.11-.254-.293-.232-.32.185-.231.458-.058.69-.112C1179.5,51.136,1179.388,51.32,1179.121,51.343Z" transform="translate(-1078.13 -34.942)"/><path class="c" d="M1178,239.008c-.4-7-3.653-12.106-10.338-14.718a24.735,24.735,0,0,0-11.783-1.264,18.735,18.735,0,0,0-8.543,2.911c-4.719,3.132-6.836,7.716-7.057,13.226-.265,6.605,1.849,12.122,7.774,15.663,3.387,2.024,7.161,2.636,11.456,2.687.545-.035,1.5-.063,2.441-.162a18.676,18.676,0,0,0,10.46-4.047C1176.833,249.559,1178.311,244.582,1178,239.008Zm-10.827,9.295a8.339,8.339,0,0,1-8.05,5.133,8.063,8.063,0,0,1-7.953-5.077,20.241,20.241,0,0,1-.056-16.268,8.093,8.093,0,0,1,7.99-5.2,8.329,8.329,0,0,1,8.063,5.115,22.1,22.1,0,0,1,.006,16.293Z" transform="translate(-1051.274 -154.455)"/><path class="b" d="M992.12,110.308c-.521-.043-.56-.479-.825-.877.758,0,.563.623.826.877Z" transform="translate(-947.732 -75.628)"/><path class="b" d="M1094.226,78.81c-.052.07-.1.2-.173.221-.248.058-.329-.141-.361-.328-.014-.084.067-.264.1-.263C1094.01,78.441,1094.113,78.61,1094.226,78.81Z" transform="translate(-1018.909 -54.086)"/><path class="b" d="M1014.5,109.225a1.636,1.636,0,0,1-.084-1.56C1014.456,108.33,1014.476,108.7,1014.5,109.225Z" transform="translate(-963.699 -74.401)"/><path class="b" d="M988.878,97.229a.63.63,0,0,1-.038-.749A.641.641,0,0,1,988.878,97.229Z" transform="translate(-945.953 -66.626)"/><path class="bj" d="M1194.409,67.013c-.157.123.458.845-.321.453-.453-.228-.956-.477-1.077-1.092a.88.88,0,0,0-.683-.7c-.551-.128-.776-.545-1.029-.978-.319-.546-.554-1.177-1.213-1.442-1.012-.408-.875-.831-.016-1.263a1.167,1.167,0,0,1,1.493.636,9.516,9.516,0,0,0,1.687,1.939A3.014,3.014,0,0,1,1194.409,67.013Z" transform="translate(-1085.422 -42.602)"/><path class="ab" d="M1167.1,121.29c-.309-.327-.639.883-.917,0-.073-.23-.071-.563.275-.648.565-.138.611.259.635.66Z" transform="translate(-1069.276 -83.399)"/><path class="bc" d="M1183.246,102.366c-.246-.172-.635-.3-.228-.684.286.253.543-.039.835-.065C1183.845,102.048,1183.523,102.188,1183.246,102.366Z" transform="translate(-1080.879 -70.197)"/><path class="ag" d="M1182.674,42.321v-.457l.8-.7A1.56,1.56,0,0,1,1182.674,42.321Z" transform="translate(-1080.763 -28.176)"/><path class="x" d="M1170.694,24.856l.877-.611c-.486.932-.486.932-.878.611Z" transform="translate(-1072.435 -16.414)"/><path class="t" d="M1178.248,20.627a.687.687,0,0,1-.684.456c-.024-.174-.393-.226-.229-.417A.647.647,0,0,1,1178.248,20.627Z" transform="translate(-1077.023 -13.782)"/><path class="q" d="M1122.762,107.984a1.53,1.53,0,0,1,.228-.912l.511.108C1123.377,107.56,1123.243,107.93,1122.762,107.984Z" transform="translate(-1039.112 -73.989)"/><path class="ab" d="M1171.414,114.005a3.067,3.067,0,0,1,.749-1.489C1172.188,113.332,1172.188,113.332,1171.414,114.005Z" transform="translate(-1072.936 -77.773)"/></svg>