<svg xmlns="http://www.w3.org/2000/svg" width="126.291" height="49.935" viewBox="0 0 126.291 49.935"><defs><style>.a{fill:#484fff;}</style></defs><path class="a" d="M1360.337-159.308c-4.212,0-7.948-.182-11.658.043-5.413.329-7.16-2.325-6.374-7.326h28.942c0,2.32.052,4.7-.044,7.076-.019.464-.567.945-.945,1.349Q1362.142-149.47,1354-140.8c-.46.491-.905,1-1.688,1.86h19.476v7.518h-30.68c0-2.134-.083-4.268.054-6.388.037-.584.673-1.177,1.13-1.68q8.255-9.081,16.541-18.135C1359.219-158.038,1359.588-158.464,1360.337-159.308Z" transform="translate(-1341.088 167.375)"/><path class="a" d="M1639.227-166.781v9.149c-1.129,0-2.246-.008-3.362,0-4.814.038-7.3,2.49-7.31,7.252-.015,5.574,0,11.147,0,16.721v2.143h-8.99a13.813,13.813,0,0,1-.134-1.468c.085-6.132.094-12.267.3-18.4.306-9.049,6.221-14.935,15.313-15.393C1636.365-166.838,1637.694-166.781,1639.227-166.781Z" transform="translate(-1512.936 167.507)"/><path class="a" d="M1554.025-157.179c-1.387-5.378-4.9-8.995-10.394-9.87a34.623,34.623,0,0,0-10.944.057c-5.416.9-8.853,4.473-10.167,9.816a27.011,27.011,0,0,0-.782,6.194c-.077,10.451-.037,20.9-.03,31.356,0,.49.072.979.125,1.649,1.224,0,2.355,0,3.485,0,4-.015,5.315-1.273,5.482-5.306.052-1.265.009-2.534.01-3.8v-8.792c1.04.9,1.969,1.763,2.958,2.55,5.255,4.185,16.92,2.871,19.908-6.982A30.8,30.8,0,0,0,1554.025-157.179ZM1544.977-144a6.353,6.353,0,0,1-6.274,4.878,6.458,6.458,0,0,1-6.833-4.109,16.71,16.71,0,0,1-.149-12.759,6.447,6.447,0,0,1,6.586-4.227c3.1.062,5.425,1.525,6.385,4.479a51.426,51.426,0,0,1,1.268,6.258A51.435,51.435,0,0,1,1544.977-144Z" transform="translate(-1452.594 167.91)"/><path class="a" d="M1461.939-158.1c-.017-4.9-2.288-8.007-6.992-9.42a26.844,26.844,0,0,0-12.638-.67c-5.532,1-8.443,4.105-9.306,9.8,2.69,0,5.229.018,7.768-.019a1.858,1.858,0,0,0,1.164-.422c2.335-2.232,6.727-2.927,9.432-1.248a3.436,3.436,0,0,1,1.586,2.342,3.532,3.532,0,0,1-1.6,2.3,7.864,7.864,0,0,1-2.869.9c-3.4.7-6.93,1.011-10.2,2.09-4.551,1.5-6.728,5.414-6.5,10.47a9.912,9.912,0,0,0,7.428,9.5,22.406,22.406,0,0,0,12.779-.311c6.575-1.932,9.847-6.315,9.937-13.141C1461.978-149.984,1461.953-154.04,1461.939-158.1Zm-8.889,13.237c-.637,4.211-5.66,7.06-9.755,5.678-2.928-.988-3.663-5.255-1.188-7.3a7.657,7.657,0,0,1,2.672-1.354c2.719-.8,5.475-1.468,8.313-2.214A35.74,35.74,0,0,1,1453.05-144.859Z" transform="translate(-1397.072 168.642)"/></svg>