<svg xmlns="http://www.w3.org/2000/svg" width="64.967" height="102.048" viewBox="0 0 64.967 102.048"><defs><style>.a{opacity:0.164;}.b,.c{fill:#156374;}.c{stroke:rgba(0,0,0,0);stroke-miterlimit:10;}</style></defs><g class="a"><path class="b" d="M193.345,232.1c-9.67,0-19.34-.026-29.01.029-1.366.008-1.844-.274-1.82-1.755q.141-8.72,0-17.442c-.026-1.521.52-1.744,1.846-1.73,5.688.064,11.376-.009,17.064.055,1.271.014,1.733-.251,1.714-1.634-.08-5.877-.069-11.756,0-17.633.013-1.181-.311-1.475-1.473-1.462-5.814.061-11.63-.012-17.443.059-1.293.016-1.716-.266-1.7-1.639.081-5.877.07-11.755.006-17.632-.013-1.26.227-1.728,1.623-1.722q19.054.085,38.11,0c1.335,0,1.682.376,1.676,1.694-.048,12.64.009,25.281-.073,37.92-.01,1.7.449,2.09,2.09,2.059,5.623-.106,11.249,0,16.874-.072,1.347-.018,1.676.391,1.66,1.7-.07,5.813-.078,11.629,0,17.442.02,1.4-.312,1.808-1.757,1.8C212.938,232.069,203.141,232.1,193.345,232.1Z" transform="translate(-162.158 -169.594)"/><path class="b" d="M185.078,268.573c1.259-.794,2.114-1.441,3.058-1.907a5.19,5.19,0,0,1,6.646,1.309c.682.818.976.359,1.457-.024a7.5,7.5,0,0,1,4.641-1.888c3.466-.045,5.468,1.793,5.577,5.269.073,2.336.04,4.676.006,7.013-.013.931.066,1.595,1.283,1.513,1.924-.13,1.115,1.386,1.259,2.282.172,1.071-.368,1.424-1.424,1.392-2.083-.064-4.17-.04-6.255-.009-.862.013-1.617-.1-1.418-1.181.164-.884-.815-2.366,1.043-2.475.9-.052,1.222-.37,1.207-1.245-.039-2.084.053-4.173-.055-6.253-.1-1.993-1.312-2.733-3.265-2.174-2.374.678-2.924,1.4-2.925,3.844,0,1.137-.01,2.275,0,3.412.013,1.181-.452,2.455,1.677,2.529,1.166.041.408,1.577.575,2.422.122.614-.068,1.113-.877,1.108-2.338-.016-4.676-.021-7.014.006-1.07.013-1.113-.731-.992-1.41.141-.792-.683-2.169.9-2.216,1.325-.04,1.367-.725,1.351-1.7-.033-1.958.051-3.92-.04-5.875-.09-1.919-1.221-2.651-3.1-2.165-2.426.627-3.105,1.48-3.106,3.9,0,1.264.014,2.527,0,3.791-.017,1.078-.206,2,1.508,2.1,1.32.079.523,1.536.689,2.365.144.714-.13,1.21-1.005,1.2-2.338-.023-4.676-.018-7.014,0-1.419.009-.994-1.06-.973-1.766.023-.744-.534-2.009,1.022-1.879,1.324.111,1.6-.482,1.562-1.654-.069-2.209-.051-4.422-.006-6.633.021-1.027-.111-1.706-1.4-1.619-1.994.136-1-1.438-1.185-2.288-.24-1.072.323-1.46,1.374-1.391.943.062,1.895.017,2.843.01C184.1,266.282,185.774,265.891,185.078,268.573Z" transform="translate(-165.482 -189.771)"/><path class="c" d="M8.474,25.31A9.73,9.73,0,0,1,2.4,23.171a2.675,2.675,0,0,1-.631-3.743,2.019,2.019,0,0,1,1.77-1.035,2.968,2.968,0,0,1,1.057.214c.523.2,1.154.559,1.188,1.124A2.032,2.032,0,0,0,6.5,21.372a2.432,2.432,0,0,0,1.479.358c.287,0,.588-.019.878-.038H8.87a3.465,3.465,0,0,0,3.459-2.711,6.581,6.581,0,0,0-.029-3.522,7.8,7.8,0,0,1-4.633,1.675,7.1,7.1,0,0,1-1.992-.3,7.657,7.657,0,0,1-3.627-2.186,7.834,7.834,0,0,1-1.8-3.778A10.371,10.371,0,0,1,.375,5.818a8.311,8.311,0,0,1,2.9-4.139A7.219,7.219,0,0,1,7.811,0a8.266,8.266,0,0,1,3.641.916c.1.051.21.112.311.171a1.515,1.515,0,0,0,.653.267c.27,0,.434-.267.517-.839.018-.126.678-.21,1.027-.219.111,0,.225,0,.349,0,.274,0,.548.008.853.017.283.008.575.016.86.016A8.732,8.732,0,0,0,17.177.259a4.752,4.752,0,0,1,.618-.045,1.622,1.622,0,0,1,1.276.445,2.472,2.472,0,0,1,.344,1.952c-.089.831-.206,1.377-.988,1.377a2.144,2.144,0,0,1-.281-.02,2.419,2.419,0,0,0-.315-.022.941.941,0,0,0-.7.238,1.765,1.765,0,0,0-.3,1.268c.015,1.979.012,3.989.01,5.933,0,1.9-.005,3.874.009,5.812a9.444,9.444,0,0,1-.876,4.438A5.954,5.954,0,0,1,12.61,24.52,11.9,11.9,0,0,1,8.474,25.31ZM8.98,3.829a4.936,4.936,0,0,0-2.612.649A5.224,5.224,0,0,0,4.582,10.07a4.051,4.051,0,0,0,4.04,3.321c.1,0,.186,0,.263,0a3.157,3.157,0,0,0,2.843-1.108c.547-.768.792-2,.792-4a3.283,3.283,0,0,1-.009-1.261,2.362,2.362,0,0,0-.578-2.312A4.579,4.579,0,0,0,8.98,3.829Z" transform="translate(45.018 76.238)"/><path class="b" d="M170.173,273.453c0,1.641.066,3.285-.021,4.921-.066,1.23.346,1.789,1.6,1.589,1.671-.268,1.574.822,1.63,1.962.063,1.289-.33,1.79-1.7,1.741-2.71-.1-5.428-.107-8.137,0-1.43.057-1.53-.674-1.472-1.737.052-.967-.283-2.238,1.4-1.951,2.173.372,2.7-.587,2.5-2.586a32.664,32.664,0,0,1-.013-5.106c.071-1.286-.342-1.676-1.609-1.4-.639.138-1.841.879-1.717-.684.081-1.026-.941-2.685,1.291-2.864a36.15,36.15,0,0,0,4.486-.666c1.5-.312,1.872.271,1.785,1.672C170.093,270.041,170.172,271.75,170.173,273.453Z" transform="translate(-162.064 -189.894)"/></g><path class="b" d="M193.345,232.1c-9.67,0-19.34-.026-29.01.029-1.366.008-1.844-.274-1.82-1.755q.141-8.72,0-17.442c-.026-1.521.52-1.744,1.846-1.73,5.688.064,11.376-.009,17.064.055,1.271.014,1.733-.251,1.714-1.634-.08-5.877-.069-11.756,0-17.633.013-1.181-.311-1.475-1.473-1.462-5.814.061-11.63-.012-17.443.059-1.293.016-1.716-.266-1.7-1.639.081-5.877.07-11.755.006-17.632-.013-1.26.227-1.728,1.623-1.722q19.054.085,38.11,0c1.335,0,1.682.376,1.676,1.694-.048,12.64.009,25.281-.073,37.92-.01,1.7.449,2.09,2.09,2.059,5.623-.106,11.249,0,16.874-.072,1.347-.018,1.676.391,1.66,1.7-.07,5.813-.078,11.629,0,17.442.02,1.4-.312,1.808-1.757,1.8C212.938,232.069,203.141,232.1,193.345,232.1Z" transform="translate(-162.158 -169.594)"/><path class="b" d="M185.078,268.573c1.259-.794,2.114-1.441,3.058-1.907a5.19,5.19,0,0,1,6.646,1.309c.682.818.976.359,1.457-.024a7.5,7.5,0,0,1,4.641-1.888c3.466-.045,5.468,1.793,5.577,5.269.073,2.336.04,4.676.006,7.013-.013.931.066,1.595,1.283,1.513,1.924-.13,1.115,1.386,1.259,2.282.172,1.071-.368,1.424-1.424,1.392-2.083-.064-4.17-.04-6.255-.009-.862.013-1.617-.1-1.418-1.181.164-.884-.815-2.366,1.043-2.475.9-.052,1.222-.37,1.207-1.245-.039-2.084.053-4.173-.055-6.253-.1-1.993-1.312-2.733-3.265-2.174-2.374.678-2.924,1.4-2.925,3.844,0,1.137-.01,2.275,0,3.412.013,1.181-.452,2.455,1.677,2.529,1.166.041.408,1.577.575,2.422.122.614-.068,1.113-.877,1.108-2.338-.016-4.676-.021-7.014.006-1.07.013-1.113-.731-.992-1.41.141-.792-.683-2.169.9-2.216,1.325-.04,1.367-.725,1.351-1.7-.033-1.958.051-3.92-.04-5.875-.09-1.919-1.221-2.651-3.1-2.165-2.426.627-3.105,1.48-3.106,3.9,0,1.264.014,2.527,0,3.791-.017,1.078-.206,2,1.508,2.1,1.32.079.523,1.536.689,2.365.144.714-.13,1.21-1.005,1.2-2.338-.023-4.676-.018-7.014,0-1.419.009-.994-1.06-.973-1.766.023-.744-.534-2.009,1.022-1.879,1.324.111,1.6-.482,1.562-1.654-.069-2.209-.051-4.422-.006-6.633.021-1.027-.111-1.706-1.4-1.619-1.994.136-1-1.438-1.185-2.288-.24-1.072.323-1.46,1.374-1.391.943.062,1.895.017,2.843.01C184.1,266.282,185.774,265.891,185.078,268.573Z" transform="translate(-165.482 -189.771)"/><path class="c" d="M8.474,25.31A9.73,9.73,0,0,1,2.4,23.171a2.675,2.675,0,0,1-.631-3.743,2.019,2.019,0,0,1,1.77-1.035,2.968,2.968,0,0,1,1.057.214c.523.2,1.154.559,1.188,1.124A2.032,2.032,0,0,0,6.5,21.372a2.432,2.432,0,0,0,1.479.358c.287,0,.588-.019.878-.038H8.87a3.465,3.465,0,0,0,3.459-2.711,6.581,6.581,0,0,0-.029-3.522,7.8,7.8,0,0,1-4.633,1.675,7.1,7.1,0,0,1-1.992-.3,7.657,7.657,0,0,1-3.627-2.186,7.834,7.834,0,0,1-1.8-3.778A10.371,10.371,0,0,1,.375,5.818a8.311,8.311,0,0,1,2.9-4.139A7.219,7.219,0,0,1,7.811,0a8.266,8.266,0,0,1,3.641.916c.1.051.21.112.311.171a1.515,1.515,0,0,0,.653.267c.27,0,.434-.267.517-.839.018-.126.678-.21,1.027-.219.111,0,.225,0,.349,0,.274,0,.548.008.853.017.283.008.575.016.86.016A8.732,8.732,0,0,0,17.177.259a4.752,4.752,0,0,1,.618-.045,1.622,1.622,0,0,1,1.276.445,2.472,2.472,0,0,1,.344,1.952c-.089.831-.206,1.377-.988,1.377a2.144,2.144,0,0,1-.281-.02,2.419,2.419,0,0,0-.315-.022.941.941,0,0,0-.7.238,1.765,1.765,0,0,0-.3,1.268c.015,1.979.012,3.989.01,5.933,0,1.9-.005,3.874.009,5.812a9.444,9.444,0,0,1-.876,4.438A5.954,5.954,0,0,1,12.61,24.52,11.9,11.9,0,0,1,8.474,25.31ZM8.98,3.829a4.936,4.936,0,0,0-2.612.649A5.224,5.224,0,0,0,4.582,10.07a4.051,4.051,0,0,0,4.04,3.321c.1,0,.186,0,.263,0a3.157,3.157,0,0,0,2.843-1.108c.547-.768.792-2,.792-4a3.283,3.283,0,0,1-.009-1.261,2.362,2.362,0,0,0-.578-2.312A4.579,4.579,0,0,0,8.98,3.829Z" transform="translate(45.018 76.238)"/><path class="b" d="M170.173,273.453c0,1.641.066,3.285-.021,4.921-.066,1.23.346,1.789,1.6,1.589,1.671-.268,1.574.822,1.63,1.962.063,1.289-.33,1.79-1.7,1.741-2.71-.1-5.428-.107-8.137,0-1.43.057-1.53-.674-1.472-1.737.052-.967-.283-2.238,1.4-1.951,2.173.372,2.7-.587,2.5-2.586a32.664,32.664,0,0,1-.013-5.106c.071-1.286-.342-1.676-1.609-1.4-.639.138-1.841.879-1.717-.684.081-1.026-.941-2.685,1.291-2.864a36.15,36.15,0,0,0,4.486-.666c1.5-.312,1.872.271,1.785,1.672C170.093,270.041,170.172,271.75,170.173,273.453Z" transform="translate(-162.064 -189.894)"/></svg>