<svg xmlns="http://www.w3.org/2000/svg" width="175.173" height="49.465" viewBox="0 0 175.173 49.465"><defs><style>.a{fill:#1376bc;}.b{fill:#4d9740;}</style></defs><g transform="translate(0)"><path class="a" d="M1830.372,240.618c-2,1.595-3.516,2.914-5.145,4.073-5.132,3.652-14.466,2.841-15.21-6.612-.446-5.676-.107-11.355-.226-17.031-.054-2.557.217-5.223-3.175-6.069-.6-.15-.705-.745-.6-1.293.135-.737.771-.572,1.257-.577,2.205-.019,4.416.089,6.613-.042,1.65-.1,2.085.485,2.071,2.073-.057,6.38-.007,12.76.068,19.14a16.917,16.917,0,0,0,.5,3.879,5.5,5.5,0,0,0,7.242,4.178c3.276-.895,6.245-4.175,6.338-7.578.142-5.149,0-10.307-.072-15.461-.026-1.968-.636-3.623-2.832-4.2a1.127,1.127,0,0,1-.991-1.318c.127-.967.909-.563,1.442-.676a1.216,1.216,0,0,1,.264,0c2.636.047,6.056-.88,7.693.411,1.723,1.358.509,4.9.547,7.48.091,6.117.062,12.236.042,18.355-.008,2.309.564,4.181,3.158,4.739.71.153,1.083.484,1.063,1.234-.031,1.149-.921.828-1.54.871-2.11.147-4.232.175-6.336.383-1.725.17-2.434-.376-2.191-2.16A31.36,31.36,0,0,0,1830.372,240.618Z" transform="translate(-1665.239 -212.447)"/><path class="a" d="M1761.575,218.959c1.8-1.683,3.015-2.929,4.344-4.049,2.885-2.431,6.324-2.879,9.948-2.559.176.015.417-.039.518.055,1.832,1.72.512,3.908.828,5.861.12.741.434,1.96-.932,2.034-1.414.078-2.836.457-3.879-1.318-1.393-2.37-3.842-2.773-6.143-1.256-2.541,1.676-4.222,3.951-4.225,7.141q-.008,6.95,0,13.9c0,2.419.38,4.591,3.305,5.189a1.067,1.067,0,0,1,.931,1.335c-.119.761-.746.6-1.229.6q-5.69.022-11.379,0c-.557,0-1.323.237-1.421-.711a1.08,1.08,0,0,1,.761-1.236c2.6-.755,2.826-2.811,2.89-5q.289-9.963-.019-19.924c-.065-2.039-.681-3.619-2.913-4.063-.806-.161-1.336-.5-1.232-1.371.129-1.087,1.041-.719,1.663-.761,2.2-.15,4.409-.172,6.6-.376,1.682-.157,2.221.466,1.964,2.076C1761.761,215.792,1761.731,217.079,1761.575,218.959Z" transform="translate(-1639.82 -212.184)"/><path class="b" d="M1572.446,212.976c-5.993.178-11.98-.53-17.949-.4-7.508.163-12.012,5.707-11.187,12.931a11.331,11.331,0,0,0,4.828,8.13c-1.907,1.87-4.042,3.352-4.682,6.032-.69,2.891.822,4.752,3.02,6.373-.984.711-1.8,1.225-2.529,1.841-3.129,2.647-3.661,6.639-1.272,9.557,1.582,1.931,3.8,2.715,6.142,3.328,1.308.342,2.792.044,3.927,1.022h1.589c1.334-1.077,2.855-.314,4.287-.43h0a19.1,19.1,0,0,0,5.946-1.1c5.722-1.876,8.575-6.167,7.8-11.758-.6-4.354-3.851-6.563-10.087-6.772-3.611-.121-7.228-.113-10.839-.246-2.152-.079-3.6-1.02-3.24-3.437a3.62,3.62,0,0,1,4.243-3.077,24.691,24.691,0,0,0,6.6.044c6.337-.79,10.031-5.024,10.175-11.342.061-2.666-1.017-4.965-2.183-7.52,1.93.1,3.516.141,5.091.29,1.159.11,1.667-.325,1.576-1.457C1573.634,214.107,1574.085,212.927,1572.446,212.976ZM1552.9,246.7c2.9.085,5.807.078,8.706.223,2.425.122,4.509.816,5.091,3.609a6,6,0,0,1-2.982,6.662,13.015,13.015,0,0,1-7.117,1.509,16.548,16.548,0,0,1-5.734-.7c-3.2-1.065-4.577-3.45-3.921-6.734A5.5,5.5,0,0,1,1552.9,246.7Zm9.594-19.379c-.918,3.632-2.956,5.181-6.31,5.135-3.266-.044-5.367-1.764-6.268-5.273a32.754,32.754,0,0,1-.528-3.605c.107-5.425,2.378-8.422,6.552-8.511a6,6,0,0,1,6.154,4.021A13.444,13.444,0,0,1,1562.5,227.317Z" transform="translate(-1541.186 -212.324)"/><path class="b" d="M1637.692,218.162c-3.086-4.675-9.316-6.947-15.649-5.708a14.123,14.123,0,0,0-11.723,11.632,18.154,18.154,0,0,0-.461,5.719c0,.873-.059,1.75.01,2.617.535,6.755,3.8,11.412,9.163,13.1,6.6,2.076,13.835.4,17.487-4.052C1641.122,235.857,1641.707,224.244,1637.692,218.162Zm-4.015,11.307a21.462,21.462,0,0,1-1.5,9.175c-1.36,3.074-3.6,4.991-7.063,4.984a7.091,7.091,0,0,1-6.922-4.78,25.509,25.509,0,0,1-.266-18.89,7.059,7.059,0,0,1,7.032-5c3.417.052,5.73,1.916,7.07,5.007A22.263,22.263,0,0,1,1633.677,229.469Z" transform="translate(-1573.324 -212.118)"/><path class="b" d="M1709.454,218.194c-3.072-4.684-9.3-6.974-15.633-5.751a14.129,14.129,0,0,0-11.753,11.6,18.008,18.008,0,0,0-.472,5.717c0,.873-.057,1.75.009,2.617.527,6.847,3.893,11.577,9.374,13.22,6.654,1.994,13.828.221,17.419-4.305C1712.87,235.658,1713.394,224.2,1709.454,218.194Zm-4.037,10.826c.036,3.689-.219,6.792-1.554,9.737-1.347,2.972-3.539,4.82-6.871,4.871a7.058,7.058,0,0,1-7.006-4.654,25.339,25.339,0,0,1-.262-19.127,7,7,0,0,1,6.837-4.892c3.417-.006,5.776,1.8,7.153,4.883A21.232,21.232,0,0,1,1705.417,229.02Z" transform="translate(-1606.933 -212.117)"/></g></svg>