<svg xmlns="http://www.w3.org/2000/svg" width="221.922" height="58.827" viewBox="0 0 221.922 58.827"><defs><style>.a{fill:#f4aa40;}.b{fill:#01a6db;}.c{fill:#f4ab40;}.d{fill:#00a6db;}.e{fill:#f4a93c;}.f{fill:#f4a633;}.g{fill:#f3a52d;}.h{fill:#f4a93a;}.i{fill:#f4a939;}.j{fill:#00a1d9;}.k{fill:#f4a631;}.l{fill:#f4a632;}.m{fill:#f4ad47;}.n{fill:#f4a630;}.o{fill:#f4ad46;}.p{fill:#f3a62f;}</style></defs><path class="a" d="M659.594-331.638c-1.157-3.165-3.169-5.276-6.778-5.406-3.517-.127-5.567,1.806-6.841,4.821-.23.147-.533.205-.528.588.067,5.991-.316,11.988.205,17.974-3.493,1.284-4.02,1-4.027-2.25-.01-4.745.023-9.489-.013-14.233-.032-4.2-2.369-6.739-6.248-6.895-4.1-.165-7.156,2.483-7.283,6.628-.149,4.837-.018,9.681-.08,14.522-.011.893.486,1.945-.493,2.686-2.806.35-3.275-1.1-3.213-3.559.162-6.391.054-12.789.054-19.184,0-3.857,0-3.857,3.214-4.458.809.473.177,1.456.835,2.141,1.416-.765,2.767-1.817,4.472-2.033,2.118.014,4.234.214,6.353.043,2.136.33,3.568,1.749,4.925,3.332a10.249,10.249,0,0,1,5.714-3.35,53.29,53.29,0,0,0,6.345.012c5.447,2.159,7.469,4.419,7.641,10,.145,4.708.037,9.424.033,14.136,0,3.435-.5,3.734-4.106,2.482C660.14-319.643,660.5-325.647,659.594-331.638Z" transform="translate(-594.111 353.35)"/><path class="b" d="M1061.9-313.6c-2.769.575-3.9-.141-3.767-3.33.288-7.163.071-14.345.109-21.519.007-1.187-.679-2.835,1.769-2.712,1.783.089,3.289.023,2.255,2.967,2.128-1.409,3.72-2.462,5.7-2.75,7.888-1.149,12.434,2.789,13,11.725.295,4.635.136,9.305.042,13.956-.063,3.125-2.483,1.34-3.887,1.663-.652-4.953-.081-9.93-.3-14.89-.045-1.016.386-2.108-.367-3.045-1.24-3.857-3.031-5.578-6.3-5.693-3.716-.131-6.112,1.854-7.574,5.113-.858,2.02-.266,4.133-.386,6.2C1061.956-321.817,1062.547-317.694,1061.9-313.6Z" transform="translate(-859.212 353.817)"/><path class="c" d="M552.594-316.322a8.91,8.91,0,0,0,5.935-1.03,3.917,3.917,0,0,0,2.316-4c-.115-1.825-1.211-2.729-2.869-3.2-1.776-.5-3.518-1.122-5.3-1.586-2.846-.74-5.452-1.69-5.893-5.132-.459-3.582.893-6.136,4.3-8.078a4.967,4.967,0,0,1,2.744-.821,17.591,17.591,0,0,0,5.78.023,25.648,25.648,0,0,1,3.28.7c1.44.5,1.659,1.772,1.272,3.008-.467,1.494-1.52.3-2.117.123a17.1,17.1,0,0,0-7.53-.426c-1.954.3-3.469,1.326-3.651,3.541-.18,2.181,1.219,3.142,3.04,3.66,2.057.586,4.169.991,6.212,1.622,3.542,1.093,5.312,3.392,5.375,6.758.06,3.159-1.583,5.536-4.87,6.865a17.275,17.275,0,0,1-11.159.8c-2.1-.553-3.323-1.5-2.458-3.959l3.375.981C551.07-315.743,551.839-316.133,552.594-316.322Z" transform="translate(-546.694 353.206)"/><path class="d" d="M861.028-353.451c0,6-.034,11.995.024,17.991.014,1.475-.166,2.268-2,2.28-1.854.011-2.262-.6-2.251-2.336q.105-17.846.009-35.692c-.007-1.6.169-2.414,2.151-2.425,2.068-.011,2.1.97,2.084,2.481C861-365.252,861.028-359.351,861.028-353.451Z" transform="translate(-736.194 373.655)"/><path class="b" d="M1014.438-338.028c3.018-1.814,5.634-3.058,8.643-3.092,1.121-.013,2.375-.4,2.437,1.519.052,1.614-.428,2.1-2.1,2.2-6.872.391-8.84,2.561-8.859,9.418-.012,4.156-.079,8.315.034,12.469.047,1.709-.586,2.108-2.184,2.1-1.555-.011-2.237-.332-2.218-2.068.084-7.636.021-15.273.049-22.909,0-1.3-.653-2.878,1.931-2.857C1014.352-341.237,1014.912-340.473,1014.438-338.028Z" transform="translate(-829.911 353.87)"/><path class="a" d="M806.833-373.492c2.807-.677,3.611.374,3.569,3.232-.164,11.309-.05,22.622-.1,33.934,0,.965.581,2.129-.542,2.923-.889-.877-2.6.554-3.2-1.127q-.021-18.066.006-36.127A5.376,5.376,0,0,1,806.833-373.492Z" transform="translate(-705.459 373.691)"/><path class="a" d="M835.332-266.694h-2.948c-.609-3.724-.216-7.473-.25-11.208-.049-5.485-.115-10.972.046-16.458,1.021-.786,2.117-.479,3.209-.216l-.021-.026c.544,7.584.115,15.178.217,22.767C835.607-270.125,835.887-268.383,835.332-266.694Z" transform="translate(-721.061 325.521)"/><path class="e" d="M610.673-340.478c.153.331.44.662.441.994q.038,12.677,0,25.355c0,.318-.308.635-.472.952a1.939,1.939,0,0,1-1.142-1.133,190.068,190.068,0,0,1,0-25.056A1.716,1.716,0,0,1,610.673-340.478Z" transform="translate(-584.822 353.395)"/><path class="f" d="M806.184-373.18q0,19.758,0,39.515.308.19.205.379c-.068.126-.136.189-.205.189-1.045-.378-.666-1.285-.667-1.974q-.037-18.073,0-36.147C805.524-371.9,805.113-372.815,806.184-373.18Z" transform="translate(-704.811 373.379)"/><path class="g" d="M735.521-339.763l0,38.97q.3.183.2.358c-.07.114-.139.172-.21.172-.94-.3-.627-1.1-.628-1.707q-.026-18.6,0-37.2a6.147,6.147,0,0,1,.211-1.131C735.59-340.393,735.729-340.212,735.521-339.763Z" transform="translate(-661.664 353.302)"/><path class="h" d="M626.786-341.05v2.57c-.832-.81-.617-2.262-2.013-1.884-1.221.33-.9,1.353-.9,2.156-.024,7.244.131,14.493-.093,21.73-.079,2.54,1.859,1.9,2.951,2.629-2.659.709-3.8.049-3.707-3.025.222-7.148.067-14.308.072-21.463C623.1-341.745,623.247-341.848,626.786-341.05Z" transform="translate(-593.333 353.996)"/><path class="i" d="M606.764-314.29l.571.507c-3.654.361-3.657.361-3.658-3.256q0-10.677,0-21.354c0-3.378.09-3.436,3.686-2.691l-.6.621c-1.351.971-1.439,2.42-1.446,3.874q-.041,9.212,0,18.424C605.325-316.71,605.412-315.261,606.764-314.29Z" transform="translate(-581.513 354.002)"/><path class="g" d="M831.876-294.83q-.005,13.918-.011,27.836c-.945-.3-.62-1.1-.622-1.7q-.035-12.481,0-24.963c0-.6-.321-1.408.632-1.695q.309.174.206.348C832.013-294.888,831.945-294.83,831.876-294.83Z" transform="translate(-720.542 325.821)"/><path class="g" d="M840.5-266.285q.017-13.954.036-27.908c.676.312.594.935.594,1.5q.011,12.5,0,24.995C841.13-267.164,841.3-266.5,840.5-266.285Z" transform="translate(-726.234 325.112)"/><path class="j" d="M990.718-302.517c.788.7,1.057,2.2,2.64,1.658,1.483-.508.912-1.768.925-2.718.061-4.348.01-8.7.04-13.046.007-.933-.306-1.952.484-2.761.033,5.672.045,11.345.117,17.016.017,1.375.018,2.315-1.9,2.33C991.045-300.022,990.4-300.692,990.718-302.517Z" transform="translate(-817.979 340.505)"/><path class="g" d="M678.222-300.807c-1.111-1.991-.4-4.14-.488-6.208-.135-3.271-.06-6.551-.02-9.826.01-.9-.375-1.989.83-2.528Q678.384-310.088,678.222-300.807Z" transform="translate(-626.681 340.496)"/><path class="j" d="M1067.73-299.378c0-5.2-.023-10.393.02-15.589.008-1-.441-2.154.668-2.926-.019,5.322-.007,10.645-.09,15.966C1068.314-301.082,1068.951-299.981,1067.73-299.378Z" transform="translate(-865.046 339.594)"/><path class="h" d="M736.579-260.985q.006-.265.012-.53c2.258.342,3.127-.509,2.969-2.861-.2-2.983-.073-5.991-.034-8.987.012-.921-.344-1.966.623-2.685-.012,3.965-.231,7.944.03,11.891C740.376-261.189,739.282-260.361,736.579-260.985Z" transform="translate(-662.728 314.023)"/><path class="i" d="M715.062-317.865c.155.112.439.216.446.336.337,5.894.862,11.792-.264,17.664Q715.152-308.865,715.062-317.865Z" transform="translate(-649.579 339.577)"/><path class="j" d="M1105.165-316.4c1.08.786.639,1.939.648,2.936.043,5,.02,10,.019,15-1.164-.5-.576-1.516-.587-2.265C1105.17-305.955,1105.182-311.179,1105.165-316.4Z" transform="translate(-887.925 338.683)"/><path class="k" d="M603.858-358.754c-.353-4.271-.353-4.271,3.5-3.958a1.943,1.943,0,0,1,.292.786C607.858-358.27,607.7-358.135,603.858-358.754Z" transform="translate(-581.537 367.055)"/><path class="l" d="M836.023-321.412c.31,4.27.31,4.27-3.366,4.044a.5.5,0,0,1-.174-.472c.036-.167.077-.25.122-.25,2.358-1.265,2.358-1.265-.123-2.849a.646.646,0,0,1,.364-.727C833.91-321.623,835.006-322,836.023-321.412Z" transform="translate(-721.324 341.948)"/><path class="l" d="M652.7-340.8a9.423,9.423,0,0,1-6.353-.043A10.919,10.919,0,0,1,652.7-340.8Z" transform="translate(-607.592 353.895)"/><path class="m" d="M604.086-358.567c3.462.683,3.825-1.337,3.5-3.958a3.436,3.436,0,0,1,.076,4.123C606.973-357.609,605.25-357.567,604.086-358.567Z" transform="translate(-581.765 366.868)"/><path class="l" d="M696.384-340.731a9.588,9.588,0,0,1-6.345-.012A11.694,11.694,0,0,1,696.384-340.731Z" transform="translate(-634.288 353.822)"/><path class="f" d="M735.932-340.656l-.422-.539c1.365-.4,2.8-1.335,3.853.531Z" transform="translate(-662.074 354.195)"/><path class="n" d="M570.818-340.473a7.456,7.456,0,0,1-5.78-.023A18.377,18.377,0,0,1,570.818-340.473Z" transform="translate(-557.904 353.539)"/><path class="o" d="M835.562-321.786l-3.378.062q-.285.326-.468-.065A3.529,3.529,0,0,1,835.562-321.786Z" transform="translate(-720.863 342.323)"/><path class="g" d="M831.326-320.9a2.745,2.745,0,0,1,.468.065c.008.169.012.336.014.5a2.1,2.1,0,0,1,0,2.9q0,.29-.005.58C830.552-318.071,831.289-319.525,831.326-320.9Z" transform="translate(-720.473 341.43)"/><path class="p" d="M558.379-279.087c-.785.629-1.548.938-2.217-.148Z" transform="translate(-552.48 315.971)"/><path class="g" d="M832.951-295.062q0-.262,0-.523c1.02.021,2.139-.57,2.994.477Z" transform="translate(-721.617 326.052)"/><path class="l" d="M807.355-271.043v-.569c.984.145,2.1-.388,2.924.574Z" transform="translate(-705.977 311.325)"/><path class="e" d="M744.582-320.808q0,5.759-.006,11.517c-1.133.17-.585-.716-.59-1.071-.043-3.414-.022-6.829-.014-10.244,0-.076.072-.209.125-.216A2.6,2.6,0,0,1,744.582-320.808Z" transform="translate(-667.176 341.39)"/><path class="a" d="M756.932-336.1c-1.474-1.836-3.21-4.211-6.229-4.214a7.31,7.31,0,0,1-5.791-.036h0a6.468,6.468,0,0,0-3.671,1.523c-1.646,1.27-1.593.068-1.707-1.016-1.26-.7-2.5-.957-3.656.195-.045,12.919-.215,25.839.089,38.757,3.323.578,3.252.576,3.363-2.511.145-4-.472-8.018.337-12,1.767.7,3.212,2.154,5.249,2.232a6.265,6.265,0,0,1,5.195-.028h0C760.605-314.737,761.725-330.128,756.932-336.1Zm-8,18.915h0a2.359,2.359,0,0,1-3.438-.1c-2.171-1.009-4.536-1.737-5.846-3.99a43.1,43.1,0,0,1,.006-11.517,19.515,19.515,0,0,1,1.991-2.1,8.459,8.459,0,0,1,8.756-1.549c3.518,1.414,4.476,4.681,4.854,8.027C755.855-323.086,753.711-319.448,748.93-317.182Z" transform="translate(-662.245 353.371)"/><path class="d" d="M891.623-340.843c-7.2-1.414-13.05,2.466-14.764,9.8-2.008,8.586,1.735,15.794,9.214,17.371a24.026,24.026,0,0,0,9.578-.306c2.679-.52,3.69-1.795,2.8-4.526a33.725,33.725,0,0,1-8.539,1.5c-4.636-.035-8.059-2.8-8.815-6.945-.317-1.742.028-2.417,2-2.363,4.876.135,9.757.062,14.637.024.777-.006,1.725.383,2.141-.882C901.5-332.139,896.909-339.806,891.623-340.843Zm1.414,11.051a42.756,42.756,0,0,0-4.955-.038c-1.847,0-3.7-.017-5.542.006-.874.011-1.465-.078-1.393-1.231.194-3.081,3.749-6.556,7.028-6.76a6.644,6.644,0,0,1,6.892,5.433C895.389-330.762,895.351-329.52,893.037-329.792Z" transform="translate(-748.121 353.794)"/><path class="d" d="M967.349-332.675c-.414-4.442-2.526-7.137-6.666-8.021a23.806,23.806,0,0,0-9.854.172c-2.573.531-3.4,1.84-2.458,4.3,2.076-.513,4.113-1.154,6.2-1.5,4.628-.775,8.308,2.091,8.511,6.488.059,1.28.161,2.247-1.849,1.671a16.041,16.041,0,0,0-9.492-.2,8.71,8.71,0,0,0-5.918,9.815c.621,3.962,3.669,6.375,8.023,6.571a16.42,16.42,0,0,0,9.414-2.433c.4,1.362.982,2.4,2.746,2.009,1.812-.406,1.061-1.806,1.1-2.784C967.307-321.944,966.86-327.316,967.349-332.675Zm-4.722,12.247a8.765,8.765,0,0,1-6.937,3.693,4.838,4.838,0,0,1-5.23-4.35c-.255-2.736,1.332-4.629,4.37-5.092a17.489,17.489,0,0,1,2.61-.02l.007-.147c.962.1,1.934.138,2.883.307C963.265-325.516,964.441-322.8,962.628-320.428Z" transform="translate(-790.52 353.796)"/><path class="f" d="M572.664-334.118a1.77,1.77,0,0,1-1.963-.055A1.729,1.729,0,0,1,572.664-334.118Z" transform="translate(-561.364 349.712)"/><path class="a" d="M607.888-312.771c-1.728.219-2.394-.449-2.373-2.255q.124-10.83,0-21.662c-.021-1.808.648-2.472,2.374-2.256Q607.888-325.857,607.888-312.771Z" transform="translate(-582.637 352.482)"/><path class="m" d="M607.945-360.238c.02,1.045-.047,1.737-.937,1.845-1.021.123-1.364-.483-1.35-1.392.011-.734.187-1.337,1.092-1.371C607.632-361.189,607.924-360.67,607.945-360.238Z" transform="translate(-582.725 366.032)"/><path class="o" d="M832.958-316.57q0-1.449,0-2.9c1.055.242,2.755-.718,2.873,1.309C835.961-315.867,834.1-316.777,832.958-316.57Z" transform="translate(-721.62 340.57)"/></svg>