<svg xmlns="http://www.w3.org/2000/svg" width="109.27" height="109.269" viewBox="0 0 109.27 109.269"><defs><style>.a{fill:#fff;}</style></defs><path class="a" d="M233.064,364.99a2.135,2.135,0,1,0,1.509.625A2.149,2.149,0,0,0,233.064,364.99Z" transform="translate(-181.646 -287.095)"/><path class="a" d="M423.9,335.12a2.135,2.135,0,1,0,1.509.625A2.151,2.151,0,0,0,423.9,335.12Z" transform="translate(-331.757 -263.6)"/><path class="a" d="M128.073,287a2.135,2.135,0,1,0,1.509.625A2.149,2.149,0,0,0,128.073,287Z" transform="translate(-99.062 -225.749)"/><path class="a" d="M109.269,23.164a2.134,2.134,0,0,0-2.134-2.134h-3.286a23.057,23.057,0,0,0-1.789-4.323l2.323-2.323a2.134,2.134,0,0,0,0-3.018L97.9,4.887a2.134,2.134,0,0,0-3.018,0L92.563,7.21a23.072,23.072,0,0,0-4.323-1.79V2.134A2.134,2.134,0,0,0,86.106,0H76.944A2.134,2.134,0,0,0,74.81,2.134V5.429A23.065,23.065,0,0,0,70.5,7.219L68.164,4.887a2.134,2.134,0,0,0-3.018,0l-6.478,6.478a2.131,2.131,0,0,0-.593,1.867H8.544A8.554,8.554,0,0,0,0,21.776V80.664a8.553,8.553,0,0,0,8.544,8.544H42.455v7.256H37.34a7.7,7.7,0,0,0-7.691,7.691v2.98a2.134,2.134,0,0,0,2.134,2.134H71.052a2.134,2.134,0,0,0,2.134-2.134v-2.98a7.7,7.7,0,0,0-7.69-7.691H60.382V89.208H94.273a8.554,8.554,0,0,0,8.544-8.544V45.688l1.565-1.565a2.134,2.134,0,0,0,0-3.018l-2.332-2.332a23.072,23.072,0,0,0,1.791-4.314h3.295a2.134,2.134,0,0,0,2.134-2.134ZM68.918,104.155V105h-35v-.846a3.426,3.426,0,0,1,3.422-3.422H65.5A3.426,3.426,0,0,1,68.918,104.155ZM56.113,96.464h-9.39V89.208h9.39Zm42.435-15.8a4.28,4.28,0,0,1-4.276,4.275H8.544a4.28,4.28,0,0,1-4.275-4.275V75.788H83.61a2.134,2.134,0,0,0,0-4.268H4.268v-6H20.559a2.134,2.134,0,1,0,0-4.268H4.268V21.776A4.28,4.28,0,0,1,8.544,17.5H60.612a23.076,23.076,0,0,0-1.384,3.529H55.915a2.135,2.135,0,0,0-2.134,2.134v9.161a2.134,2.134,0,0,0,2.134,2.134h3.321a23.087,23.087,0,0,0,1.782,4.3l-2.35,2.35a2.134,2.134,0,0,0,0,3.018L65.146,50.6a2.134,2.134,0,0,0,3.018,0l2.35-2.35a23.064,23.064,0,0,0,4.3,1.782v3.321a2.134,2.134,0,0,0,2.134,2.134h9.161a2.134,2.134,0,0,0,2.134-2.134V50.041a23.064,23.064,0,0,0,4.305-1.78L94.886,50.6a2.134,2.134,0,0,0,3.018,0l.644-.644V80.664ZM105,30.191h-2.808a2.135,2.135,0,0,0-2.084,1.673,18.856,18.856,0,0,1-2.532,6.1,2.136,2.136,0,0,0,.288,2.662l1.99,1.99-3.46,3.46-2-2a2.136,2.136,0,0,0-2.464-.4,2.1,2.1,0,0,0-.192.109,18.856,18.856,0,0,1-6.1,2.52,2.134,2.134,0,0,0-1.676,2.084V51.22H79.079V48.386A2.134,2.134,0,0,0,77.406,46.3a18.86,18.86,0,0,1-6.087-2.524,2.135,2.135,0,0,0-2.658.29l-2.006,2.006-3.46-3.46L65.2,40.608a2.136,2.136,0,0,0,.288-2.662,18.854,18.854,0,0,1-2.522-6.083,2.134,2.134,0,0,0-2.084-1.673H58.049V25.3h2.828a2.135,2.135,0,0,0,2.084-1.676,18.853,18.853,0,0,1,2.517-6.09,2.136,2.136,0,0,0-.288-2.661l-2-2,3.46-3.46,1.99,1.99a2.137,2.137,0,0,0,2.692.268A18.847,18.847,0,0,1,77.406,9.16a2.134,2.134,0,0,0,1.673-2.084V4.268h4.893v2.8a2.134,2.134,0,0,0,1.676,2.084,18.857,18.857,0,0,1,6.11,2.529,2.136,2.136,0,0,0,2.658-.29l1.98-1.98,3.46,3.46-1.98,1.98a2.135,2.135,0,0,0-.287,2.662,18.846,18.846,0,0,1,2.527,6.106A2.134,2.134,0,0,0,102.2,25.3H105v4.893Z"/><path class="a" d="M333.232,68a13.232,13.232,0,1,0,13.232,13.232A13.247,13.247,0,0,0,333.232,68Zm0,22.2a8.964,8.964,0,1,1,8.963-8.964A8.974,8.974,0,0,1,333.232,90.2Z" transform="translate(-251.707 -53.488)"/><path class="a" d="M155.8,187.22a2.135,2.135,0,1,0,1.509.625A2.146,2.146,0,0,0,155.8,187.22Z" transform="translate(-120.874 -147.264)"/><path class="a" d="M118.661,131.194a2.134,2.134,0,0,0-.213-1.619l-3.6-6.241a2.134,2.134,0,0,0-2.915-.781l-2.053,1.185a13.5,13.5,0,0,0-2.135-1.235v-2.368A2.134,2.134,0,0,0,105.606,118H98.4a2.134,2.134,0,0,0-2.134,2.134V122.5a13.514,13.514,0,0,0-2.135,1.235l-2.053-1.185a2.134,2.134,0,0,0-2.915.781l-3.6,6.241a2.134,2.134,0,0,0,.781,2.915l2.053,1.186c-.037.409-.055.821-.055,1.232s.019.823.055,1.232l-2.053,1.186a2.134,2.134,0,0,0-.781,2.915l3.6,6.241a2.134,2.134,0,0,0,2.915.781l2.053-1.185a13.5,13.5,0,0,0,2.135,1.235v2.368a2.134,2.134,0,0,0,2.134,2.134h7.207a2.134,2.134,0,0,0,2.134-2.134v-2.368a13.516,13.516,0,0,0,2.135-1.235l2.053,1.185a2.134,2.134,0,0,0,2.915-.781l3.6-6.241a2.134,2.134,0,0,0-.781-2.915l-2.054-1.185c.037-.41.055-.821.055-1.232s-.019-.823-.055-1.232l2.054-1.186A2.136,2.136,0,0,0,118.661,131.194Zm-7.458,1.791a9.488,9.488,0,0,1,0,3.847,2.134,2.134,0,0,0,1.022,2.282l1.459.842-1.469,2.545-1.461-.843a2.134,2.134,0,0,0-2.49.258,9.327,9.327,0,0,1-3.324,1.922,2.134,2.134,0,0,0-1.468,2.027v1.684h-2.939v-1.684a2.134,2.134,0,0,0-1.468-2.027,9.329,9.329,0,0,1-3.324-1.922,2.134,2.134,0,0,0-2.49-.258l-1.461.843-1.469-2.545,1.458-.842a2.134,2.134,0,0,0,1.022-2.282,9.5,9.5,0,0,1,0-3.847A2.134,2.134,0,0,0,91.78,130.7l-1.458-.842,1.469-2.545,1.461.843a2.134,2.134,0,0,0,2.49-.258,9.327,9.327,0,0,1,3.324-1.922,2.134,2.134,0,0,0,1.468-2.027v-1.684h2.939v1.684a2.134,2.134,0,0,0,1.468,2.027,9.329,9.329,0,0,1,3.324,1.922,2.135,2.135,0,0,0,2.49.258l1.461-.844,1.469,2.545-1.459.842A2.135,2.135,0,0,0,111.2,132.985Z" transform="translate(-67.074 -92.817)"/></svg>