<svg xmlns="http://www.w3.org/2000/svg" width="117.448" height="126" viewBox="0 0 117.448 126"><defs><style>.a{fill:#CEA211;}</style></defs><g transform="translate(-34.5)"><path class="a" d="M149.3,53.843a2.468,2.468,0,1,0,0-4.922H139.253v-6.7H149.3a2.468,2.468,0,1,0,0-4.922H139.253V33.273a2.374,2.374,0,0,0-.776-1.739l-7.666-7.122a2.758,2.758,0,0,0-1.875-.722H124.6V14.376a2.659,2.659,0,0,0-5.3,0V23.69h-7.219V14.376a2.659,2.659,0,0,0-5.3,0V23.69H99.561V14.871C99.561,6.671,92.374,0,83.539,0c-7.228,0-13.51,4.535-15.426,10.835a24.527,24.527,0,0,0-14.554,6.483,21.284,21.284,0,0,0-6.9,15.6A20.905,20.905,0,0,0,48.47,41.4a25.769,25.769,0,0,0-9.335,7.738A23.125,23.125,0,0,0,34.5,63c0,9.165,5.4,17.385,13.969,21.6a20.874,20.874,0,0,0-1.808,8.477,21.284,21.284,0,0,0,6.9,15.6,24.526,24.526,0,0,0,14.554,6.483c1.916,6.3,8.2,10.842,15.426,10.842,8.835,0,16.022-6.671,16.022-14.871V102.3h7.212v9.321a2.659,2.659,0,0,0,5.3,0V102.3H119.3v9.321a2.659,2.659,0,0,0,5.3,0V102.3h4.339a2.758,2.758,0,0,0,1.875-.721l7.666-7.115a2.375,2.375,0,0,0,.777-1.74V88.694H149.3a2.468,2.468,0,1,0,0-4.922H139.253V77.079H149.3a2.468,2.468,0,1,0,0-4.922H139.253v-6.7H149.3a2.468,2.468,0,1,0,0-4.922H139.253V53.843ZM83.54,121.078a10.806,10.806,0,0,1-9.9-6.136,24.672,24.672,0,0,0,5.632-1.64,23.544,23.544,0,0,0,7-4.568,2.338,2.338,0,0,0-.04-3.48,2.8,2.8,0,0,0-3.749.037,18.244,18.244,0,0,1-5.427,3.538,19.132,19.132,0,0,1-6.8,1.518c-10.094-.155-18.294-7.889-18.294-17.271a16.31,16.31,0,0,1,2.373-8.448,2.3,2.3,0,0,0,.19-2.023,2.552,2.552,0,0,0-1.513-1.467C44.988,78.146,39.8,71.025,39.8,63s5.185-15.148,13.209-18.134q2.365-1.187,1.326-3.488a16.358,16.358,0,0,1-2.374-8.457c0-9.383,8.2-17.117,18.294-17.271a19.266,19.266,0,0,1,6.8,1.517A18.126,18.126,0,0,1,82.483,20.7a2.8,2.8,0,0,0,3.749.045,2.338,2.338,0,0,0,.048-3.48,23.441,23.441,0,0,0-7.015-4.581,24.957,24.957,0,0,0-5.626-1.636,10.806,10.806,0,0,1,9.9-6.13c5.911,0,10.72,4.463,10.72,9.949V45.043H86.006l-7.034-6.528A8.2,8.2,0,0,0,80.12,34.33a8.369,8.369,0,0,0-2.755-6.174,9.941,9.941,0,0,0-13.3,0,8.294,8.294,0,0,0,0,12.347,9.761,9.761,0,0,0,6.651,2.553,10,10,0,0,0,4.506-1.064l7.814,7.252a2.941,2.941,0,0,0,1.875.721h9.352V60.535H77.645a9.354,9.354,0,0,0-9.024-6.264c-5.184,0-9.4,3.914-9.4,8.725s4.217,8.732,9.4,8.732a9.354,9.354,0,0,0,9.025-6.271H94.259V76.028H84.907c-.071,0-.132,0-.188.008a2.735,2.735,0,0,0-1.687.713l-7.814,7.258A9.975,9.975,0,0,0,64.062,85.5a8.286,8.286,0,0,0,0,12.34,9.94,9.94,0,0,0,13.3,0,8.353,8.353,0,0,0,2.758-6.163,8.193,8.193,0,0,0-1.148-4.19l7.035-6.535h8.253v30.179c0,5.486-4.808,9.949-10.719,9.949ZM74.817,34.33a3.651,3.651,0,0,1-1.2,2.693,4.337,4.337,0,0,1-5.8,0,3.618,3.618,0,0,1,0-5.386,4.337,4.337,0,0,1,5.8,0A3.65,3.65,0,0,1,74.817,34.33ZM72.726,63a4.114,4.114,0,1,1-4.106-3.8A3.971,3.971,0,0,1,72.726,63Zm2.091,28.676a3.636,3.636,0,0,1-1.2,2.684,4.338,4.338,0,0,1-5.806,0,3.61,3.61,0,0,1,0-5.376,4.337,4.337,0,0,1,5.8,0h0A3.649,3.649,0,0,1,74.817,91.672Zm59.133.035-6.113,5.674H99.561V90.089h23.88a2.561,2.561,0,0,0,2.651-2.461V74.039a2.659,2.659,0,0,0-5.3,0V85.167H99.561V40.833H120.79v11.1a2.659,2.659,0,0,0,5.3,0V38.372a2.561,2.561,0,0,0-2.651-2.461H99.561v-7.3h28.275l6.114,5.68Z" transform="translate(0 0)"/><path class="a" d="M363.6,245.958a3.617,3.617,0,0,0-3.617,3.617v.01a3.617,3.617,0,1,0,3.617-3.627Z" transform="translate(-240.675 -186.586)"/></g></svg>