<svg xmlns="http://www.w3.org/2000/svg" width="105.003" height="105.003" viewBox="0 0 105.003 105.003"><defs><style>.a{fill:#CEA211;}</style></defs><path class="a" d="M68.744,33.485A6.482,6.482,0,0,0,57.676,28.9L42.65,43.926a22.127,22.127,0,0,1-7.123,4.749,13.54,13.54,0,1,0-19.368,2.373A18.651,18.651,0,0,0,1,69.34v18.63H39.953V66.242a3.078,3.078,0,0,1,.906-2.19L66.845,38.068a6.439,6.439,0,0,0,1.9-4.583ZM26.4,54.1l1.523-.212c-.435,2.053-1.724,3.6-3.216,3.6-1.441,0-2.693-1.44-3.172-3.387ZM14.549,40.549A10.162,10.162,0,1,1,24.71,50.71,10.172,10.172,0,0,1,14.549,40.549Zm49.9-4.874L38.464,61.659a6.439,6.439,0,0,0-1.9,4.583v18.34H12.855V64.259H9.468V84.582H4.387V69.34a15.263,15.263,0,0,1,13.7-15.164c.654,3.821,3.37,6.7,6.62,6.7,3.472,0,6.307-3.292,6.7-7.5a25.555,25.555,0,0,0,13.638-7.05L60.071,31.293a3.1,3.1,0,0,1,5.286,2.192,3.081,3.081,0,0,1-.906,2.19Z" transform="translate(-1 17.033)"/><path class="a" d="M73.673,51.088a13.544,13.544,0,1,0-11.466,2.671,13.153,13.153,0,0,0-4.366,6.69L55.416,69.34H38.928a5.928,5.928,0,0,0,0,11.855H55.017v6.774H83.808V63.927A13.228,13.228,0,0,0,73.673,51.088ZM55.017,40.549A10.162,10.162,0,1,1,65.178,50.71,10.172,10.172,0,0,1,55.017,40.549Zm25.4,44.033H58.4V81.195h1.419a6.763,6.763,0,0,0,6.425-4.632l5.616-16.85-3.211-1.072-5.616,16.85a3.385,3.385,0,0,1-3.214,2.317h-20.9a2.54,2.54,0,0,1,0-5.081H58L61.11,61.339a9.828,9.828,0,0,1,19.31,2.588Z" transform="translate(21.195 17.033)"/><path class="a" d="M13,11h3.387v3.387H13Z" transform="translate(7.323 5.936)"/><path class="a" d="M17,11H37.323v3.387H17Z" transform="translate(10.097 5.936)"/><path class="a" d="M13,15H40.1v3.387H13Z" transform="translate(7.323 8.71)"/><path class="a" d="M13,19H40.1v3.387H13Z" transform="translate(7.323 11.485)"/><path class="a" d="M57,9h3.387v3.387H57Z" transform="translate(37.841 4.549)"/><path class="a" d="M35,9H68.872v3.387H35Z" transform="translate(22.582 4.549)"/><path class="a" d="M35,13H75.646v3.387H35Z" transform="translate(22.582 7.323)"/><path class="a" d="M35,17H75.646v3.387H35Z" transform="translate(22.582 10.097)"/><path class="a" d="M91.986,1H54.727a8.478,8.478,0,0,0-8.468,8.468v1.694H15.774A6.781,6.781,0,0,0,9,17.936V34.872a6.781,6.781,0,0,0,6.774,6.774H31.017v8.246l12.368-8.246h2.874a6.8,6.8,0,0,0,6.05-3.782,8.359,8.359,0,0,0,2.418.395h4.568l12.368,8.246V38.259H91.986a8.478,8.478,0,0,0,8.468-8.468V9.468A8.478,8.478,0,0,0,91.986,1ZM46.259,38.259h-3.9l-7.955,5.3v-5.3H15.774a3.391,3.391,0,0,1-3.387-3.387V17.936a3.391,3.391,0,0,1,3.387-3.387H46.259V29.791a8.414,8.414,0,0,0,3.072,6.471A3.4,3.4,0,0,1,46.259,38.259Zm50.808-8.468a5.087,5.087,0,0,1-5.081,5.081H68.276v5.3l-7.955-5.3H54.727a5.087,5.087,0,0,1-5.081-5.081V9.468a5.087,5.087,0,0,1,5.081-5.081H91.986a5.087,5.087,0,0,1,5.081,5.081Z" transform="translate(4.549 -1)"/><path class="a" d="M35,5h3.387V8.387H35Z" transform="translate(22.582 1.774)"/><path class="a" d="M39,5h3.387V8.387H39Z" transform="translate(25.356 1.774)"/><path class="a" d="M43,5H70.1V8.387H43Z" transform="translate(28.131 1.774)"/></svg>