<svg xmlns="http://www.w3.org/2000/svg" width="107" height="107" viewBox="0 0 107 107"><defs><style>.a{fill:#CEA211;}</style></defs><path class="a" d="M25.462,18.088a1.57,1.57,0,1,0,1.567,1.57A1.569,1.569,0,0,0,25.462,18.088Zm-6.27,0a1.57,1.57,0,1,0,1.567,1.57A1.569,1.569,0,0,0,19.192,18.088Zm74.885,3.14a1.57,1.57,0,1,0-1.567-1.57A1.569,1.569,0,0,0,94.077,21.228Zm-12.539-3.14a1.57,1.57,0,1,0,1.567,1.57A1.569,1.569,0,0,0,81.538,18.088Zm-68.615,0a1.57,1.57,0,1,0,1.567,1.57A1.569,1.569,0,0,0,12.923,18.088Zm76.452,1.57a1.567,1.567,0,1,0-1.567,1.57A1.569,1.569,0,0,0,89.375,19.658ZM12.923,86.82a1.57,1.57,0,1,0,1.567,1.57A1.569,1.569,0,0,0,12.923,86.82Zm74.885,0a1.57,1.57,0,1,0,1.567,1.57A1.569,1.569,0,0,0,87.808,86.82Zm6.27,0a1.57,1.57,0,1,0,1.567,1.57A1.569,1.569,0,0,0,94.077,86.82ZM92.329,69.706a40.127,40.127,0,0,0,.983-8.826,39.484,39.484,0,0,0-6.6-22h1.46A19.208,19.208,0,0,0,107,19.658,19.208,19.208,0,0,0,87.526.435,19.231,19.231,0,0,0,74.387,33.4l-2.395,1.419A2.185,2.185,0,0,0,73.1,38.882l9.773,0A36.475,36.475,0,0,1,88.264,49.1c-1.128-.291-2.267-.537-3.409-.733a41.249,41.249,0,0,0-13.535.006c-3.435.465-5.159.637-6.811-.539-1.378-.98-1.572-2.1-1.821-4.168a12.441,12.441,0,0,0-3.488-8.1,19.669,19.669,0,0,0-6.968-4.35c-2.618-1.122-4.132-1.845-4.809-3.674a5.759,5.759,0,0,1-.238-2.853,36.672,36.672,0,0,1,16.647.925,1.57,1.57,0,0,0,.882-3.013,39.882,39.882,0,0,0-26.877,1.606A19.226,19.226,0,0,0,19.475.435,19.208,19.208,0,0,0,0,19.658,19.13,19.13,0,0,0,5.5,33.131a19.861,19.861,0,0,0,14.787,5.748,39.483,39.483,0,0,0-6.6,22,40.138,40.138,0,0,0,.983,8.826A19.238,19.238,0,0,0,5.72,102.082c8.992,8.878,25.094,6.294,30.662-5.2a39.8,39.8,0,0,0,34.239,0c5.39,11.052,21.294,14.438,30.66,5.191a19.231,19.231,0,0,0-8.952-32.376ZM76.591,35.741a2.537,2.537,0,0,0,1.453-1.986,2.346,2.346,0,0,0-.79-1.976A16.09,16.09,0,0,1,87.571,3.574l.238,0a16.071,16.071,0,0,1,16.056,16.085A16.071,16.071,0,0,1,88.126,35.739Zm-57.718,0A16.09,16.09,0,0,1,7.921,8.2,15.935,15.935,0,0,1,19.429,3.575,16.09,16.09,0,0,1,29.745,31.78a2.346,2.346,0,0,0-.79,1.976,2.509,2.509,0,0,0,1.453,1.986Zm.556,68.734a16.084,16.084,0,0,1-.556-32.164l11.535,0a2.458,2.458,0,0,0-1.453,1.986,2.346,2.346,0,0,0,.79,1.976,16.126,16.126,0,0,1,2.61,2.911c.019.03.038.059.059.087a16.088,16.088,0,0,1-12.985,25.207ZM37.177,81.681c3,1.429,5.607,2.945,5.729,4.765.063.944-.565,2.821-4.873,5.585a19.013,19.013,0,0,0,.352-3.518A19.247,19.247,0,0,0,37.177,81.681ZM69.452,93.969a36.665,36.665,0,0,1-9.881,3.138c-.381-.767-.728-1.553-1.032-2.35-2.867-7.565-1.783-9.436-1.382-9.83.247-.243.587-.224,2.02.113a12.361,12.361,0,0,0,6.23.192,1.57,1.57,0,0,0-.756-3.047,9.413,9.413,0,0,1-4.756-.2c-1.6-.376-3.4-.8-4.933.7-2.843,2.791-.993,8.863.648,13.192.209.549.439,1.093.681,1.631-.928.071-1.86.111-2.792.111a36.791,36.791,0,0,1-14.026-2.787c4.6-2.908,6.751-5.734,6.56-8.6-.273-4.1-4.8-6.167-9.6-8.36-.569-.26-1.151-.528-1.725-.8a19.25,19.25,0,0,0-2.1-2.431l2.395-1.419A2.185,2.185,0,0,0,33.9,69.165c-1.376,0-14.991-.168-16.123.055a36.981,36.981,0,0,1-.95-8.34,36.4,36.4,0,0,1,4.915-18.392c7.6,2.778,11.841,6.039,12.281,9.468.381,2.956-2.126,5.6-4.781,8.391a40.113,40.113,0,0,0-3.33,3.811,1.568,1.568,0,1,0,2.53,1.854,37.326,37.326,0,0,1,3.071-3.5c2.9-3.055,6.191-6.517,5.619-10.956-.6-4.674-5.075-8.535-13.656-11.773q.32-.455.655-.9l9.77,0h0a2.185,2.185,0,0,0,1.11-4.064L32.613,33.4a19.23,19.23,0,0,0,3.646-4.95A36.44,36.44,0,0,1,43.978,25.4a8.481,8.481,0,0,0,.506,3.235c1.178,3.183,3.891,4.346,6.515,5.47a16.871,16.871,0,0,1,5.949,3.647c2.135,2.209,2.374,4.192,2.627,6.292.255,2.119.545,4.521,3.118,6.352,2.734,1.945,5.66,1.549,9.047,1.09a37.993,37.993,0,0,1,12.586-.023,39.456,39.456,0,0,1,4.936,1.181,37.264,37.264,0,0,1-.034,16.574c-.35-.026-.7-.044-1.056-.051h-.029l-15.039,0h0a2.185,2.185,0,0,0-1.11,4.064l2.395,1.419a19.233,19.233,0,0,0-5.771,13.865A18.951,18.951,0,0,0,69.452,93.969Zm29.627,5.876a15.942,15.942,0,0,1-11.509,4.627A16.09,16.09,0,0,1,77.255,76.267a2.346,2.346,0,0,0,.79-1.976,2.476,2.476,0,0,0-1.453-1.986l11.535,0A16.09,16.09,0,0,1,99.079,99.845ZM81.538,86.82a1.57,1.57,0,1,0,1.567,1.57A1.569,1.569,0,0,0,81.538,86.82Zm-56.076,0a1.57,1.57,0,1,0,1.567,1.57A1.569,1.569,0,0,0,25.462,86.82Zm42.446-29.68c-1.851-1.368-4.181-.194-6.434.94-1.947.981-4.154,2.092-5.445,1.31-.811-.492-1.051-1.521-1.35-3.157-.31-1.7-.7-3.818-2.69-4.757a5.961,5.961,0,0,0-4.9.255A13.678,13.678,0,0,0,39.9,59.454a14.006,14.006,0,0,0,1.845,11.82c1.843,2.882,4.353,4.752,6.712,5a6.194,6.194,0,0,0,3.1-.564,6.68,6.68,0,0,1,3.021-.588,7.051,7.051,0,0,1,3.2.9c5.607,2.763,9.541-3.736,11.106-9.464.594-2.174,1.687-7.443-.986-9.418ZM65.87,65.728c-1.148,4.2-3.5,7.764-5.254,7.941a2.71,2.71,0,0,1-1.445-.466,10.08,10.08,0,0,0-4.477-1.219,10.888,10.888,0,0,0-4.267.8,3.281,3.281,0,0,1-1.636.369c-1.38-.146-3.107-1.548-4.4-3.573a10.853,10.853,0,0,1-1.515-9.12,10.51,10.51,0,0,1,5.442-5.84,3.168,3.168,0,0,1,2.339-.3c.5.234.695,1.134.94,2.48.327,1.792.733,4.021,2.811,5.28,2.773,1.681,5.935.088,8.476-1.191.95-.479,2.719-1.368,3.165-1.219.415.307.805,2.465-.177,6.061ZM19.192,86.82a1.57,1.57,0,1,0,1.567,1.57A1.569,1.569,0,0,0,19.192,86.82Z" transform="translate(0 -0.433)"/></svg>