<svg xmlns="http://www.w3.org/2000/svg" width="102" height="102" viewBox="0 0 112.734 112.734"><defs><style>.a{fill:#fff;}</style></defs><g transform="translate(-1 -1)"><path class="a" d="M94.755,84.642V76.119a46.845,46.845,0,0,0,9.091-27.844A47.276,47.276,0,0,0,9.33,46.457H4.195l12.374,19.8,12.374-19.8H23.893A32.727,32.727,0,1,1,87.4,59.185H58.389V84.642H42.025v29.093h69.1V84.642ZM89.3,88.278h7.273v3.637H89.3ZM56.571,11.91A36.407,36.407,0,0,0,20.205,48.276v1.818h2.173l-5.809,9.3-5.809-9.3h2.173V48.276a43.639,43.639,0,0,1,87.278,0A43.232,43.232,0,0,1,94.755,69.37V59.185H91.242A36.312,36.312,0,0,0,56.571,11.91ZM72.936,62.822h7.273v3.637H72.936Zm-10.91,0H69.3V70.1H83.845V62.822h7.273v21.82H83.845V77.368H69.3v7.273H62.026ZM56.571,88.278h7.273v3.637H56.571Zm7.273,21.82H56.571v-3.637h7.273Zm10.91,0H67.481v-7.273H52.934V110.1H45.661V88.278h7.273v7.273H67.481V88.278h7.273Zm0-25.456H72.936V81.005h7.273v3.637H74.754ZM96.574,110.1H89.3v-3.637h7.273Zm10.91,0H100.21v-7.273H85.664V110.1H78.391V88.278h7.273v7.273H100.21V88.278h7.273Z" transform="translate(2.614)"/><path class="a" d="M1,67.093H37.366V38H1Zm21.82-3.637H15.546V59.82H22.82Zm-7.273-21.82H22.82v3.637H15.546Zm-10.91,0H11.91V48.91H26.456V41.637h7.273v21.82H26.456V56.183H11.91v7.273H4.637Z" transform="translate(0 30.277)"/><path class="a" d="M70,22.612l-8.026-8.026L32.885,43.679l-7.273-7.273-8.026,8.026,15.3,15.3ZM25.612,41.548l7.273,7.273L61.978,19.728l2.884,2.884L32.885,54.589,22.728,44.432Z" transform="translate(13.572 11.117)"/></g></svg>