<svg xmlns="http://www.w3.org/2000/svg" width="107.781" height="107.781" viewBox="0 0 107.781 107.781"><defs><style>.a{fill:#CEA211;}</style></defs><g transform="translate(-1 -1)"><path class="a" d="M57,57h3.477v3.477H57Z" transform="translate(41.351 41.351)"/><path class="a" d="M29,57H74.2v3.477H29Z" transform="translate(20.675 41.351)"/><path class="a" d="M29,53h3.477v3.477H29Z" transform="translate(20.675 38.397)"/><path class="a" d="M33,53H78.2v3.477H33Z" transform="translate(23.629 38.397)"/><path class="a" d="M29,49H81.152v3.477H29Z" transform="translate(20.675 35.444)"/><path class="a" d="M24.632,11.247l-2.291,2.618,12.412,10.86L22.341,35.585,24.632,38.2l15.4-13.478Z" transform="translate(15.758 7.566)"/><path class="a" d="M20.883,11.247,5.481,24.725,20.883,38.2l2.291-2.618L10.762,24.725l12.412-10.86Z" transform="translate(3.309 7.566)"/><path class="a" d="M0,0H38.873V3.477H0Z" transform="matrix(0.179, -0.984, 0.984, 0.179, 27.114, 51.112)"/><path class="a" d="M88.685,18.384h-28.4a31.333,31.333,0,1,0-17.56,43.373v47.024h66.059V40.307Zm.974,6.208,13.433,14.653H89.659Zm-85.182,7.7A27.815,27.815,0,1,1,32.291,60.106,27.847,27.847,0,0,1,4.477,32.291ZM46.2,105.3V60.281a31.31,31.31,0,0,0,5.718-3.652h22.1V53.152H55.548a31.356,31.356,0,0,0,2.743-3.477H74.013V46.2H60.281a30.847,30.847,0,0,0,1.476-24.338H86.182V42.722H105.3V105.3Z" transform="translate(0)"/><path class="a" d="M29,55.861H81.152V35H29Zm3.477-17.384h45.2V52.384h-45.2Z" transform="translate(20.675 25.106)"/><path class="a" d="M45,31H62.384v3.477H45Z" transform="translate(32.49 22.152)"/><path class="a" d="M57,31h3.477v3.477H57Z" transform="translate(41.351 22.152)"/><path class="a" d="M45,27H69.338v3.477H45Z" transform="translate(32.49 19.199)"/></g></svg>