<svg xmlns="http://www.w3.org/2000/svg" width="112.466" height="112.465" viewBox="0 0 112.466 112.465"><defs><style>.a{fill:#CEA211;}</style></defs><path class="a" d="M103.24,39.539H72.346c.1-1.084.151-2.181.151-3.291A36.257,36.257,0,0,0,18.137,4.843a2.2,2.2,0,1,0,2.2,3.8A31.858,31.858,0,1,1,36.248,68.1,31.5,31.5,0,0,1,16.273,61.06a2.2,2.2,0,0,0-2.024-.388L8.418,62.2l2.284-5.02a2.2,2.2,0,0,0-.223-2.2A31.873,31.873,0,0,1,8.669,20.3a2.2,2.2,0,0,0-3.8-2.2A36.272,36.272,0,0,0,6.184,56.5l-3.678,8.08a2.2,2.2,0,0,0,2.554,3.035L14.4,65.174A36.24,36.24,0,0,0,41.3,72.144V91.378a9.236,9.236,0,0,0,9.225,9.226H81.588l13.891,11.365a2.2,2.2,0,0,0,3.587-1.7V100.6h4.174a9.236,9.236,0,0,0,9.226-9.226V48.764A9.236,9.236,0,0,0,103.24,39.539Zm4.833,51.84a4.838,4.838,0,0,1-4.833,4.833H96.87a2.2,2.2,0,0,0-2.2,2.2v7.226L83.824,96.757c-.6-.546-1.121-.546-2.3-.546H50.521a4.838,4.838,0,0,1-4.832-4.833V71.247A36.37,36.37,0,0,0,71.674,43.932H103.24a4.837,4.837,0,0,1,4.833,4.833Zm0,0"/><path class="a" d="M312.07,271.724a2.2,2.2,0,0,0-.935-4.182h-.9L303.151,251.4a2.2,2.2,0,0,0-4.023,0l-7.084,16.145h-.9a2.2,2.2,0,0,0-.935,4.182l-2.638,6.013a2.2,2.2,0,1,0,4.023,1.765l3.321-7.567h12.451l3.321,7.567a2.2,2.2,0,1,0,4.022-1.765Zm-15.229-4.182,4.3-9.8,4.3,9.8Zm0,0" transform="translate(-224.258 -195.149)"/><path class="a" d="M47.6,49.792a2.2,2.2,0,1,0-1.553-.644A2.216,2.216,0,0,0,47.6,49.792Zm0,0" transform="translate(-35.429 -35.426)"/><path class="a" d="M101.274,116.253a2.2,2.2,0,1,0,2.113,3.853,25.156,25.156,0,0,0,10.871-11.793,25.16,25.16,0,0,0,10.871,11.793,2.2,2.2,0,0,0,2.113-3.853,20.774,20.774,0,0,1-10.552-15.115h9.753a2.2,2.2,0,0,0,0-4.393h-9.988V87.591a2.2,2.2,0,0,0-4.393,0v9.154h-7.935a2.2,2.2,0,0,0,0,4.393h7.7A20.773,20.773,0,0,1,101.274,116.253Zm0,0" transform="translate(-78.138 -66.637)"/></svg>