<svg xmlns="http://www.w3.org/2000/svg" width="114.951" height="114.951" viewBox="0 0 114.951 114.951" class="svg"><defs><style>.a{fill:#fff;}</style></defs><path class="a" d="M61.158,40.579h1.916a1.916,1.916,0,0,0,0-3.832H55.411V32.916a1.916,1.916,0,0,0-3.832,0v3.832H43.916a1.916,1.916,0,1,0,0,3.832H57.327v3.832A9.579,9.579,0,0,1,53.5,52.074a9.579,9.579,0,0,1-3.257-4.426,1.916,1.916,0,0,0-3.6,1.3A13.143,13.143,0,0,0,49.663,53.8a28.738,28.738,0,0,1-5.748.192,1.916,1.916,0,0,0,0,3.832c4,0,6.3.249,9.579-1.322,3.314,1.571,5.537,1.322,9.579,1.322a1.916,1.916,0,0,0,0-3.832,25.232,25.232,0,0,1-5.748-.211c4.33-4.426,3.832-9.043,3.832-13.2Z" transform="translate(38.466 28.391)"/><path class="a" d="M1.916,101.213H67.055A1.916,1.916,0,0,0,68.971,99.3V97.765a13.219,13.219,0,0,0-6.82-11.591L49.1,78.012a6.054,6.054,0,0,1-3.123-5.23V66.728A27.569,27.569,0,0,0,53.3,54.313a5.019,5.019,0,0,0,2.261-4.138v-6.61a5.134,5.134,0,0,0-1.916-3.659V30.193C53.644,29.56,52.3,15,34.485,15S15.327,29.695,15.327,30.442v9.464a5.134,5.134,0,0,0-1.916,3.678v6.61a5.02,5.02,0,0,0,2.28,4.177,27.109,27.109,0,0,0,7.3,12.357v6.054a6.15,6.15,0,0,1-3.334,5.441L7.012,86.155A13.411,13.411,0,0,0,0,97.765V99.3a1.916,1.916,0,0,0,1.916,1.916Zm7.031-11.84,12.645-7.951a9.867,9.867,0,0,0,5.23-8.64V66.728A3.832,3.832,0,0,0,25.6,63.912a23.393,23.393,0,0,1-6.169-10.422c-.517-2.28-2.184-2.088-2.184-3.314V43.6a2.261,2.261,0,0,1,.651-.862,3.832,3.832,0,0,0,1.264-2.835v-9.33c0-1.207,1.169-11.744,15.327-11.744s15.327,10.441,15.327,11.5v9.579c0,2.356,1.705,2.893,1.916,3.659v6.61a1.13,1.13,0,0,1-.536.958,3.832,3.832,0,0,0-1.648,2.356,23.392,23.392,0,0,1-6.169,10.422,3.832,3.832,0,0,0-1.226,2.816v6.054a9.713,9.713,0,0,0,5.02,8.526l13.047,8.181a9.464,9.464,0,0,1,4.924,7.893H3.832a9.579,9.579,0,0,1,5.115-8.008Z" transform="translate(0 13.738)"/><path class="a" d="M77.889,27H51.067a9.579,9.579,0,0,0-9.579,9.579v2.8L30.855,46.484a1.916,1.916,0,0,0,0,3.18l10.633,7.108v2.8a9.579,9.579,0,0,0,9.579,9.579H77.889a9.579,9.579,0,0,0,9.579-9.579V36.579A9.579,9.579,0,0,0,77.889,27Zm5.748,32.569a5.748,5.748,0,0,1-5.748,5.748H51.067a5.748,5.748,0,0,1-5.748-5.748V55.738a1.916,1.916,0,0,0-.862-1.59l-9.1-6.073L44.458,42a1.916,1.916,0,0,0,.862-1.59V36.579a5.748,5.748,0,0,1,5.748-5.748H77.889a5.748,5.748,0,0,1,5.748,5.748Z" transform="translate(27.483 24.728)"/><path class="a" d="M77.889,0H51.067a9.579,9.579,0,0,0-9.579,9.579v2.8L30.855,19.484a1.916,1.916,0,0,0,0,3.18l10.633,7.108v2.8a9.579,9.579,0,0,0,9.579,9.579H77.889a9.579,9.579,0,0,0,9.579-9.579V9.579A9.579,9.579,0,0,0,77.889,0Zm5.748,32.569a5.748,5.748,0,0,1-5.748,5.748H51.067a5.748,5.748,0,0,1-5.748-5.748V28.738a1.916,1.916,0,0,0-.862-1.59l-9.1-6.073L44.458,15a1.916,1.916,0,0,0,.862-1.59V9.579a5.748,5.748,0,0,1,5.748-5.748H77.889a5.748,5.748,0,0,1,5.748,5.748Z" transform="translate(27.483)"/><path class="a" d="M53.5,4A11.5,11.5,0,0,0,42,15.5V28.906a1.916,1.916,0,1,0,3.832,0V21.243H61.158v7.663a1.916,1.916,0,1,0,3.832,0V15.5A11.5,11.5,0,0,0,53.5,4ZM45.832,17.411V15.5a7.663,7.663,0,0,1,15.327,0v1.916Z" transform="translate(38.466 3.663)"/></svg>