<svg xmlns="http://www.w3.org/2000/svg" width="28.479" height="28.478" viewBox="0 0 28.479 28.478"><defs><style>.a{fill:#0d59ca;}</style></defs><g transform="matrix(0.996, -0.087, 0.087, 0.996, 0, 2.291)"><g transform="translate(0 0)"><path class="a" d="M2.109,17.255A14.925,14.925,0,0,0,6.8,16.508a2.142,2.142,0,0,1,2.084.439l2.956,2.231a16.335,16.335,0,0,0,7.344-7.343L17.014,8.957A2.125,2.125,0,0,1,16.492,6.8a14.948,14.948,0,0,0,.749-4.695A2.112,2.112,0,0,1,19.351,0h4.828a2.112,2.112,0,0,1,2.109,2.109A24.205,24.205,0,0,1,2.109,26.287,2.112,2.112,0,0,1,0,24.178V19.364A2.112,2.112,0,0,1,2.109,17.255Z" transform="translate(0 0)"/></g></g></svg>